<svg xmlns="http://www.w3.org/2000/svg" width="161" height="37" viewBox="0 0 161 37">
    <g fill="none" fill-rule="evenodd">
        <path d="M-17-17h210v72H-17z"/>
        <path fill="#FFF" fill-rule="nonzero" d="M6.5 8a6.5 6.5 0 0 1 6.5 6.5c0 1.61-.59 3.09-1.56 4.23l.27.27h.79l5 5-1.5 1.5-5-5v-.79l-.27-.27A6.516 6.516 0 0 1 6.5 21a6.5 6.5 0 1 1 0-13zm0 2C4 10 2 12 2 14.5S4 19 6.5 19s4.5-2 4.5-4.5S9 10 6.5 10z"/>
        <path fill="#FFF" d="M49.94 4.48a87.32 87.32 0 0 1 4.84 3.94c1-1.34 1.88-2.86 2.62-4.56l1.9 1c-.84 1.9-1.8 3.58-2.9 5.02 1.4 1.3 2.7 2.58 3.88 3.86l-1.62 1.64c-1.04-1.28-2.26-2.56-3.64-3.86-1.68 1.74-3.6 3.08-5.76 4l-1.22-1.88c2.04-.84 3.84-2.06 5.36-3.62-1.5-1.34-3.16-2.7-4.98-4.08l1.52-1.46zm-4.9-3.16h16.12v2h-14.1V16.3h14.72v2H45.04V1.32zm34.507 11.06c-.96 3.02-2.72 5.28-5.26 6.76l-1.26-1.72c2.4-1.3 4-3.38 4.78-6.22h-3.74V9.22h4.14c.12-.84.18-1.72.18-2.62V5.38h-3.48V3.4h3.48V.58h2.02V3.4h4.3v5.82h1.52v1.98h-5.28c1.16 2.56 3 4.64 5.5 6.24l-1.44 1.68c-2.44-1.82-4.26-4.06-5.46-6.74zm.86-7v.74c0 1.1-.06 2.14-.18 3.1h2.44V5.38h-2.26zm-12.36.28h1.98v-5h2.06v5h2.12V7.7h-2.12v5.86c.84-.32 1.66-.66 2.46-1.02v2.08c-1.96.88-4.04 1.64-6.26 2.24l-.54-2.12c.76-.16 1.52-.32 2.28-.52V7.7h-1.98V5.66zm27.146 2.3h12.36v7.66h-12.36V7.96zm10.32 5.82V12.7h-8.28v1.08h8.28zm-8.28-2.84h8.28V9.8h-8.28v1.14zm-4.16-8.78h7.28V.54h2.04v1.62h7.28v1.92h-5.46c1.48 1.12 3.58 2.02 6.34 2.7l-.9 1.88c-3.34-1.14-5.76-2.62-7.26-4.44v3.16h-2.04V4.22c-1.58 1.78-3.96 3.26-7.14 4.44l-1.14-1.84c2.84-.76 5-1.66 6.5-2.74h-5.5V2.16zm-.4 14.5h17.34v1.9h-17.34v-1.9zM123.78 7.2c-.22.24-.44.46-.68.7l-1.3-1.66c1.6-1.56 2.68-3.48 3.24-5.76l2.1.32c-.16.6-.34 1.18-.54 1.74h7.6c0 7.66-.1 12.38-.3 14.18-.2 1.48-1.18 2.24-2.9 2.24-.4 0-1.08-.04-2.04-.1l-.5-1.86c.86.06 1.6.1 2.22.1.7 0 1.1-.46 1.22-1.34.12-1.08.18-4.82.22-11.24h-6.42c-.36.66-.78 1.28-1.24 1.88h5.8v9.52h-6.48V7.2zm4.54 6.96V12h-2.54v2.16h2.54zm-2.54-3.86h2.54V8.18h-2.54v2.12zM119.06.7c1.26.98 2.34 1.96 3.22 2.92l-1.42 1.46c-.76-.92-1.86-1.9-3.28-2.94L119.06.7zm-2.84 5.78h4.76v8.22c.5-.46 1.04-.98 1.6-1.54l.58 2.18a29.49 29.49 0 0 1-3.92 3.2l-.8-1.88c.34-.3.52-.66.52-1.1V8.48h-2.74v-2zM45.09 31.64h5.86v3.6h-5.86v-3.6zm5.33 3.11v-1.06h-4.8v1.06h4.8zm-4.8-1.54h4.8v-1.08h-4.8v1.08zm-1.68-4.41h3.81v-.96h.54v.96h3.81v.52h-3.21c.76.82 1.96 1.47 3.62 1.94l-.22.48c-1.84-.61-3.14-1.42-3.88-2.42h-.12v1.98h-.54v-1.98h-.12c-.78.98-2.08 1.79-3.88 2.43l-.3-.47c1.71-.52 2.95-1.18 3.72-1.96h-3.23v-.52zm-.2 7.36h8.53v.5h-8.53v-.5zm14.383-5.39h2.95v4.48h-2.95v-4.48zm2.44 4.01v-1.57h-1.92v1.57h1.92zm-1.92-2.03h1.92v-1.51h-1.92v1.51zm.15-4.92l.54.08c-.1.37-.21.72-.34 1.06h4.01c0 3.56-.05 5.75-.15 6.59-.09.88-.55 1.33-1.39 1.33-.18 0-.49-.01-.92-.03l-.13-.48c.38.02.72.03 1 .03.53 0 .84-.34.92-1.02.07-.67.11-2.64.13-5.9h-3.71c-.35.68-.8 1.29-1.36 1.83l-.33-.43c.85-.84 1.43-1.86 1.73-3.06zm-3.42.13c.68.53 1.26 1.06 1.72 1.59l-.37.38c-.43-.5-1.01-1.04-1.74-1.6l.39-.37zm-1.1 3.01h2.06v4.59c.36-.3.74-.66 1.15-1.08l.14.57c-.56.57-1.15 1.08-1.79 1.53l-.21-.49c.12-.12.18-.24.18-.37V31.5h-1.53v-.53zm19.674-2.59v.54h-7.38v3.06c-.04 2.08-.39 3.74-1.07 4.98l-.42-.37c.6-1.1.92-2.64.94-4.61v-3.6h7.93zm-.49 2.97c-.02 2.63-.14 4.2-.37 4.72-.24.52-.66.78-1.26.78-.33 0-.72-.01-1.18-.03l-.15-.5c.48.01.88.02 1.2.03.52-.02.85-.27.98-.75.14-.48.22-1.73.24-3.76h-2.49c-.12 1.13-.37 2.07-.75 2.83-.51.97-1.35 1.73-2.52 2.29l-.3-.48c1.14-.54 1.94-1.29 2.42-2.23.3-.68.51-1.48.61-2.41h-2.43v-.49h2.47c.02-.28.03-.58.04-.88v-.97h.53v.97c0 .3-.01.6-.03.88h2.99zM77 29.18h3.32v-1.31h.54v1.31h3.23v3.31h-3.27c-.1 1.05-.4 1.89-.9 2.53 1.44.82 3.14 1.28 5.1 1.38l-.14.54c-2.06-.11-3.83-.62-5.33-1.52-.74.69-1.8 1.21-3.16 1.56l-.31-.49c1.28-.32 2.28-.79 2.98-1.39-.68-.47-1.3-1.02-1.86-1.65l.44-.31a9.28 9.28 0 0 0 1.8 1.58c.46-.54.74-1.28.84-2.23H77v-3.31zm6.55 2.79v-2.26h-2.69v2.01c0 .08-.01.17-.01.25h2.7zm-3.24 0c0-.1.01-.2.01-.3v-1.96h-2.78v2.26h2.77zm9.213-2.06c.96.72 1.84 1.45 2.65 2.17.62-.77 1.14-1.65 1.57-2.65l.49.26c-.47 1.06-1.02 1.98-1.65 2.76.82.75 1.57 1.5 2.24 2.25l-.41.41c-.63-.74-1.36-1.49-2.18-2.25-.9.99-1.94 1.74-3.13 2.25l-.31-.49a8.434 8.434 0 0 0 3.03-2.13c-.82-.72-1.71-1.46-2.69-2.21l.39-.37zm-1.93-1.63h7.87v.52h-7.34v7.23h7.62v.52h-8.15v-8.27zm15.694 4.85c-.4 1.76-1.3 3.03-2.69 3.83l-.33-.44c1.36-.74 2.2-1.96 2.54-3.66h-2.12v-.51h2.21c.06-.43.09-.88.09-1.36v-1.04h-1.89v-.51h1.89v-1.58h.53v1.58h2.18v2.91h.93v.51h-2.96c.62 1.52 1.64 2.74 3.04 3.65l-.36.42c-1.43-.99-2.45-2.26-3.06-3.8zm.23-3.18v.93c0 .52-.04 1.01-.1 1.47h1.74v-2.4h-1.64zm-5.84.62h1.21v-2.65h.53v2.65h1.2v.54h-1.2v3.55c.49-.18.97-.38 1.44-.6v.53c-.98.46-2.05.85-3.19 1.15l-.14-.54c.46-.1.92-.22 1.36-.36v-3.73h-1.21v-.54zm13.393-1.68h-1.8v-.54h5.83v.35c-.18.92-.37 1.71-.55 2.36h2.03v.33a6.428 6.428 0 0 1-1.96 3.5c.8.62 1.73 1.16 2.8 1.63l-.36.47c-1.11-.5-2.06-1.08-2.86-1.73-.88.71-1.99 1.3-3.31 1.76l-.31-.5c1.28-.44 2.34-.98 3.19-1.63-1.06-.96-1.81-2.07-2.26-3.33-.29 2.38-1.16 4.17-2.62 5.38l-.42-.36c1.7-1.39 2.57-3.62 2.6-6.68v-1.01zm3.12 5.65c.92-.84 1.52-1.83 1.82-2.97h-2.14c.2-.61.41-1.5.64-2.68h-2.9v1.01c0 .12-.01.25-.01.37.35 1.66 1.21 3.09 2.59 4.27zm13.693-6.06v8.49h-.54v-.65h-3.49v.66h-.52v-8.5h4.55zm-4.03 7.33h3.49v-1.98h-3.49v1.98zm0-2.49h3.49v-1.93h-3.49v1.93zm0-2.44h3.49v-1.89h-3.49v1.89zm-2.42.67v5.42h-.53v-5.42a10.96 10.96 0 0 1-1.43 2.91l-.21-.53a9.545 9.545 0 0 0 1.62-3.54h-1.45v-.51h1.47v-2.02h.53v2.02h1.35v.51h-1.35v.59c.46.5.94 1.07 1.42 1.71l-.3.44c-.44-.66-.81-1.19-1.12-1.58zm11.234-3.66c.42.54.82 1.12 1.18 1.75l-.48.24c-.38-.66-.77-1.24-1.19-1.75l.49-.24zm3.95-.09l.53.14c-.26.76-.58 1.45-.97 2.05h2.18v.54h-3.42v.59c-.01.52-.05.99-.13 1.43h4.13v.54h-3.76c.5 1.44 1.83 2.57 3.99 3.37l-.31.5c-2.26-.92-3.65-2.18-4.19-3.79-.18.65-.45 1.22-.81 1.7-.68.87-1.79 1.55-3.33 2.04l-.3-.47c1.52-.48 2.61-1.14 3.25-1.97.28-.41.49-.87.64-1.38h-3.72v-.54h3.85c.09-.45.14-.93.15-1.43v-.59h-3.43v-.54h4.6c.4-.6.75-1.33 1.05-2.19zm13.483 6.41c-.07 1.03-.2 1.69-.39 1.99-.18.3-.54.45-1.08.45h-2.58c-.6 0-.89-.31-.89-.93v-4.26h3.58v-2.53h-4.11v-.52h4.63v3.57h-3.57v3.57c0 .38.18.58.55.59h2.3c.4 0 .67-.15.79-.44.12-.26.2-.82.24-1.66l.53.17zm-8.06-6.25c.69.53 1.27 1.06 1.75 1.59l-.37.38c-.44-.5-1.03-1.04-1.77-1.6l.39-.37zm-1.07 3.01h2.06v4.64c.42-.31.87-.69 1.36-1.14l.14.58c-.62.57-1.29 1.07-1.99 1.51l-.21-.48c.11-.12.17-.24.17-.36V31.5h-1.53v-.53zm12.103-2.7h5.68v3.26h1.84v.51h-4.05v1.21c.26.32.55.61.86.89.74-.4 1.39-.99 1.93-1.76l.42.35c-.57.75-1.23 1.32-1.99 1.72.81.66 1.77 1.24 2.87 1.72l-.28.47c-1.6-.74-2.87-1.66-3.81-2.76v2.3c0 .53-.24.8-.71.8h-1.14l-.12-.51c.38.02.73.04 1.07.04.24 0 .36-.16.36-.46v-2.12c-1.05.99-2.32 1.88-3.8 2.66l-.22-.5c1.55-.75 2.89-1.66 4.02-2.74v-1.31h-3.92v-.51h6.12v-1.12h-4.79v-.48h4.79v-1.16h-5.13v-.5zm0 4.27c.62.44 1.14.87 1.56 1.29l-.36.36c-.39-.41-.91-.84-1.57-1.3l.37-.35z"/>
    </g>
</svg>
