<svg xmlns="http://www.w3.org/2000/svg" width="172" height="37" viewBox="0 0 172 37">
    <g fill="none" fill-rule="evenodd">
        <path d="M-18-16h210v72H-18z"/>
        <path fill="#FFF" fill-rule="nonzero" d="M0 27h14v-2H0v2zm14-11h-4v-6H4v6H0l7 7 7-7z"/>
        <path fill="#FFF" d="M44.02 1.44h17.94v2.04h-8.44v2.44c2.44 1.16 4.9 2.5 7.4 3.98l-1.26 1.88c-2.46-1.56-4.5-2.78-6.14-3.62v10.92h-2.1V3.48h-7.4V1.44zm25.307.54h3.66V.52h2.04v1.46h3.38v1.88h-3.38v1.28h4.16c-.08-1.44-.12-2.98-.12-4.64h2.02c0 1.72.04 3.28.12 4.64h4.82v1.9h-4.7c.1 1.62.26 2.92.46 3.92l.16.78c.54-1.24.98-2.6 1.34-4.12l1.86.84c-.62 2.42-1.42 4.46-2.38 6.12.12.3.22.56.34.78.46.9.8 1.36 1.04 1.36.18 0 .38-.94.58-2.82l1.76.96c-.48 2.66-1.16 4-2.08 4-.74 0-1.54-.6-2.38-1.8-.16-.24-.32-.48-.44-.74-.96 1.2-2.06 2.12-3.28 2.78l-1.14-1.68c1.36-.76 2.54-1.86 3.5-3.3-.28-.8-.52-1.7-.72-2.68-.28-1.24-.5-2.7-.64-4.4h-11.02v-1.9h4.7V3.86h-3.66V1.98zm13.8-1.3c1 1.12 1.78 2.1 2.32 2.94l-1.54 1.08c-.58-.9-1.36-1.9-2.36-3.02l1.58-1zm-4.72 13.98v1.8c-.92.12-1.88.24-2.88.36v2.2h-2.04v-2c-1.36.12-2.78.24-4.24.36l-.24-1.92c1.58-.08 3.08-.18 4.48-.3v-1.32h-3.62l-.42-1.66c.44-.54.88-1.2 1.28-1.98h-1.84V8.36h2.62c.16-.42.3-.84.44-1.26l1.98.38c-.12.3-.22.6-.32.88h4.9v1.84h-5.66c-.34.68-.7 1.32-1.06 1.9h1.7v-1.2h2.04v1.2h2.78v1.74h-2.78v1.14c1.02-.1 1.98-.2 2.88-.32zM92.473 3.72h7.92c-.5-.92-1.12-1.78-1.84-2.6l2.1-.76c.72.94 1.38 2.06 1.98 3.36h7.56V5.8h-3.02c-.96 3-2.36 5.5-4.2 7.52 2.06 1.64 4.62 3 7.66 4.12l-1.16 1.78c-3.2-1.2-5.86-2.68-7.98-4.44-2.24 1.98-5 3.44-8.26 4.36l-1.12-1.84c3.18-.82 5.82-2.1 7.9-3.86-2.16-2.2-3.66-4.74-4.5-7.64h-3.04V3.72zm5.04 2.08c.82 2.36 2.14 4.42 3.98 6.22 1.56-1.72 2.74-3.8 3.52-6.22h-7.5zM120.42.38l1.96.94c-.5 1.56-1.14 3.02-1.94 4.42v13.34h-2.06V8.78c-.52.64-1.06 1.26-1.62 1.86l-.7-2.24c1.96-2.26 3.42-4.94 4.36-8.02zm3.38 1.52l2.04.26c-.14.84-.32 1.66-.54 2.44h2.18V.66h2.1V4.6h4.34v2.04h-4.34v4.1h5.1v2.02h-5.1v6.26h-2.1v-6.26h-5.58v-2.02h5.58v-4.1h-2.86c-.5 1.24-1.1 2.38-1.8 3.4l-1.34-1.74c1.14-1.74 1.92-3.88 2.32-6.4zM43.58 28.44h8.83v.53H48v1.67c1.26.65 2.54 1.4 3.84 2.25l-.32.48c-1.39-.94-2.56-1.66-3.52-2.17V37h-.53v-8.03h-3.89v-.53zm11.403.29h2v-.91h.54v.91h1.87v.5h-1.87v1.06h2.57c-.04-.77-.06-1.6-.06-2.49h.52c0 .92.02 1.75.06 2.49h2.59v.51h-2.56c.06.92.14 1.69.26 2.3.08.38.16.72.24 1.03.41-.77.74-1.68.98-2.72l.48.21c-.32 1.27-.73 2.33-1.25 3.18.1.28.21.53.32.74.27.51.5.77.68.77.19-.01.36-.58.5-1.71l.46.26c-.2 1.33-.5 2-.88 2-.33 0-.69-.31-1.07-.91-.12-.2-.23-.42-.33-.65-.53.72-1.14 1.27-1.83 1.64l-.29-.44c.74-.41 1.37-1.01 1.9-1.8-.16-.45-.29-.95-.4-1.51-.13-.67-.23-1.47-.29-2.39h-5.67v-.51h2.53v-1.06h-2v-.5zm6.62-.78c.5.56.89 1.05 1.15 1.47l-.41.29c-.28-.46-.67-.96-1.16-1.5l.42-.26zm-2.2 7.09v.48c-.53.07-1.08.14-1.64.2v1.22h-.53v-1.16c-.75.07-1.54.13-2.38.19l-.06-.51c.86-.05 1.68-.11 2.44-.18v-1.02h-2.03l-.12-.45c.32-.38.61-.84.87-1.4h-1.19v-.49h1.41c.11-.27.21-.55.31-.83l.52.1c-.1.26-.19.5-.28.73h2.72v.49h-2.94c-.25.52-.52.99-.81 1.39h1.54v-.87h.53v.87h1.59v.46h-1.59v.97c.58-.06 1.12-.12 1.64-.19zm13.564-5.95v7.88h-.54v-.68h-5.52v.68h-.54v-7.88h2.11c.24-.41.42-.83.53-1.27l.55.08c-.12.42-.29.82-.51 1.19h3.92zm-6.06 6.68h5.52v-1.79h-5.52v1.79zm0-2.31h5.52v-1.67h-5.52v1.67zm0-2.19h5.52v-1.66h-5.52v1.66zM84.9 34.1c-.09 1.07-.24 1.76-.46 2.07-.22.32-.63.48-1.25.48h-5.15c-.8 0-1.19-.38-1.19-1.13v-3.76h6.39v-2.8h-6.52v-.52h7.06v3.84H77.4v3.07c0 .5.28.76.84.77h4.86c.5 0 .82-.15.98-.44.14-.28.23-.87.29-1.75l.53.17zm5.393-4.46v6.72h-.52v-.61h-2.02v.89h-.52v-7h.9c.21-.57.36-1.17.45-1.79l.55.07c-.11.62-.27 1.19-.48 1.72h1.64zm-2.54 5.61h2.02v-2.37h-2.02v2.37zm0-2.86h2.02v-2.23h-2.02v2.23zm4.24-.49c.76.84 1.34 1.57 1.74 2.2l-.43.31c-.42-.68-1.01-1.42-1.75-2.23l.44-.28zm3.48-2.25c0 3.23-.05 5.23-.14 5.99-.1.8-.56 1.2-1.39 1.2-.19 0-.52-.01-.98-.02l-.13-.5c.4.02.75.03 1.05.03.54 0 .85-.3.93-.89.08-.6.12-2.36.14-5.27h-2.95c-.28.65-.61 1.23-1.01 1.75l-.32-.42c.72-1 1.21-2.23 1.47-3.68l.53.06c-.12.62-.27 1.21-.46 1.75h3.26zm2.384-.04h4.22c-.27-.58-.61-1.11-1.03-1.61l.54-.2c.39.5.75 1.11 1.07 1.81h3.82v.54h-1.59c-.48 1.64-1.23 3-2.25 4.08 1.09.94 2.45 1.72 4.08 2.32l-.3.46c-1.68-.62-3.06-1.42-4.16-2.39-1.14 1.09-2.59 1.89-4.33 2.39l-.28-.48c1.72-.48 3.14-1.23 4.24-2.25a9.236 9.236 0 0 1-2.48-4.13h-1.55v-.54zm2.08.54c.45 1.45 1.23 2.7 2.33 3.75.95-1.02 1.64-2.27 2.07-3.75h-4.4zm10.783-2.35l.5.24c-.27.81-.6 1.57-1 2.27v6.68h-.53v-5.83c-.36.51-.75.99-1.18 1.45l-.18-.57c1.1-1.25 1.9-2.66 2.39-4.24zm1.67.63l.53.06c-.1.54-.22 1.04-.36 1.52h1.68v-2.14h.54v2.14h2.37v.54h-2.37v2.59h2.74v.53h-2.74v3.27h-.54v-3.27h-3.03v-.53h3.03v-2.59h-1.86c-.26.66-.57 1.26-.94 1.79l-.34-.44c.63-.95 1.06-2.11 1.29-3.47zm7.543 2.49h3.56v2.97h-3.56v-2.97zm3.03 2.47v-1.96h-2.48v1.96h2.48zm.89 1.23v.52c-1.32.37-2.75.68-4.29.92l-.13-.55c1.55-.2 3.02-.5 4.42-.89zm3.39 2.33c-.48-.02-.95-.34-1.39-.97-.16-.22-.29-.45-.4-.71-.58.72-1.21 1.29-1.91 1.71l-.31-.46c.74-.44 1.4-1.05 1.98-1.82-.15-.39-.27-.82-.37-1.29-.21-1.03-.32-2.25-.33-3.67h-5.1v-.54h5.1v-1.34h.54v1.34h1.67c-.18-.4-.38-.77-.6-1.09l.54-.09c.2.34.4.74.59 1.18h.99v.54h-3.19c.02 1.3.11 2.43.29 3.4.07.36.15.69.25 1.01.6-.95 1.1-2.1 1.51-3.45l.48.26c-.48 1.53-1.07 2.8-1.77 3.82.11.29.24.55.38.79.36.53.69.8.99.8.28 0 .52-.6.72-1.8l.45.3c-.25 1.38-.62 2.08-1.11 2.08zm4.794-6.33h.51v1.58h.99v.49h-.99v1.51c.36-.08.7-.17 1.02-.25v.51c-.34.09-.68.18-1.02.26v2.25h-.51v-2.13c-.59.12-1.2.22-1.84.32l-.08-.54c.68-.09 1.32-.19 1.92-.31v-1.62h-1.64l-.1-.44c.3-.66.57-1.46.81-2.42h-.9v-.52h1.02c.11-.48.21-.97.31-1.49l.5.11c-.1.48-.19.94-.29 1.38h1.83v.52h-1.95c-.23.89-.49 1.68-.77 2.37h1.18v-1.58zm2.89-.46h2.83v.46h-2.83v-.46zm.7 6.76h-.51l-.13-.47.48.03c.22 0 .34-.12.34-.35V35.1h-1.27v1.88h-.49v-5.43h2.24v4.68c0 .46-.22.69-.66.69zm-1.09-2.26h1.27v-1.1h-1.27v1.1zm0-1.53h1.27V32h-1.27v1.13zm2.47-1.33h.44v3.56h-.44V31.8zm1.03 5.13h-.85l-.11-.48c.28.02.54.04.78.04s.36-.16.36-.46v-4.71h.49v4.83c0 .52-.23.78-.67.78zm-1.86-9.06h.4c.88 1.1 1.78 1.98 2.7 2.62l-.29.44c-.96-.7-1.83-1.55-2.61-2.56-.83 1.03-1.72 1.91-2.68 2.65l-.3-.45c1.04-.76 1.96-1.66 2.78-2.7zm8.963 2.24c-.46-.85-1.02-1.5-1.68-1.96l.45-.3c.93.66 1.69 1.78 2.29 3.38.94 2.42 2.21 4.13 3.82 5.15l-.33.43c-1.65-1.01-2.98-2.83-3.99-5.46-.08-.22-.17-.43-.25-.61-.65 2.66-2.05 4.69-4.19 6.1l-.34-.46c2.18-1.43 3.59-3.52 4.22-6.27zm14.593-2.18l.26.44c-.6.22-1.28.39-2.06.51v1.31h2.73v.51h-2.73v1.32h2.35v.49h-5.21v-.49h2.32V30.7h-2.8v-.51h2.8v-1.24c-.64.06-1.33.1-2.07.1l-.17-.47c1.86-.01 3.39-.23 4.58-.65zm-5.65-.14l.52.12c-.25.52-.53.99-.85 1.43v3.45h-.54v-2.77c-.33.36-.68.7-1.06 1l-.34-.39a8.14 8.14 0 0 0 2.27-2.84zm.24 5.57h3.98v2.61c0 .24.12.37.36.37h1.02c.18 0 .33-.04.44-.12.13-.1.23-.57.31-1.39l.5.16c-.08.76-.18 1.26-.31 1.49-.15.23-.43.35-.85.35h-1.25c-.51 0-.76-.25-.76-.74v-2.22h-2.9v.79c-.05 1.27-.92 2.06-2.6 2.36l-.32-.46c1.58-.26 2.38-.92 2.38-1.97v-1.23zm14.564-4.44h-2.87v-.53h5.56v.53h-2.14v2.99h2.01v.51h-2.01v3.68h2.35v.53h-6.07v-.53h1.06v-5.41h.53v5.41h1.58v-7.18zm-5.15-.95c.67.52 1.23 1.05 1.69 1.58l-.37.38c-.42-.5-.98-1.04-1.7-1.6l.38-.36zm-1.11 3h2.03v4.5c.36-.3.75-.65 1.17-1.07l.14.57c-.56.56-1.15 1.06-1.79 1.5l-.21-.5c.12-.11.18-.22.18-.34V31.5h-1.52v-.53z"/>
    </g>
</svg>
