<svg xmlns="http://www.w3.org/2000/svg" width="185" height="37" viewBox="0 0 185 37">
    <g fill="none" fill-rule="evenodd">
        <path d="M-16-17h210v72H-16z"/>
        <path fill="#FFF" fill-rule="nonzero" d="M18 21.5c0 .38-.21.71-.53.88l-7.9 4.44c-.16.12-.36.18-.57.18-.21 0-.41-.06-.57-.18l-7.9-4.44A.991.991 0 0 1 0 21.5v-9c0-.38.21-.71.53-.88l7.9-4.44C8.59 7.06 8.79 7 9 7c.21 0 .41.06.57.18l7.9 4.44c.32.17.53.5.53.88v9zM9 9.15L3.04 12.5 9 15.85l5.96-3.35L9 9.15zM2 20.91l6 3.38v-6.71l-6-3.37v6.7zm14 0v-6.7l-6 3.37v6.71l6-3.38z"/>
        <path fill="#FFF" d="M52.54 8.64H47.1V6.62h15.26c-.14 3.7-.26 5.9-.36 6.62-.08.96-.28 1.62-.64 1.98-.36.36-1.04.54-2.02.54-.58 0-1.3.02-2.14.06l-.6-2.08c.74.02 1.48.04 2.24.04.42 0 .72-.12.9-.32.2-.24.32-.8.36-1.64.04-.48.1-1.54.16-3.18h-5.62v10.38h-2.1V8.64zM46.22 2.3h4.34V.62h2.12V2.3h4.64V.62h2.12V2.3h4.34v2.04h-4.34v1.64h-2.12V4.34h-4.64v1.62h-2.12V4.34h-4.34V2.3zM77.827.72h2.06v1.7h7.56v1.94h-7.56v1.96h6.34v6.92h-13.8V6.32h5.4V.72zm6.32 10.6V8.26h-9.64v3.06h9.64zm-11.76 2.5l1.74.84c-.72 1.7-1.54 3.18-2.5 4.42l-1.72-1.26c.96-1.12 1.78-2.44 2.48-4zm4.94.66c.4 1.28.74 2.64 1.06 4.12l-2.1.5c-.24-1.6-.56-3-.92-4.22l1.96-.4zm4.14-.28c.56 1.34 1.06 2.8 1.5 4.36l-2.08.5c-.36-1.68-.82-3.18-1.38-4.46l1.96-.4zm3.98-.48c1.24 1.64 2.2 3.06 2.88 4.26l-1.76 1.2c-.7-1.32-1.64-2.78-2.82-4.38l1.7-1.08zm20.086-3.44c.24-2.34.4-4.42.52-6.22l1.6.18c-.12 1.56-.26 2.94-.38 4.14h.96c.2-1.4.32-2.9.34-4.48v-.86h-3V1.2h6.3v1.84h-1.58v.86c-.02 1.6-.12 3.08-.32 4.48h2.08v1.9h-2.4c-.1.44-.2.86-.3 1.26h.98v5.34c0 .14.08.24.24.28h.26c.28-.04.44-.28.46-.72.04-.46.06-1.1.06-1.9l1.4.56c0 1.66-.12 2.68-.34 3.06-.22.34-.72.54-1.5.6h-.4c-1.28 0-1.9-.52-1.9-1.54v-3.4c-.84 2.14-2 3.9-3.46 5.3l-1.52-1.36c.4-.36.78-.74 1.12-1.14-.14-.36-.28-.74-.44-1.1-1.22.8-2.68 1.58-4.38 2.32l-.48-1.78c.36-.16.54-.38.54-.68V10.6l-.88 1.32c-.36-.78-.66-1.44-.94-2v9.2h-1.88v-8.64a28.39 28.39 0 0 1-1.52 3.8l-.86-2.18c1.1-1.76 1.9-3.76 2.38-6.04V6h-1.94V4.08h1.94V.6h1.88v3.48h1.32V6h-1.32v1.46c.62.82 1.22 1.68 1.82 2.6V1.2h5.04v10.06h-3.24v3.78c.6-.32 1.2-.68 1.8-1.08-.24-.5-.5-1-.76-1.5l1.38-.88c.7 1.26 1.28 2.4 1.72 3.42.84-1.4 1.48-2.96 1.92-4.72h-2.32zm-3.74-3.26v2.52h1.48V7.02h-1.48zm1.48-1.72V2.92h-1.48V5.3h1.48zm21.267-3.96h10.4v8.72h-2.58v6.28c0 .3.16.46.48.46h1.22c.28 0 .46-.16.58-.44.16-.32.26-1.24.3-2.8l1.88.58c-.16 2.2-.42 3.52-.78 3.92-.36.4-.9.6-1.6.6h-2.22c-1.24 0-1.84-.64-1.84-1.9v-6.7h-1.42c-.32 4.16-2.14 7.16-5.46 9.04l-1.14-1.82c2.78-1.4 4.32-3.82 4.6-7.22h-2.42V1.34zm8.38 6.8V3.3h-6.36v4.84h6.36zm-12.9-7.02c1.4 1.72 2.48 3.24 3.24 4.52l-1.64 1.16c-.8-1.4-1.9-2.94-3.28-4.62l1.68-1.06zm1.54 8.32l1.84.72c-1 3-2.1 5.8-3.32 8.44l-1.88-.82c1.3-2.72 2.42-5.5 3.36-8.34zM47.09 31.64h5.86v3.6h-5.86v-3.6zm5.33 3.11v-1.06h-4.8v1.06h4.8zm-4.8-1.54h4.8v-1.08h-4.8v1.08zm-1.68-4.41h3.81v-.96h.54v.96h3.81v.52h-3.21c.76.82 1.96 1.47 3.62 1.94l-.22.48c-1.84-.61-3.14-1.42-3.88-2.42h-.12v1.98h-.54v-1.98h-.12c-.78.98-2.08 1.79-3.88 2.43l-.3-.47c1.71-.52 2.95-1.18 3.72-1.96h-3.23v-.52zm-.2 7.36h8.53v.5h-8.53v-.5zm11.333-6.41h3.2c.14-.3.26-.59.37-.89-1.01.06-2.11.1-3.29.1l-.15-.46c2.84-.01 5.18-.21 7-.59l.26.45c-.95.21-2.05.36-3.31.46-.1.32-.22.63-.35.93h3.83v.48h-4.05c-.14.28-.3.55-.46.81h5.08v.49h-5.41c-.21.28-.43.56-.67.84h5.03v4.62h-.51v-.46h-4.68v.46h-.52v-3.92c-.56.52-1.18 1.02-1.87 1.49l-.29-.47c1.16-.79 2.12-1.64 2.86-2.56h-2.6v-.49h2.97c.18-.27.35-.54.51-.81h-2.95v-.48zm1.89 4.31v.76h4.68v-.76h-4.68zm4.68-.43v-.8h-4.68v.8h4.68zm-4.68 1.62v.82h4.68v-.82h-4.68zm8.964-4.08h3.48v-3.22h.56v3.22h3.39v5.74h-.54v-.43h-6.98v-.53h6.98v-1.92h-6.43v-.51h6.43V31.7h-6.89v-.53zm6.98-2.8l.5.23c-.34.71-.77 1.4-1.31 2.07l-.49-.26c.54-.68.98-1.36 1.3-2.04zm-6.4.11c.58.72 1.02 1.34 1.32 1.87l-.46.32c-.32-.58-.76-1.21-1.32-1.91l.46-.28zm15.803-.7l.53.19c-.21.44-.45.84-.71 1.19h2.82v.54h-8.91v-.54h2.85c-.2-.46-.43-.88-.69-1.24l.56-.09c.25.38.48.83.7 1.33h2.08c.3-.44.55-.9.77-1.38zm-2.82 9.13h-.79l-.15-.53.76.02c.3 0 .45-.17.45-.51v-1.13h-2.44v2.23h-.53v-6.34h3.5V36c0 .6-.27.91-.8.91zm-2.17-2.65h2.44v-1.29h-2.44v1.29zm0-1.78h2.44v-1.32h-2.44v1.32zm6.05 4.4h-1.31l-.12-.51c.44.02.85.03 1.24.03.31 0 .47-.17.47-.5v-5.57h.54v5.71c0 .56-.28.84-.82.84zm-1.82-5.8h.54v4.33h-.54v-4.33zm9.403 5.86h-1.11l-.12-.52c.36.02.7.04 1.04.04.28 0 .42-.14.42-.41v-2.64c-.98.06-2.04.11-3.19.17l-.15-.48c.18-.02.34-.05.48-.1.9-.38 1.92-.99 3.04-1.85-.94.07-1.95.13-3.01.19l-.12-.49c.13-.02.26-.05.38-.1.59-.28 1.27-.84 2.03-1.68-.9.05-1.86.08-2.88.08l-.16-.47c2.88-.01 5.24-.23 7.09-.67l.27.46c-1.02.26-2.23.44-3.63.55-.71.81-1.42 1.43-2.12 1.86.91-.05 1.82-.11 2.72-.18.46-.38.94-.79 1.44-1.23l.5.24c-1.78 1.59-3.34 2.71-4.67 3.36 1.81-.1 3.35-.22 4.63-.36-.26-.34-.54-.69-.84-1.04l.4-.26c.82.95 1.45 1.78 1.88 2.49l-.43.3c-.2-.34-.43-.69-.69-1.05-.72.08-1.53.15-2.44.22v2.81c0 .5-.26.76-.76.76zm2.17-2.85c1.01.75 1.86 1.5 2.55 2.24l-.39.39c-.62-.72-1.47-1.48-2.53-2.28l.37-.35zm-3.67.08l.39.35c-.69.82-1.54 1.53-2.55 2.15l-.34-.45a9.98 9.98 0 0 0 2.5-2.05zm11.534.66v.51c-.92.47-1.96.85-3.12 1.13l-.07-.54c1.22-.28 2.28-.65 3.19-1.1zm-1.48-6.97l.51.2c-.53 1.36-1.06 2.43-1.6 3.2.52-.08 1.04-.18 1.56-.31.18-.34.36-.69.56-1.06l.48.18c-.94 1.79-1.72 3.04-2.33 3.74.77-.18 1.54-.44 2.3-.78v.51c-1.03.43-2.02.73-2.98.9l-.14-.52c.1-.04.18-.09.25-.15.43-.46.95-1.22 1.56-2.29-.61.13-1.21.24-1.8.34l-.13-.51c.08-.04.16-.11.23-.21.58-.92 1.09-2 1.53-3.24zm1.84 4.28l-.12-.49c.05-.02.09-.03.12-.05.35-.26.82-.96 1.41-2.11h-1.83v-.51h2.64c-.14-.42-.31-.79-.49-1.13l.54-.1c.18.36.34.77.5 1.23h2.29v.51h-3.08c-.5.98-.93 1.69-1.31 2.11 1.03-.08 2.06-.21 3.1-.39-.25-.36-.52-.72-.81-1.09l.41-.27c.71.9 1.25 1.67 1.62 2.33l-.42.31c-.15-.27-.32-.55-.5-.83-1.25.2-2.61.36-4.07.48zm.87.49h.54c-.05 1.25-.21 2.17-.48 2.75-.29.62-.77 1.14-1.44 1.57l-.35-.43c.61-.38 1.04-.84 1.3-1.37.25-.53.39-1.37.43-2.52zm3.49 4.16h-.75c-.52 0-.77-.27-.77-.79v-3.45h.51v3.36c0 .24.09.37.27.39h.71c.26-.01.42-.12.47-.34.06-.27.09-.74.09-1.4l.47.17c0 .92-.07 1.5-.19 1.73-.13.2-.4.31-.81.33zm5.363-7.9h-1.8v-.54h5.83v.35c-.18.92-.37 1.71-.55 2.36h2.03v.33a6.428 6.428 0 0 1-1.96 3.5c.8.62 1.73 1.16 2.8 1.63l-.36.47c-1.11-.5-2.06-1.08-2.86-1.73-.88.71-1.99 1.3-3.31 1.76l-.31-.5c1.28-.44 2.34-.98 3.19-1.63-1.06-.96-1.81-2.07-2.26-3.33-.29 2.38-1.16 4.17-2.62 5.38l-.42-.36c1.7-1.39 2.57-3.62 2.6-6.68v-1.01zm3.12 5.65c.92-.84 1.52-1.83 1.82-2.97h-2.14c.2-.61.41-1.5.64-2.68h-2.9v1.01c0 .12-.01.25-.01.37.35 1.66 1.21 3.09 2.59 4.27zm8.673-2.96h-2.91v-.53h7.35c-.04 1.58-.07 2.51-.1 2.81-.04.57-.14.96-.3 1.16-.18.2-.49.31-.95.31-.28 0-.64.01-1.06.01l-.14-.53c.35 0 .71.01 1.07.01.29 0 .5-.08.64-.23.14-.15.23-.52.26-1.1.01-.28.02-.92.03-1.91h-3.36v5.37h-.53v-5.37zm-3.35-2.69h2.39v-1.04h.55v1.04h2.76v-1.04h.55v1.04h2.39v.54h-2.39v1.02h-.55v-1.02h-2.76v1.01h-.55v-1.01h-2.39v-.54zm14.724-1.05h.53v1.05h3.94v.51h-3.94v1.44h3.19v3.07h-6.45v-3.07h2.73v-3zm3.19 5.56v-2.05h-5.38v2.05h5.38zm-5.95 1.02l.46.23c-.38.88-.82 1.64-1.33 2.28l-.44-.31c.51-.62.95-1.35 1.31-2.2zm2.02.28c.2.67.39 1.4.55 2.18l-.55.13c-.13-.84-.3-1.57-.51-2.2l.51-.11zm2.1-.09c.3.69.57 1.44.8 2.25l-.54.13c-.21-.86-.46-1.62-.76-2.27l.5-.11zm2.1-.18c.64.85 1.12 1.59 1.46 2.23l-.44.31c-.36-.68-.85-1.43-1.46-2.26l.44-.28zm3.933-6.46c.7.52 1.29 1.05 1.77 1.58l-.39.38c-.44-.51-1.02-1.04-1.76-1.6l.38-.36zm5.94 8.82c-.54 0-1.13-.01-1.75-.02-.64-.02-1.15-.08-1.53-.19-.39-.12-.74-.36-1.05-.74-.13-.18-.26-.26-.38-.26-.27 0-.71.46-1.31 1.4l-.41-.36c.56-.88 1.06-1.39 1.48-1.53v-3.2h-1.48v-.52h1.99v3.75c.1.05.21.14.31.27.24.3.51.52.8.66.32.12.77.19 1.35.21.5.01 1.13.02 1.9.02h1.43c.48-.02.85-.03 1.11-.04l-.13.55h-2.33zm-2.97-8.32h4.51v.52h-4.51v-.52zm-.61 2.29h5.84v.52h-3.15c-.6 1.6-1.12 2.69-1.56 3.25 1.43-.14 2.6-.31 3.52-.52-.26-.61-.55-1.2-.88-1.77l.45-.14c.54.92 1.03 1.97 1.46 3.17l-.49.12c-.1-.31-.22-.61-.34-.9-1.09.24-2.55.44-4.38.6l-.14-.48c.42-.12 1.03-1.23 1.83-3.33h-2.16v-.52zm12.093-.9c-.46.98-1 1.83-1.62 2.57l-.38-.45c.94-1.1 1.68-2.5 2.22-4.18l.54.13c-.16.5-.34.96-.52 1.4h4.48v.53h-3.49v1.82h3.03v.54h-3.03v1.85h3.11v.53h-3.11v2.38h-.54v-7.12h-.69zm-3.01 1.26c-.36.48-.75.94-1.18 1.38l-.17-.57c1.12-1.21 1.92-2.57 2.42-4.08l.5.23c-.27.8-.61 1.54-1.03 2.23v6.67h-.54v-5.86zm14.004 2.93v.83h3.34v-.83h-3.34zm3.34-.43v-.88h-3.34v.88h3.34zm-3.34 1.7v1.63h-.52v-4.67h4.37v3.89c0 .49-.24.74-.72.74h-.8l-.14-.49.77.02c.25 0 .38-.13.38-.38v-.74h-3.34zm1.44-7.47h.54v.69h2.4V29h-2.4v.81h2.06v.45h-2.06v.8h2.68v.47h-5.94v-.11l-.4.1c-.17-.64-.38-1.25-.64-1.83l.39-.14c.24.52.46 1.12.65 1.79v-.28h2.72v-.8h-2.09v-.45h2.09V29h-2.43v-.46h2.43v-.69zm-5.59 1.91l.43.04c-.02 1-.13 1.96-.33 2.87l-.43-.13c.19-.88.3-1.8.33-2.78zm1.04-1.87h.54v9.04h-.54v-9.04zm12.683.49h4.95v3.92h-1.42v3.63c0 .22.13.34.39.34h.74c.24 0 .4-.07.5-.21.13-.19.22-.73.26-1.63l.48.16c-.06 1.02-.18 1.65-.37 1.89-.16.19-.42.29-.77.29h-1c-.5 0-.75-.25-.75-.74V32.3h-1.11c-.1 2.14-1.02 3.69-2.76 4.67l-.29-.46c1.6-.86 2.44-2.26 2.53-4.21h-1.38v-3.92zm4.42 3.41v-2.9h-3.89v2.9h3.89zm-7.05-3.53c.74.82 1.31 1.54 1.71 2.16l-.43.3c-.42-.66-.99-1.39-1.72-2.19l.44-.27zm1.3 4.09l.48.19c-.55 1.5-1.16 2.9-1.84 4.22l-.49-.21c.71-1.37 1.33-2.77 1.85-4.2z"/>
    </g>
</svg>
