<svg xmlns="http://www.w3.org/2000/svg" width="64" height="24" viewBox="0 0 64 24">
    <g fill="none" fill-rule="evenodd">
        <rect width="64" height="24" fill="#769BE5" rx="12"/>
        <path fill="#FFF" d="M19.428 6.472c.816.624 1.5 1.26 2.052 1.896l-.456.456c-.504-.6-1.188-1.248-2.052-1.92l.456-.432zm6.804 10.476c-.624 0-1.308-.012-2.04-.024-.744-.024-1.344-.096-1.788-.228-.456-.144-.852-.432-1.212-.888-.168-.216-.312-.312-.444-.312-.324 0-.84.552-1.548 1.668l-.492-.432c.672-1.044 1.248-1.656 1.74-1.824v-3.84h-1.776v-.624h2.388v4.5c.12.072.228.18.348.324.288.36.6.624.936.792.372.144.9.228 1.584.252.576.012 1.32.024 2.208.024h1.86c.624-.024 1.104-.036 1.44-.048l-.156.66h-3.048zm-1.2-5.292c.696.408 1.344.828 1.944 1.26a9.68 9.68 0 0 0 1.308-1.32l.48.372c-.432.504-.864.948-1.308 1.308.624.48 1.2.984 1.728 1.5l-.42.492c-1.068-1.128-2.436-2.184-4.092-3.156l.36-.456zm-1.584-2.484v1.248h4.26V9.172h-4.26zm4.26-.564V7.372h-4.26v1.236h4.26zm-4.26 2.4v3.552a22.988 22.988 0 0 0 2.544-.588l.144.6c-.912.252-2.064.492-3.456.72l-.144-.54c.18-.072.276-.168.276-.3V6.784h5.532v4.224h-4.896zm19.936-.528V7.12h.648v3.984h-3.696v4.608h3.612v-3.348h.636v4.728h-.636v-.744h-7.896v.744h-.636v-4.728h.636v3.348h3.612v-4.608h-3.696V7.12h.648v3.36h3.048V6.208h.672v4.272h3.048z"/>
    </g>
</svg>
