<svg xmlns="http://www.w3.org/2000/svg" width="159" height="38" viewBox="0 0 159 38">
    <g fill="none" fill-rule="evenodd">
        <path d="M-19-16h210v72H-19z"/>
        <path fill="#FFF" fill-rule="nonzero" d="M4 23v-6H0l7-7 7 7h-4v6H4zm-4 4v-2h14v2H0z"/>
        <path fill="#FFF" d="M48.98.58h2.16v5.94h7.4v2.02h-7.4v7.82h8.88v2.04H42.04v-2.04h6.94V.58zM68.187 8.7c-.56.68-1.14 1.32-1.76 1.94l-.7-2.24c2.02-2.22 3.52-4.84 4.5-7.86l1.98.92a21.65 21.65 0 0 1-1.94 4.28v13.38h-2.08V8.7zm3.9-5.78h3.8l.54-2.38 2.04.2c-.16.76-.34 1.48-.5 2.18h5.68v2h-6.2c-.16.6-.32 1.18-.48 1.72h7.5v1.98h-8.16c-.26.7-.52 1.36-.76 1.96h7.86v1.8c-.78 1.24-1.98 2.48-3.58 3.72.8.42 1.56.86 2.3 1.34l-1.16 1.8c-2.44-1.62-4.96-2.9-7.52-3.82l1.1-1.64c1.2.44 2.36.9 3.46 1.42 1.32-.88 2.36-1.78 3.16-2.7h-8.34c.52-1.24 1-2.54 1.46-3.88h-3.08V6.64h3.7c.16-.58.32-1.16.48-1.72h-3.3v-2zm18.386.8h7.92c-.5-.92-1.12-1.78-1.84-2.6l2.1-.76c.72.94 1.38 2.06 1.98 3.36h7.56V5.8h-3.02c-.96 3-2.36 5.5-4.2 7.52 2.06 1.64 4.62 3 7.66 4.12l-1.16 1.78c-3.2-1.2-5.86-2.68-7.98-4.44-2.24 1.98-5 3.44-8.26 4.36l-1.12-1.84c3.18-.82 5.82-2.1 7.9-3.86-2.16-2.2-3.66-4.74-4.5-7.64h-3.04V3.72zm5.04 2.08c.82 2.36 2.14 4.42 3.98 6.22 1.56-1.72 2.74-3.8 3.52-6.22h-7.5zM118.42.38l1.96.94c-.5 1.56-1.14 3.02-1.94 4.42v13.34h-2.06V8.78c-.52.64-1.06 1.26-1.62 1.86l-.7-2.24c1.96-2.26 3.42-4.94 4.36-8.02zm3.38 1.52l2.04.26c-.14.84-.32 1.66-.54 2.44h2.18V.66h2.1V4.6h4.34v2.04h-4.34v4.1h5.1v2.02h-5.1v6.26h-2.1v-6.26h-5.58v-2.02h5.58v-4.1h-2.86c-.5 1.24-1.1 2.38-1.8 3.4l-1.34-1.74c1.14-1.74 1.92-3.88 2.32-6.4zM45.25 27.85h.56v3.16h3.7v.52h-3.7v4.48h4.63v.53h-8.85v-.53h3.66v-8.16zm8.343 3.31c-.36.52-.76 1-1.19 1.45l-.18-.57a11.28 11.28 0 0 0 2.4-4.19l.5.23c-.26.79-.59 1.53-.99 2.22V37h-.54v-5.84zm1.77-1.96h1.97c.12-.45.22-.9.32-1.35l.53.05c-.1.45-.2.88-.3 1.3h3.12v.52h-3.26c-.13.48-.26.93-.38 1.34h4.05v.51h-4.22c-.18.52-.37.99-.56 1.43h4.2v.48c-.46.75-1.17 1.49-2.13 2.22.51.28 1 .57 1.46.89l-.3.47c-1.22-.85-2.48-1.52-3.77-2.01l.29-.44c.65.26 1.26.54 1.84.84.86-.61 1.54-1.26 2.02-1.94h-4.33c.26-.62.51-1.27.73-1.94h-1.72v-.51h1.88c.14-.44.28-.89.4-1.34h-1.84v-.52zm8.044.55h3.99v-1.87h.54v1.87h3.98v.53h-3.41c.69 1.66 1.93 3.14 3.71 4.43l-.36.47c-1.82-1.45-3.09-3.08-3.79-4.9h-.13v4.06h2.22v.53h-2.22v2.11h-.54v-2.11h-2.14v-.53h2.14v-4.06h-.14c-.74 2.05-2.04 3.72-3.88 5.02l-.31-.49c1.76-1.17 3.02-2.68 3.76-4.53h-3.42v-.53zm19.263.11c0 1.97-.05 3.16-.14 3.58-.1.41-.51.62-1.22.62h-.07l-.16-.52c.13 0 .24.01.34.01.33 0 .54-.12.62-.36.06-.23.1-1.1.11-2.62l-1.66.51v3.86h-.52v-3.7l-1.64.51v4.04c0 .33.17.5.53.5h2.9c.24 0 .41-.07.51-.21.13-.18.22-.7.26-1.56l.5.16c-.06 1-.18 1.61-.38 1.84-.16.18-.42.28-.78.28H78.7c-.61 0-.91-.3-.91-.9v-3.98l-.93.28v-.54l.93-.28v-2.51h.54v2.34l1.64-.51v-2.84h.52v2.68l2.18-.68zM77 34.13v.55c-.92.42-1.92.77-2.98 1.05l-.14-.55c.45-.1.89-.21 1.33-.35v-3.72H74v-.54h1.21v-2.63h.53v2.63h1.11v.54h-1.11v3.54c.43-.15.85-.32 1.26-.52zm14.053-5.21h-2.87v-.53h5.56v.53h-2.14v2.99h2.01v.51h-2.01v3.68h2.35v.53h-6.07v-.53h1.06v-5.41h.53v5.41h1.58v-7.18zm-5.15-.95c.67.52 1.23 1.05 1.69 1.58l-.37.38c-.42-.5-.98-1.04-1.7-1.6l.38-.36zm-1.11 3h2.03v4.5c.36-.3.75-.65 1.17-1.07l.14.57c-.56.56-1.15 1.06-1.79 1.5l-.21-.5c.12-.11.18-.22.18-.34V31.5h-1.52v-.53zm12.014 5.91h-.85l-.11-.51c.26.02.52.04.77.04.27 0 .41-.15.41-.45v-2.68c-.42.16-.84.3-1.27.43l-.14-.53c.48-.12.95-.26 1.41-.43v-2.39h-1.25v-.53h1.25v-1.94h.54v1.94h1.02v.53h-1.02v2.18c.34-.15.67-.31.99-.48v.53c-.32.17-.65.33-.99.47v3.03c0 .52-.26.79-.76.79zm2.89-4.46c-.12 1.73-.52 3.25-1.19 4.55l-.42-.37c.74-1.36 1.11-3.12 1.12-5.26v-3.03h5.18v2.29h-1.93v1.31h2.2v.51h-2.2v1.36h1.73v3.19h-.5v-.52h-2.99v.52h-.5v-3.19h1.72v-1.36h-2.22zm2.22-1.82h-2.18v.74c0 .2-.01.39-.01.57h2.19V30.6zm-1.22 5.35h2.99v-1.67h-2.99v1.67zm3.16-7.13h-4.12v1.29h4.12v-1.29zm3.833 2.02h3.04v-.7h.54v.7h3.02v.49h-3.02v1.12h4.15v.48h-2v1.1h1.57v.49h-1.57v1.71c0 .49-.26.74-.78.74h-1.47l-.12-.51c.49.02.96.04 1.41.04.28 0 .42-.13.42-.39v-1.59h-5.71v-.49h5.71v-1.1h-6.31v-.48h4.16v-1.12h-3.04v-.49zm1.07 4.04c.55.54.97 1.02 1.27 1.42l-.43.31c-.31-.44-.74-.93-1.29-1.45l.45-.28zm-.82-5.78c-.25.48-.54.91-.87 1.3l-.47-.3c.6-.67 1.03-1.43 1.31-2.28l.53.11c-.08.24-.17.48-.27.7h2.69v.47h-1.8c.29.38.52.74.69 1.07l-.48.18c-.22-.43-.48-.85-.78-1.25h-.55zm4.06-.03a6.8 6.8 0 0 1-.59.94l-.45-.28c.44-.58.77-1.22.98-1.93l.52.11c-.08.24-.16.47-.25.69h3.02v.47h-1.96c.3.39.53.75.7 1.07l-.48.19c-.23-.44-.5-.86-.81-1.26H112zm5.523.54h4.22c-.27-.58-.61-1.11-1.03-1.61l.54-.2c.39.5.75 1.11 1.07 1.81h3.82v.54h-1.59c-.48 1.64-1.23 3-2.25 4.08 1.09.94 2.45 1.72 4.08 2.32l-.3.46c-1.68-.62-3.06-1.42-4.16-2.39-1.14 1.09-2.59 1.89-4.33 2.39l-.28-.48c1.72-.48 3.14-1.23 4.24-2.25a9.236 9.236 0 0 1-2.48-4.13h-1.55v-.54zm2.08.54c.45 1.45 1.23 2.7 2.33 3.75.95-1.02 1.64-2.27 2.07-3.75h-4.4zm10.784-2.35l.5.24c-.27.81-.6 1.57-1 2.27v6.68h-.53v-5.83c-.36.51-.75.99-1.18 1.45l-.18-.57c1.1-1.25 1.9-2.66 2.39-4.24zm1.67.63l.53.06c-.1.54-.22 1.04-.36 1.52h1.68v-2.14h.54v2.14h2.37v.54h-2.37v2.59h2.74v.53h-2.74v3.27h-.54v-3.27h-3.03v-.53h3.03v-2.59h-1.86c-.26.66-.57 1.26-.94 1.79l-.34-.44c.63-.95 1.06-2.11 1.29-3.47zm7.593-.31c.6.19 1.15.42 1.65.69l-.29.45c-.53-.32-1.08-.56-1.64-.73l.28-.41zm3.33-.29l.53.06c-.08.25-.18.48-.29.7h4.11v.34c-.12.5-.29.98-.5 1.45l-.52-.15c.19-.34.34-.73.46-1.15h-1.88c-.05.26-.12.51-.2.73.54.83 1.58 1.4 3.14 1.7l-.19.47c-1.5-.3-2.56-.87-3.16-1.71-.14.22-.3.43-.48.61-.49.46-1.29.82-2.39 1.08l-.21-.49c1.01-.22 1.74-.52 2.19-.92.4-.36.66-.85.79-1.47h-1.46c-.27.38-.6.72-1 1.02l-.33-.43c.69-.5 1.15-1.12 1.39-1.84zm3.67 4.48v2.97h-.55v-2.46h-5.24v2.52h-.55v-3.03h6.34zm-3.37.98l.55.05c-.14 1.26-.44 2.12-.92 2.57-.52.55-1.66.9-3.41 1.04l-.22-.49c1.6-.09 2.66-.38 3.18-.87.46-.46.74-1.22.82-2.3zm-2.17-3.31l.32.37a9.27 9.27 0 0 1-1.86 1.49l-.36-.41c.76-.45 1.39-.93 1.9-1.45zm2.98 5.3c1.3.34 2.48.77 3.55 1.28l-.29.45a19.4 19.4 0 0 0-3.54-1.32l.28-.41zm6.393-6.59c.22.6.41 1.29.57 2.07l-.44.11c-.16-.71-.35-1.39-.59-2.03l.46-.15zm2.87-.15l.48.06c-.07.82-.23 1.54-.49 2.17l-.43-.13c.23-.61.38-1.31.44-2.1zm-3.46 2.87h1.87v-3.52h.53v3.52h1.57v.53h-1.57v.3c.52.48 1.04 1.03 1.56 1.63l-.31.48c-.49-.68-.91-1.23-1.25-1.63v4.23h-.53v-4.3c-.47 1.03-1.06 1.92-1.78 2.67l-.22-.54c.9-.9 1.56-1.84 1.96-2.84h-1.83v-.53zm7.24-3.51h.53v5.75l1.2-.18.09.54-1.29.2v2.74h-.53v-2.66l-2.99.45-.07-.54 3.06-.47V27.9zm-2.16.74c.67.5 1.23 1.01 1.69 1.51l-.37.37c-.42-.48-.99-.99-1.69-1.53l.37-.35zm-.25 2.35c.66.52 1.22 1.04 1.66 1.56l-.36.37c-.42-.5-.97-1.02-1.67-1.58l.37-.35z"/>
    </g>
</svg>
