<svg xmlns="http://www.w3.org/2000/svg" width="19" height="13" viewBox="0 0 19 13">
    <defs>
        <linearGradient id="a" x1="50%" x2="50%" y1="0%" y2="100%">
            <stop offset="0%" stop-color="#1C2C55"/>
            <stop offset="100%" stop-color="#4C5C83"/>
        </linearGradient>
        <linearGradient id="b" x1="50%" x2="50%" y1="0%" y2="100%">
            <stop offset="0%" stop-color="#1C2C55"/>
            <stop offset="100%" stop-color="#4C5C83"/>
        </linearGradient>
    </defs>
    <path fill="url(#a)" fill-rule="nonzero" stroke="url(#b)" d="M7.622 7.892L6.571 6.841a2.074 2.074 0 0 1 0-2.934l.376-.375.733.733-.376.376a1.037 1.037 0 0 0 0 1.466l3.3 3.3a1.037 1.037 0 0 0 1.467 0l3.3-3.3a1.037 1.037 0 0 0 0-1.466l-3.3-3.3a1.037 1.037 0 0 0-1.467 0L9.089 2.856l1.052 1.051c.81.81.81 2.124 0 2.934l-.387.387-.734-.734.387-.387a1.037 1.037 0 0 0 0-1.466l-3.3-3.3a1.037 1.037 0 0 0-1.466 0l-3.3 3.3a1.037 1.037 0 0 0 0 1.466l3.3 3.3a1.037 1.037 0 0 0 1.466 0l1.515-1.515zm.734.734L6.84 10.14c-.81.81-2.124.81-2.934 0l-3.3-3.3a2.074 2.074 0 0 1 0-2.934l3.3-3.3c.81-.81 2.124-.81 2.934 0l1.515 1.515L9.87.607c.81-.81 2.123-.81 2.933 0l3.3 3.3c.81.81.81 2.124 0 2.934l-3.3 3.3c-.81.81-2.123.81-2.933 0L8.356 8.626z" transform="translate(1 1)"/>
</svg>
