<svg xmlns="http://www.w3.org/2000/svg" width="200" height="234" viewBox="0 0 200 234">
    <defs>
        <linearGradient id="a" x1="50%" x2="50%" y1="0%" y2="100%">
            <stop offset="0%" stop-color="#1C2C55"/>
            <stop offset="100%" stop-color="#4C5C83"/>
        </linearGradient>
        <linearGradient id="b" x1="50%" x2="50%" y1="0%" y2="100%">
            <stop offset="0%" stop-color="#1C2C55"/>
            <stop offset="100%" stop-color="#4C5C83"/>
        </linearGradient>
    </defs>
    <g fill="none" fill-rule="evenodd">
        <path fill="#000" d="M1.96 100.096h2.124v-.912h.84v.912h4.14v-.912h.84v.912h2.124v.732H9.904v3.972h2.304v.768H9.712c.576.72 1.476 1.284 2.676 1.692l-.348.744c-1.488-.624-2.544-1.44-3.168-2.436H5.104c-.624.996-1.632 1.824-3.024 2.472l-.444-.732c1.188-.456 2.064-1.032 2.64-1.74H1.78v-.768h2.304v-3.972H1.96v-.732zm2.964 4.704h4.14v-.864h-4.14v.864zm0-1.548h4.14v-.852h-4.14v.852zm0-1.536h4.14v-.888h-4.14v.888zm1.656 4.272h.84v.96h2.436v.768H7.42v1.272h4.116v.804H2.38v-.804h4.2v-1.272H4.12v-.768h2.46v-.96zm8.872-6.324h9.012v.84H20.54v3.264h4.764v.864H20.54v4.26c0 .78-.408 1.176-1.212 1.176h-1.872l-.18-.828c.612.024 1.2.048 1.752.048.42 0 .636-.204.636-.612v-4.044h-4.968v-.864h4.968v-3.264h-4.212v-.84zm15.496 1.956c1.104.84 2.136 1.68 3.084 2.52.684-.876 1.272-1.884 1.776-3.024l.78.42c-.54 1.224-1.164 2.292-1.884 3.204a42.76 42.76 0 0 1 2.556 2.556l-.672.672a28.403 28.403 0 0 0-2.46-2.556 10.916 10.916 0 0 1-3.648 2.592l-.504-.78a9.842 9.842 0 0 0 3.492-2.424 54.238 54.238 0 0 0-3.144-2.58l.624-.6zm-2.532-1.932h9.528v.828h-8.7v8.352h9.048v.828h-9.876V99.688zm18.952 6.12c-.516 1.992-1.584 3.444-3.192 4.38l-.528-.696c1.56-.84 2.568-2.232 3-4.152h-2.46v-.828h2.604c.072-.516.108-1.044.108-1.596v-1.068h-2.208v-.828H46.9v-1.812h.828v1.812h2.604v3.492h1.044v.828h-3.408c.732 1.728 1.908 3.108 3.528 4.14l-.588.696c-1.62-1.164-2.796-2.616-3.54-4.368zm.36-3.96v.864c0 .624-.048 1.224-.12 1.8h1.884v-2.664h-1.764zm-7.14.54h1.344v-3.12h.864v3.12h1.368v.84h-1.368v3.996a19.503 19.503 0 0 0 1.632-.684v.864a22.211 22.211 0 0 1-3.804 1.368l-.216-.864c.528-.12 1.032-.252 1.524-.396v-4.284h-1.344v-.84zm19.072 3.576h2.244v-1.476h-1.968l-.168-.72c.408-.66.78-1.476 1.116-2.46h-1.2v-.756h1.428c.12-.432.24-.888.36-1.356l.768.18c-.096.408-.204.804-.312 1.176h2.292v.756h-2.532c-.312.912-.648 1.728-1.02 2.424h1.236v-1.62h.804v1.62h1.404v.756h-1.404v1.476h1.74v.768h-1.74v1.992h-.804v-1.992H59.66v-.768zm-1.68-6.516c.552.72.984 1.356 1.272 1.896l-.648.456c-.312-.6-.732-1.248-1.26-1.956l.636-.396zm4.752 9.756c.624 0 1.224-.012 1.788-.024l-.228.816h-1.62c-.36 0-.732-.012-1.092-.024a5.3 5.3 0 0 1-1.464-.216 2.406 2.406 0 0 1-1.056-.732c-.156-.18-.288-.264-.396-.264-.204 0-.576.468-1.104 1.416l-.516-.648c.504-.792.924-1.284 1.26-1.488v-4.044h-.972v-.768h1.764v4.848c.048.048.096.084.132.132.24.312.552.552.924.732.336.132.744.216 1.212.24.456.012.912.024 1.368.024zm-7.968-9.972l.828.168c-.084.408-.18.792-.276 1.176h1.812v.816h-2.064a14.484 14.484 0 0 1-.924 2.256l-.684-.432c.6-1.2 1.044-2.532 1.308-3.984zm-.264 3.732h2.424v.78h-.984v1.5h1.32v.804h-1.32v2.796a5.954 5.954 0 0 0 1.044-.684l.144.744a8.016 8.016 0 0 1-1.968 1.02l-.324-.72c.18-.084.276-.216.276-.384v-2.772H53.78v-.804h1.332v-1.5H54.5v-.78zm16.348-1.692v8.184h-.84v-.684h-2.184v1.032h-.84v-8.532H68.1c.24-.672.408-1.368.516-2.088l.864.12a11.461 11.461 0 0 1-.564 1.968h1.932zm-3.024 6.696h2.184v-2.628h-2.184v2.628zm0-3.408h2.184v-2.472h-2.184v2.472zm5.112-.504c.864.996 1.512 1.872 1.968 2.616l-.684.48c-.492-.792-1.152-1.68-1.98-2.664l.696-.432zm4.116-2.772c0 3.984-.06 6.456-.18 7.392-.12.912-.672 1.38-1.68 1.38-.24 0-.648-.024-1.224-.048l-.204-.792c.504.024.936.036 1.308.036.564 0 .888-.312.984-.924.072-.672.12-2.748.144-6.204h-3.3c-.336.756-.732 1.44-1.2 2.052l-.516-.684c.84-1.176 1.404-2.616 1.716-4.32l.852.108c-.144.708-.312 1.38-.528 2.004h3.828zm3.724 3.036h5.292v3.696h-5.292v-3.696zm4.464 2.928V105.1h-3.624v2.148h3.624zm2.916 2.868H86.5l-.216-.828 1.68.024c.36 0 .552-.24.552-.72v-8.052h-8.16v-.84h9.024v9.132c0 .852-.408 1.284-1.224 1.284zm-8.28-8.052h7.38v.78h-7.38v-.78zm19.108-2.868h.888v1.932h3.084v.84h-3.084v2.244h3.408v.84h-3.936c-.768 1.836-1.44 3.132-2.016 3.888a52.243 52.243 0 0 0 4.44-.672c-.348-.72-.708-1.38-1.068-1.98l.828-.276a26.25 26.25 0 0 1 1.896 3.864l-.816.36c-.168-.42-.324-.816-.492-1.2a68.2 68.2 0 0 1-5.904.816l-.204-.756c.072-.024.132-.06.18-.084.564-.492 1.308-1.812 2.22-3.96h-2.844v-.84h3.42v-2.244H96.14v-.84h2.844v-1.932zm-5.448.192c.78.588 1.44 1.176 1.968 1.776l-.612.624c-.48-.576-1.128-1.176-1.968-1.812l.612-.588zm-.288 2.808c.72.588 1.32 1.188 1.812 1.788l-.624.612c-.432-.564-1.032-1.164-1.8-1.812l.612-.588zm1.38 3.324l.78.312a39.621 39.621 0 0 1-1.728 4.272l-.864-.372a34.253 34.253 0 0 0 1.812-4.212zm11.224-5.244h5.064v.852h-1.836v2.58h1.38v.816h-1.38v3.072c.624-.18 1.212-.372 1.788-.564v.804c-1.464.528-3.168 1.008-5.124 1.44l-.228-.792c.264-.06.516-.12.768-.168v-5.592h.804v5.4c.396-.096.78-.192 1.152-.288v-6.708h-2.388v-.852zm5.856 3.564a14.7 14.7 0 0 1-.9 1.608l-.492-.648c.936-1.536 1.56-3.408 1.884-5.628l.852.096c-.108.66-.24 1.284-.384 1.86h3.684v.852h-.912c-.06 1.992-.528 3.684-1.392 5.052.72 1.056 1.572 1.872 2.568 2.448l-.492.72c-1.008-.6-1.872-1.416-2.592-2.46-.828 1.02-1.908 1.836-3.24 2.448l-.528-.708c1.416-.6 2.508-1.428 3.3-2.484-.54-.912-.996-1.968-1.356-3.156zm1.836 2.388c.66-1.188 1.008-2.604 1.044-4.248h-2.16c-.096.264-.18.528-.264.78.36 1.32.828 2.484 1.38 3.468zm8.584-7.068l.876.12a7.183 7.183 0 0 1-.456.912h5.232v.696c-.768.888-1.704 1.644-2.808 2.268 1.356.576 2.868.948 4.536 1.116l-.396.804c-1.896-.216-3.588-.696-5.076-1.44-1.464.672-3.18 1.164-5.124 1.464l-.396-.816c1.74-.24 3.264-.624 4.584-1.152a12.414 12.414 0 0 1-1.872-1.356c-.456.408-.948.78-1.5 1.116l-.528-.696c1.44-.828 2.424-1.836 2.928-3.036zm1.896 3.552a10.79 10.79 0 0 0 2.52-1.704h-4.584l-.156.192a11.322 11.322 0 0 0 2.22 1.512zm-.732 1.788h.852c0 .48-.048.936-.12 1.368h4.224c-.024 2.028-.204 3.24-.552 3.636-.348.396-.948.6-1.8.6-.384 0-.852-.024-1.404-.048l-.216-.78 1.416.06c.72-.012 1.164-.168 1.356-.456.18-.288.288-1.032.324-2.232h-3.552a4.952 4.952 0 0 1-.384.9c-.612 1.08-2.016 1.98-4.224 2.676l-.576-.708c1.968-.576 3.276-1.308 3.9-2.184.144-.216.276-.444.372-.684h-3.576v-.78h3.816c.096-.432.144-.888.144-1.368zm17.14-.564v2.352h-5.988v.828h6.54v3.084h-.852v-.504h-5.688v.492h-.864v-6.252h6.852zm-5.988 4.992h5.688v-1.116h-5.688v1.116zm0-3.336h5.148v-.96h-5.148v.96zm7.644-3.108v2.172h-.84v-1.428h-8.496v1.428h-.84v-2.172h4.752c-.12-.288-.24-.54-.372-.78l.84-.144-.072-.048c.576-.72.984-1.5 1.248-2.364l.828.18c-.084.252-.168.492-.264.732h3.468v.756h-2.136c.252.336.456.648.6.936l-.768.288a7.994 7.994 0 0 0-.756-1.224h-.756a9.384 9.384 0 0 1-.732 1.152l-.648-.396c.132.276.264.576.384.912h4.56zm-8.736-1.668c-.288.468-.6.9-.96 1.296l-.756-.48a7.108 7.108 0 0 0 1.584-2.496l.828.18c-.096.264-.204.504-.3.744h3.216v.756h-2.016c.264.36.492.708.66 1.032l-.792.3c-.216-.456-.48-.9-.78-1.332h-.684zm18.076 5.532h-2.796v-.804h6.408v.804h-2.748v2.628h3.192v.84h-7.332v-.84h3.276v-2.628zm-5.472 3.744H144.9l-.18-.84c.324.024.636.048.936.048.312 0 .468-.156.468-.468v-2.952c-.48.18-.96.348-1.44.504l-.216-.864a18.887 18.887 0 0 0 1.656-.504v-2.688h-1.464v-.828h1.464v-2.292h.888v2.292h.996v.828h-.996v2.328c.36-.168.708-.336 1.044-.516v.876c-.348.168-.696.336-1.044.492v3.54c0 .696-.36 1.044-1.056 1.044zm5.796-11.028c.204.432.408.912.6 1.452h2.82v2.268h-.804v-1.488h-5.04v1.488h-.816v-2.268h2.976a11.13 11.13 0 0 0-.612-1.308l.876-.144zm-1.116 2.976l.756.3c-.552 1.188-1.272 2.1-2.172 2.724l-.624-.54a5.833 5.833 0 0 0 2.04-2.484zm2.316-.024a14.919 14.919 0 0 1 1.98 2.568l-.756.384c-.588-.984-1.236-1.872-1.956-2.64l.732-.312zm9.604 8.148h-1.344l-.192-.852c.432.036.84.06 1.236.06.288 0 .444-.156.444-.444v-2.94c-1.152.072-2.4.144-3.756.204l-.24-.768c.276-.024.528-.084.756-.156.984-.432 2.088-1.104 3.312-2.016a169.05 169.05 0 0 1-3.372.228l-.18-.768c.216-.024.408-.084.588-.156.6-.3 1.308-.888 2.124-1.776-1.02.048-2.1.072-3.252.072l-.252-.756c3.444 0 6.312-.252 8.592-.756l.42.732c-1.248.288-2.712.504-4.416.636-.744.864-1.5 1.536-2.268 2.04.96-.048 1.932-.12 2.916-.204a39.76 39.76 0 0 0 1.668-1.428l.792.396c-2.028 1.788-3.792 3.072-5.304 3.864 1.956-.108 3.636-.24 5.028-.408-.3-.384-.612-.78-.936-1.164l.648-.396c.984 1.152 1.74 2.148 2.268 3l-.696.492a16.06 16.06 0 0 0-.78-1.236c-.828.096-1.752.18-2.784.264v3.216c0 .672-.348 1.02-1.02 1.02zm2.664-3.504c1.212.876 2.22 1.752 3.036 2.64l-.612.612c-.732-.84-1.728-1.74-3-2.7l.576-.552zm-4.572.084l.612.54c-.816.984-1.824 1.836-3.024 2.568l-.54-.696c1.176-.696 2.16-1.5 2.952-2.412zm13.936.72v.828a17.579 17.579 0 0 1-3.744 1.344l-.108-.864c1.464-.324 2.748-.756 3.852-1.308zm-1.92-8.292l.828.336c-.6 1.536-1.212 2.76-1.836 3.672.528-.072 1.056-.168 1.584-.264.216-.408.432-.828.66-1.284l.78.3c-1.056 1.992-1.932 3.42-2.628 4.284.84-.216 1.68-.504 2.532-.876v.804c-1.26.528-2.472.876-3.624 1.068l-.24-.792c.156-.072.288-.168.396-.264.456-.48 1.02-1.284 1.68-2.436-.648.12-1.308.24-1.968.336l-.228-.792c.144-.06.264-.168.384-.336.648-1.092 1.2-2.34 1.68-3.756zm2.328 5.268l-.192-.768c.072-.024.12-.048.168-.06.408-.3.924-1.068 1.572-2.316h-2.052v-.828h3.06a10.898 10.898 0 0 0-.54-1.236l.876-.144c.18.408.36.876.528 1.38h2.7v.828h-3.672c-.528 1.044-.996 1.8-1.404 2.28a44.397 44.397 0 0 0 3.336-.408c-.264-.384-.552-.78-.852-1.164l.66-.408c.816 1.044 1.452 1.956 1.896 2.748l-.672.468a12.499 12.499 0 0 0-.552-.924c-1.488.24-3.108.42-4.86.552zm.972.492h.84c-.06 1.512-.252 2.628-.564 3.336-.348.744-.924 1.38-1.74 1.908l-.552-.684c.708-.456 1.212-.984 1.512-1.596.288-.624.456-1.608.504-2.964zm4.272 5.052h-.84c-.72 0-1.08-.348-1.08-1.044v-4.116h.828v3.972c0 .252.084.384.276.408h.78c.264-.024.42-.168.468-.432.048-.336.084-.852.084-1.56l.744.264c0 1.128-.084 1.836-.24 2.1-.156.24-.492.384-1.02.408z"/>
        <path fill="url(#a)" fill-rule="nonzero" stroke="url(#b)" stroke-width="2" d="M25.372 26.271l-3.5-3.5a6.904 6.904 0 0 1 0-9.764l1.25-1.252 2.442 2.441-1.252 1.252a3.452 3.452 0 0 0 0 4.881l10.985 10.985a3.452 3.452 0 0 0 4.882 0l10.984-10.985a3.452 3.452 0 0 0 0-4.881L40.18 4.463a3.452 3.452 0 0 0-4.882 0l-5.043 5.043 3.5 3.5a6.904 6.904 0 0 1 0 9.764l-1.287 1.289-2.441-2.441 1.288-1.289a3.452 3.452 0 0 0 0-4.881L20.329 4.463a3.452 3.452 0 0 0-4.881 0L4.463 15.448a3.452 3.452 0 0 0 0 4.881l10.985 10.985a3.452 3.452 0 0 0 4.881 0l5.043-5.043zm2.441 2.441l-5.043 5.043a6.904 6.904 0 0 1-9.763 0L2.022 22.77a6.904 6.904 0 0 1 0-9.763L13.007 2.022a6.904 6.904 0 0 1 9.763 0l5.043 5.043 5.043-5.043a6.904 6.904 0 0 1 9.764 0l10.984 10.985a6.904 6.904 0 0 1 0 9.763L42.62 33.755a6.904 6.904 0 0 1-9.764 0l-5.043-5.043z" transform="translate(1 1)"/>
        <path fill="#383838" d="M2.536 63.216h10.416v2.448H9.544v4.392h2.424v1.296c1.488-2.808 2.496-6.168 3.048-10.104l2.472.288a41.572 41.572 0 0 1-.672 3.36h6.936v2.448h-1.536c-.192 3.72-1.056 6.888-2.616 9.528 1.344 1.92 2.928 3.432 4.752 4.512l-1.44 2.136c-1.848-1.128-3.456-2.664-4.8-4.584-1.632 1.896-3.696 3.432-6.216 4.608L10.36 81.48c2.712-1.152 4.848-2.712 6.384-4.704-.888-1.584-1.656-3.36-2.28-5.328-.48.912-.984 1.776-1.512 2.592l-1.248-1.632h-2.16v5.256a129.15 129.15 0 0 0 3.192-1.008v2.304C9.784 80.016 6.376 81 2.512 81.888l-.672-2.304 1.368-.288V68.448h2.328v10.296c.552-.144 1.08-.264 1.584-.408V65.664H2.536v-2.448zm15.6 11.28c1.008-2.112 1.56-4.488 1.656-7.152H16.12c-.12.384-.24.744-.36 1.08.648 2.28 1.44 4.296 2.376 6.072zm25.28 0h4.176v-2.208H43.92l-.48-2.064c.672-1.128 1.32-2.544 1.896-4.272h-2.064v-2.184h2.736c.216-.792.432-1.608.624-2.448l2.208.528c-.168.672-.336 1.296-.504 1.92h4.2v2.184h-4.872c-.528 1.56-1.08 2.952-1.68 4.152h1.608v-2.976h2.304v2.976h2.4v2.184h-2.4v2.208h3.096v2.208h-3.096v3.456h-2.304v-3.456h-4.176v-2.208zm-3.096-12.84c1.008 1.488 1.8 2.76 2.376 3.864l-1.872 1.296c-.576-1.2-1.368-2.544-2.328-4.008l1.824-1.152zm9.072 19.2c1.344 0 2.64-.024 3.84-.072l-.648 2.352H49.2c-.72 0-1.44-.024-2.16-.048-1.056-.024-2.04-.168-2.904-.432a4.878 4.878 0 0 1-2.064-1.368c-.312-.336-.576-.48-.792-.48-.312 0-.936.888-1.896 2.712l-1.44-1.896c.888-1.392 1.656-2.352 2.304-2.832v-7.464h-1.584V69.12h3.864v9.888c.432.552 1.008.984 1.68 1.32.72.24 1.536.408 2.448.48.912.024 1.824.048 2.736.048zM33.168 61.368l2.376.504a78.75 78.75 0 0 1-.432 1.896h3.144v2.376H34.44c-.288.888-.6 1.728-.936 2.496h4.44v2.232h-1.68v2.256h2.352v2.304h-2.352v4.488c.528-.336 1.08-.72 1.608-1.176l.432 2.16c-1.2.84-2.592 1.536-4.176 2.088l-.936-2.064c.432-.192.672-.504.672-.936v-4.56h-2.4v-2.304h2.4v-2.256H33v-1.128l-.336.672-1.968-1.248c1.176-2.448 1.992-5.04 2.472-7.8zm29.312 1.08h17.28v2.424H62.48v-2.424zm-2.328 6.6H81.92v2.496H70.568c-1.992 3.984-3.744 6.864-5.28 8.64 3.792-.264 7.584-.672 11.328-1.2a93.404 93.404 0 0 0-2.4-4.032l2.016-1.248c2.16 3.216 3.84 6.024 5.04 8.4l-2.256 1.584a37.36 37.36 0 0 0-1.176-2.424c-4.776.672-9.984 1.2-15.624 1.608l-.648-2.544c.264-.096.456-.168.6-.264 1.44-1.056 3.312-3.888 5.616-8.52h-7.632v-2.496z"/>
        <path fill="#999" d="M10.708 127.816l.792.384c-.528 1.032-1.14 1.92-1.836 2.664l-.684-.492a10.388 10.388 0 0 0 1.728-2.556zm-3.78.216c.36.624.696 1.332.984 2.124l-.84.204a11.06 11.06 0 0 0-.948-2.064l.804-.264zm-3.276.276c.432.66.816 1.368 1.152 2.136l-.792.348c-.36-.84-.756-1.572-1.188-2.22l.828-.264zm7.572-2.052l.42.732c-2.304.48-5.352.732-9.168.732l-.264-.816c3.624 0 6.624-.216 9.012-.648zM2.2 131.788h4.368v-1.152h.864v1.152h4.38v.84H8.296c.816 1.224 2.196 2.316 4.14 3.276l-.612.768c-2.016-1.2-3.42-2.556-4.236-4.044h-.156v4.512h-.864v-4.512h-.12c-.876 1.668-2.328 3.048-4.368 4.128l-.48-.804c1.896-.864 3.264-1.98 4.116-3.324H2.2v-.84zm14.713-1.404v2.1h3.048v-2.1h-3.048zm-.048 2.892c-.132 1.536-.576 2.808-1.344 3.816l-.66-.588c.768-1.068 1.164-2.424 1.188-4.068v-5.76h8.94v8.988c0 .84-.42 1.26-1.26 1.26h-1.38l-.228-.852c.48.024.924.048 1.332.048.432 0 .66-.252.66-.756v-2.088H20.85v3.516h-.888v-3.516h-3.096zm7.248-.792v-2.1H20.85v2.1h3.264zm0-2.904v-2.064H20.85v2.064h3.264zm-4.152-2.064h-3.048v2.064h3.048v-2.064zm11.701 1.104c1.104.84 2.136 1.68 3.084 2.52.684-.876 1.272-1.884 1.776-3.024l.78.42c-.54 1.224-1.164 2.292-1.884 3.204a42.76 42.76 0 0 1 2.556 2.556l-.672.672a28.403 28.403 0 0 0-2.46-2.556 10.916 10.916 0 0 1-3.648 2.592l-.504-.78a9.842 9.842 0 0 0 3.492-2.424 54.238 54.238 0 0 0-3.144-2.58l.624-.6zm-2.532-1.932h9.528v.828h-8.7v8.352h9.048v.828H29.13v-10.008zm19.31 6.12c-.517 1.992-1.585 3.444-3.193 4.38l-.528-.696c1.56-.84 2.568-2.232 3-4.152h-2.46v-.828h2.604c.072-.516.108-1.044.108-1.596v-1.068h-2.208v-.828h2.208v-1.812h.828v1.812h2.604v3.492h1.044v.828H49.04c.732 1.728 1.908 3.108 3.528 4.14l-.588.696c-1.62-1.164-2.796-2.616-3.54-4.368zm.36-3.96v.864c0 .624-.049 1.224-.12 1.8h1.883v-2.664H48.8zm-7.14.54h1.343v-3.12h.864v3.12h1.368v.84h-1.368v3.996a19.503 19.503 0 0 0 1.632-.684v.864a22.211 22.211 0 0 1-3.804 1.368l-.216-.864c.528-.12 1.032-.252 1.524-.396v-4.284H41.66v-.84zm19.429 3.576h2.244v-1.476h-1.968l-.168-.72c.408-.66.78-1.476 1.116-2.46h-1.2v-.756h1.428c.12-.432.24-.888.36-1.356l.768.18c-.096.408-.204.804-.312 1.176h2.292v.756h-2.532c-.312.912-.648 1.728-1.02 2.424h1.236v-1.62h.804v1.62h1.404v.756h-1.404v1.476h1.74v.768h-1.74v1.992h-.804v-1.992h-2.244v-.768zm-1.68-6.516c.552.72.984 1.356 1.272 1.896l-.648.456c-.312-.6-.732-1.248-1.26-1.956l.636-.396zm4.752 9.756c.624 0 1.224-.012 1.788-.024l-.228.816H64.1c-.36 0-.732-.012-1.092-.024a5.3 5.3 0 0 1-1.464-.216 2.406 2.406 0 0 1-1.056-.732c-.156-.18-.288-.264-.396-.264-.204 0-.576.468-1.104 1.416l-.516-.648c.504-.792.924-1.284 1.26-1.488v-4.044h-.972v-.768h1.764v4.848c.048.048.096.084.132.132.24.312.552.552.924.732.336.132.744.216 1.212.24.456.012.912.024 1.368.024zm-7.968-9.972l.828.168c-.084.408-.18.792-.276 1.176h1.812v.816h-2.064a14.484 14.484 0 0 1-.924 2.256l-.684-.432c.6-1.2 1.044-2.532 1.308-3.984zm-.264 3.732h2.424v.78h-.984v1.5h1.32v.804h-1.32v2.796a5.954 5.954 0 0 0 1.044-.684l.144.744a8.016 8.016 0 0 1-1.968 1.02l-.324-.72c.18-.084.276-.216.276-.384v-2.772h-1.332v-.804h1.332v-1.5h-.612v-.78zm15.42-2.388h-2.063v-.852h7.152v.564a44.311 44.311 0 0 1-.672 2.7h2.424v.504c-.348 1.632-1.104 3.024-2.268 4.152.912.672 1.98 1.284 3.204 1.812l-.564.768c-1.296-.588-2.4-1.248-3.312-1.992-1.056.84-2.364 1.512-3.912 2.04l-.504-.804c1.488-.504 2.724-1.116 3.708-1.848-1.116-1.056-1.944-2.232-2.484-3.552-.396 2.664-1.428 4.704-3.084 6.096l-.66-.588c1.992-1.644 3-4.272 3.036-7.896v-1.104zm3.853 6.492c1.032-.948 1.728-2.052 2.088-3.3h-2.604c.24-.72.516-1.776.804-3.192h-3.252v1.104c0 .192-.012.372-.012.564.432 1.872 1.416 3.48 2.976 4.824zm10.273-7.62l.756.456c-.564.996-1.128 1.812-1.692 2.448-.6.696-1.404 1.38-2.4 2.052l-.468-.756a8.667 8.667 0 0 0 2.22-1.836 12.673 12.673 0 0 0 1.584-2.364zm.396 5.352h-2.424v-.828h7.164c-.036 1.5-.108 2.712-.228 3.636-.12.912-.312 1.56-.588 1.92-.264.348-.696.54-1.296.576h-2.184l-.24-.852a57.58 57.58 0 0 0 1.98.036c.648 0 1.068-.276 1.272-.828.216-.576.348-1.788.408-3.66h-2.988c-.288 1.308-.684 2.352-1.2 3.12-.612.864-1.536 1.632-2.76 2.316l-.552-.72c1.104-.6 1.944-1.26 2.508-1.98.504-.696.876-1.608 1.128-2.736zm2.988-5.508c.696 1.848 1.932 3.312 3.72 4.38l-.576.684c-1.86-1.2-3.156-2.748-3.888-4.644l.744-.42zm11.989 3.06h.828v1.464h3.384v4.032c0 .744-.384 1.128-1.128 1.128h-1.128l-.216-.804 1.068.024c.384 0 .576-.18.576-.528v-3.048h-2.556v5.58h-.828v-5.58H98.28v4.44h-.828v-4.596a18.12 18.12 0 0 1-1.956 1.728l-.552-.72c1.524-1.128 2.724-2.412 3.6-3.876H95.34v-.84H99c.264-.528.48-1.056.66-1.608l.876.108c-.168.528-.36 1.032-.576 1.5h5.82v.84h-6.24a13.408 13.408 0 0 1-1.512 2.22h2.82v-1.464zm7.79-1.008h5.867a40.577 40.577 0 0 1-.048-2.124h.888c0 .744.012 1.452.048 2.124h3.708v.84h-3.66c.144 2.016.456 3.684.924 5.028.504 1.32.96 1.992 1.356 1.992.24-.036.492-.72.744-2.064l.78.408c-.36 1.728-.852 2.604-1.464 2.616-1.068-.048-1.956-1.392-2.676-4.008-.276-1.14-.456-2.46-.552-3.972h-5.916v-.84zm.18 2.832h5.087v.816h-2.112v3.12c.888-.168 1.74-.372 2.58-.588v.84c-1.728.42-3.6.768-5.592 1.056l-.204-.816a69.299 69.299 0 0 0 2.352-.336v-3.276h-2.112v-.816zm8.34-4.896c.395.48.767 1.008 1.127 1.584l-.72.36c-.348-.6-.72-1.128-1.128-1.596l.72-.348zm4.98 1.14h3.264c.156-.42.3-.84.42-1.272l.876.108c-.12.396-.24.78-.372 1.164h6.144v.84h-6.468a13.846 13.846 0 0 1-1.644 2.844v6.108h-.84v-5.076c-.408.444-.828.864-1.284 1.272l-.54-.684c1.464-1.284 2.58-2.772 3.36-4.464h-2.916v-.84zm3.156 5.58h3.48v-1.116a12.407 12.407 0 0 0 1.956-1.356h-4.512v-.804h5.616v.804c-.648.6-1.38 1.176-2.196 1.716V133h3v.828h-3v2.268c0 .708-.36 1.068-1.068 1.068h-1.5l-.228-.816c.432.012.888.024 1.38.024.36 0 .552-.192.552-.552v-1.992h-3.48V133zm10.885-2.484c-.276.456-.576.9-.9 1.332l-.288-.924c.948-1.38 1.632-2.952 2.052-4.728l.78.36a17.13 17.13 0 0 1-.804 2.328v8.328h-.84v-6.696zm2.46-3.84c.696.6 1.284 1.188 1.764 1.788l-.636.636c-.42-.576-.996-1.2-1.716-1.848l.588-.576zm-1.14 3.252h2.172v5.088c.312-.336.636-.708.984-1.116l.204.852a16.32 16.32 0 0 1-1.92 2.028l-.348-.792c.168-.144.252-.3.252-.468v-4.788H137.5v-.804zm3.516-2.328h1.44v-1.38h.78v1.38h1.356v.708c.24-.48.468-.972.684-1.476l.72.372a15.02 15.02 0 0 1-1.416 2.7h1.38v.792h-1.968c-.336.408-.696.792-1.068 1.128h2.448v5.352h-.816v-.504h-2.244v.504h-.804v-4.296c-.288.168-.576.312-.864.456l-.432-.684a8.696 8.696 0 0 0 2.724-1.956h-2.184v-.792h1.704v-1.548h-1.44v-.756zm2.58 2.304c.348-.48.672-.996.972-1.548h-1.332v1.548h.36zm-1.284 4.692v1.32h2.244v-1.32h-2.244zm2.244-.72v-1.296h-2.244v1.296h2.244zm5.27 3.192h-1.008l-.18-.816c.312.036.612.06.9.06.324 0 .492-.18.492-.54v-2.868c-.48.192-.96.372-1.464.54l-.216-.852a16.055 16.055 0 0 0 1.68-.528v-2.832h-1.452v-.828h1.452v-2.196h.84v2.196h1.272v.828h-1.272v2.484c.444-.216.876-.432 1.296-.672v.84c-.432.24-.864.456-1.296.66v3.444c0 .72-.348 1.08-1.044 1.08zm2.748-9.132h2.88v-1.704h.84v1.704h2.892v.828h-2.892v1.956h2.424v.768a7.975 7.975 0 0 1-2.088 3.384c.792.612 1.764 1.152 2.904 1.62l-.456.72c-1.2-.528-2.22-1.14-3.036-1.812-.936.744-2.076 1.356-3.42 1.836l-.408-.72c1.272-.42 2.352-.972 3.228-1.656-1.008-.984-1.668-2.088-2.004-3.324h-.636v-.816h2.652v-1.956h-2.88v-.828zm1.668 3.6c.312 1.056.912 1.992 1.776 2.82a7.46 7.46 0 0 0 1.836-2.82h-3.612zm7.957-2.496h4.656v-2.868h.864v2.868h4.668v.828h-3.804c.792 1.992 2.172 3.768 4.152 5.328l-.576.732c-2.112-1.8-3.576-3.828-4.392-6.06h-.048v7.308h-.864v-7.308h-.048c-.888 2.496-2.412 4.548-4.548 6.132l-.468-.768c1.944-1.392 3.348-3.18 4.2-5.364h-3.792v-.828zm7.452-2.844c.72.744 1.272 1.392 1.656 1.944l-.684.492c-.408-.612-.948-1.284-1.644-2.016l.672-.42zm7.225 8.376c.264 0 .492.108.66.336.156.216.24.492.24.84 0 .528-.156.996-.468 1.404a2.315 2.315 0 0 1-1.236.78v-.588c.312-.108.564-.288.756-.528.18-.252.264-.516.264-.804a.642.642 0 0 1-.264.048.698.698 0 0 1-.516-.216.725.725 0 0 1-.216-.528c0-.228.072-.408.216-.54.144-.144.324-.204.564-.204zm14.221-8.448l.816.372a15.6 15.6 0 0 1-1.068 2.508v8.22h-.876v-6.804c-.408.564-.84 1.104-1.308 1.608l-.288-.924a13.453 13.453 0 0 0 2.724-4.98zm1.524.612h5.664v3.78h-2.412v1.308h3.456v.84h-2.604c.684 1.2 1.62 2.244 2.808 3.132l-.552.756c-1.2-1.044-2.184-2.34-2.964-3.888h-.144v4.536h-.864v-4.536h-.144c-.804 1.668-1.812 2.964-3.024 3.9l-.492-.78c1.152-.792 2.088-1.824 2.808-3.12h-2.484v-.84h3.336v-1.308h-2.388v-3.78zm4.812 2.952v-2.124h-3.96v2.124h3.96zM3.004 161.092h-1.2l-.18-.84c.372.024.732.048 1.08.048.312 0 .468-.168.468-.492v-2.88c-.492.168-.984.336-1.488.48l-.216-.864a18.656 18.656 0 0 0 1.704-.468v-2.748H1.66v-.828h1.512v-2.268h.876v2.268h1.308v.828H4.048v2.436c.468-.192.924-.396 1.38-.612v.852c-.456.216-.924.408-1.38.6v3.42c0 .708-.348 1.068-1.044 1.068zm8.304-8.604h-4.38v2.28h4.38v-2.28zm-4.38 3.108c-.024 2.184-.54 4.044-1.536 5.604l-.648-.576c.864-1.32 1.308-3.036 1.32-5.136v-3.828h2.652c-.168-.504-.36-.96-.552-1.368l.912-.144c.168.444.336.948.504 1.512h2.568v3.936h-5.22zm8.125-3.048h1.788v-2.34h.864v2.34h1.488v.828h-1.488v.612a31.494 31.494 0 0 1 1.692 1.92l-.504.744a28.308 28.308 0 0 0-1.188-1.836v6.324h-.864v-6.096c-.42 1.2-.972 2.28-1.644 3.264l-.372-.936a10.769 10.769 0 0 0 1.98-3.996h-1.752v-.828zm3.576 8.064a7.245 7.245 0 0 0 1.08-2.412c.156-.732.24-1.716.24-2.952V150.7h3.876v9.084c0 .204.084.312.276.312h.408a.665.665 0 0 0 .336-.072c.096-.072.156-.18.18-.348.048-.24.084-.924.084-2.076l.792.252c0 .864-.036 1.512-.084 1.968-.048.432-.168.72-.36.888-.192.132-.48.204-.864.204h-.492c-.768 0-1.152-.348-1.152-1.044v-8.352h-2.136v3.732c0 1.32-.108 2.424-.324 3.312-.204.936-.588 1.824-1.152 2.688l-.708-.636zm15.385-10.428l.852.108a16.772 16.772 0 0 1-.36 1.656h4.212c0 4.152-.072 6.72-.192 7.68-.144.972-.708 1.464-1.704 1.464-.252 0-.684-.012-1.296-.036l-.192-.78c.528.024.972.048 1.356.048.576 0 .924-.324 1.032-.948.108-.696.168-2.904.18-6.624h-3.648a11.58 11.58 0 0 1-1.224 2.472l-.552-.72c.744-1.176 1.26-2.616 1.536-4.32zm-.984 8.424l-.156-.708c.336-.18.924-1.464 1.776-3.864l.756.276c-.588 1.596-1.056 2.712-1.404 3.348.72-.144 1.38-.288 1.956-.432-.168-.504-.348-.96-.516-1.368l.72-.252c.408.936.768 1.944 1.08 3.012l-.756.336c-.108-.384-.216-.744-.312-1.08a48.39 48.39 0 0 1-3.144.732zm-2.04-3.528v6.072h-.852v-6.108c-.408 1.224-.936 2.328-1.608 3.324l-.372-.936c.9-1.188 1.536-2.544 1.92-4.056h-1.68v-.828h1.74v-2.34h.852v2.34h1.476v.828H30.99v.756a31.494 31.494 0 0 1 1.692 1.92l-.48.732a31.726 31.726 0 0 0-1.212-1.704zm16.045.036c-.492 1.368-1.428 2.496-2.82 3.408l-.576-.708c1.344-.888 2.232-1.992 2.664-3.324.132-.468.24-.972.324-1.524h-3.42v8.22h-.876v-9.06h4.392c.06-.612.096-1.272.096-1.968h.876c0 .708-.036 1.368-.084 1.968h4.212v7.728c0 .804-.396 1.212-1.164 1.212h-1.884l-.24-.864 1.836.048c.384 0 .576-.204.576-.588v-6.696h-3.432c-.06.456-.132.888-.228 1.284 1.248 1.176 2.292 2.34 3.144 3.48l-.648.66c-.696-1.032-1.62-2.124-2.748-3.276zm9.65-2.472c.288.552.564 1.224.804 2.016h1.26c.348-.66.648-1.368.888-2.112l.804.276a11.874 11.874 0 0 1-.84 1.836h1.452v.84H55.04v-.84h1.62c-.216-.624-.468-1.2-.768-1.728l.792-.288zm4.92-1.944h3.936v.648a40.017 40.017 0 0 1-1.2 3.516c.9 1.128 1.356 2.064 1.368 2.784 0 .744-.156 1.26-.468 1.548-.336.288-.996.444-1.98.444l-.276-.912c.336.024.612.048.84.048.432-.024.708-.108.828-.252.12-.156.18-.444.192-.876-.012-.708-.492-1.632-1.428-2.784.396-.948.792-2.076 1.176-3.372h-2.148v9.684h-.84V150.7zm-6.336.66h2.412a11.802 11.802 0 0 0-.444-1.08l.888-.156c.132.36.264.78.396 1.236h2.448v.84h-5.7v-.84zm5.232 5.232v4.524h-.852v-.672h-3.072v.672h-.852v-4.524H60.5zm-3.924 3.036h3.072v-2.22h-3.072v2.22zm19.105-6.768l-.156.624c.3 1.404.684 2.616 1.164 3.624.468-1.212.72-2.628.768-4.248h-1.776zm.612 5.112c-.468-.924-.864-1.98-1.188-3.18a10.586 10.586 0 0 1-.708 1.476l-.54-.66c.708-1.344 1.188-3.156 1.428-5.436l.84.144a27.508 27.508 0 0 1-.264 1.716h3.168v.828h-.78c-.06 2.004-.432 3.72-1.104 5.136.624 1.08 1.356 1.908 2.22 2.496l-.468.708c-.84-.6-1.56-1.416-2.16-2.424a8.05 8.05 0 0 1-2.22 2.412l-.444-.72a7.063 7.063 0 0 0 2.22-2.496zm-5.688-2.196l.804.096c-.084.228-.168.444-.24.66h2.508v.708a4.833 4.833 0 0 1-1.332 2.052c.576.264 1.128.528 1.656.816l-.468.672a17.459 17.459 0 0 0-1.848-.948c-.792.552-1.788.996-2.988 1.332l-.408-.72c.984-.264 1.836-.588 2.532-.984a32.119 32.119 0 0 0-1.668-.672c.312-.528.588-1.02.828-1.5h-1.416v-.756h1.752c.108-.264.204-.516.288-.756zm.948 3.18c.6-.48 1.056-1.044 1.344-1.668h-2.064a8.92 8.92 0 0 1-.648 1.152c.48.168.936.336 1.368.516zm-2.04-8.532c.288.468.528.972.744 1.5l-.624.288a11.1 11.1 0 0 0-.804-1.56l.684-.228zm3.648-.036l.624.288a7.99 7.99 0 0 1-.924 1.548l-.612-.312c.384-.516.696-1.02.912-1.524zM68.59 152.5h2.34v-2.292h.804v2.292h2.184v.756h-2.184v.132c.648.324 1.32.696 1.992 1.104l-.444.672c-.6-.48-1.116-.864-1.548-1.152v1.56h-.804v-2.28c-.396.948-1.116 1.764-2.148 2.46l-.42-.696c.924-.54 1.572-1.14 1.932-1.8H68.59v-.756zm14.52 8.592h-1.02l-.18-.816c.313.036.625.06.913.06.3 0 .456-.18.456-.516v-2.94c-.48.18-.948.348-1.416.492l-.216-.84c.552-.132 1.104-.3 1.632-.492v-2.712h-1.44v-.828h1.44v-2.268h.84v2.268h1.152v.828h-1.152v2.364c.384-.168.756-.348 1.116-.54v.852c-.372.192-.744.36-1.116.528v3.504c0 .696-.336 1.056-1.008 1.056zm3.589-5.304c-.144 2.052-.612 3.852-1.404 5.412l-.672-.6c.852-1.584 1.284-3.648 1.296-6.168v-3.756h6.324v2.916h-2.256v1.416h2.568v.78h-2.568v1.476h2.016v3.936h-.804v-.588h-3.252v.588h-.804v-3.936h2.004v-1.476h-2.448zm2.448-2.196h-2.388v.84c0 .192-.012.384-.012.576h2.4v-1.416zm-1.2 6.252h3.252v-1.812h-3.252v1.812zm3.456-8.364h-4.644v1.332h4.644v-1.332zm4.021-.06h3.264c.156-.42.3-.84.42-1.272l.876.108c-.12.396-.24.78-.372 1.164h6.144v.84h-6.468a13.846 13.846 0 0 1-1.644 2.844v6.108h-.84v-5.076c-.408.444-.828.864-1.284 1.272l-.54-.684c1.464-1.284 2.58-2.772 3.36-4.464h-2.916v-.84zM98.58 157h3.48v-1.116a12.407 12.407 0 0 0 1.956-1.356h-4.512v-.804h5.616v.804c-.648.6-1.38 1.176-2.196 1.716V157h3v.828h-3v2.268c0 .708-.36 1.068-1.068 1.068h-1.5l-.228-.816c.432.012.888.024 1.38.024.36 0 .552-.192.552-.552v-1.992h-3.48V157zm10.885-2.484c-.276.456-.576.9-.9 1.332l-.288-.924c.948-1.38 1.632-2.952 2.052-4.728l.78.36a17.13 17.13 0 0 1-.804 2.328v8.328h-.84v-6.696zm2.46-3.84c.696.6 1.284 1.188 1.764 1.788l-.636.636c-.42-.576-.996-1.2-1.716-1.848l.588-.576zm-1.14 3.252h2.172v5.088c.312-.336.636-.708.984-1.116l.204.852a16.32 16.32 0 0 1-1.92 2.028l-.348-.792c.168-.144.252-.3.252-.468v-4.788h-1.344v-.804zm3.516-2.328h1.44v-1.38h.78v1.38h1.356v.708c.24-.48.468-.972.684-1.476l.72.372a15.02 15.02 0 0 1-1.416 2.7h1.38v.792h-1.968c-.336.408-.696.792-1.068 1.128h2.448v5.352h-.816v-.504h-2.244v.504h-.804v-4.296c-.288.168-.576.312-.864.456l-.432-.684a8.696 8.696 0 0 0 2.724-1.956h-2.184v-.792h1.704v-1.548h-1.44v-.756zm2.58 2.304c.348-.48.672-.996.972-1.548h-1.332v1.548h.36zm-1.284 4.692v1.32h2.244v-1.32h-2.244zm2.244-.72v-1.296h-2.244v1.296h2.244zm14.353-6.504v2.58h-.888v-1.74h-8.196v1.728h-.888v-2.568h4.56a7.891 7.891 0 0 0-.552-1.104l.96-.168c.192.384.372.804.54 1.272h4.464zm-10.26 3.336h3.36c.36-.66.708-1.308 1.032-1.956l.888.264c-.312.6-.612 1.164-.9 1.692h6.204v.84h-2.364c-.492 1.272-1.056 2.268-1.692 3.012a37.855 37.855 0 0 1 3.768 1.872l-.576.756a41.494 41.494 0 0 0-3.816-1.992c-1.344 1.2-3.12 1.824-5.352 1.896l-.504-.804c2.04-.012 3.708-.504 4.98-1.476-1.128-.48-2.244-.9-3.36-1.26.432-.672.84-1.344 1.224-2.004h-2.892v-.84zm3.912.84c-.36.624-.696 1.176-1.008 1.656.912.264 1.836.6 2.784.996.648-.708 1.176-1.596 1.584-2.652h-3.36zm14.413-5.316h.624a17.058 17.058 0 0 0 5.22 3.732l-.432.768c-1.992-.96-3.684-2.196-5.1-3.72-1.308 1.452-3.024 2.712-5.148 3.78l-.42-.756c2.112-1.02 3.864-2.292 5.256-3.804zm-3.036 3.792h6.696v.828h-2.904v2.088h3.468v.828h-3.468v2.22h4.56v.852h-9.996v-.852h4.548v-2.22h-3.48v-.828h3.48v-2.088h-2.904v-.828zm12.782 4.296c.456.324.924.72 1.38 1.2.396.408.744.828 1.032 1.236l-.6.504a11.478 11.478 0 0 0-1.02-1.224c-.444-.48-.888-.876-1.332-1.212l.54-.504zm13.26 2.772h-1.08l-.18-.84c.337.024.649.048.96.048.289 0 .445-.156.445-.456v-2.928c-.456.18-.924.348-1.392.492l-.204-.864c.54-.132 1.068-.3 1.596-.504v-2.712h-1.452v-.828h1.452v-2.268h.888v2.268h1.212v.828h-1.212v2.34c.348-.168.696-.336 1.032-.528v.876c-.336.18-.684.348-1.032.516v3.54c0 .672-.348 1.02-1.032 1.02zm3.18-10.476h5.233v4.164h-5.232v-4.164zm4.393 3.456v-1.032h-3.552v1.032h3.552zm-3.552-1.704h3.552v-1.044h-3.552v1.044zm-1.68 3.252h6.864v.768h-3v1.356h2.508v.78h-2.508v1.548c.48.072 1.044.108 1.704.108.624 0 1.164-.024 1.608-.06l-.24.84c-.48 0-.924-.012-1.308-.012-1.584-.012-2.664-.168-3.24-.456-.456-.24-.876-.696-1.236-1.368a7.366 7.366 0 0 1-1.2 2.052l-.636-.552c.912-1.104 1.416-2.352 1.512-3.72l.768.084a7.11 7.11 0 0 1-.18 1.248c.384.804.828 1.32 1.332 1.548.084.036.18.072.288.108v-3.504h-3.036v-.768zm13.14-2.868h1.549v-2.508h.888v2.508h2.148v-2.508h.876v2.508h1.596v.84h-1.596v2.808h1.932v.828h-7.728v-.828h1.884v-2.808h-1.548v-.84zm2.437 3.648h2.148v-2.808h-2.148v2.808zm2.508 1.272c1.008 1.128 1.776 2.124 2.316 2.964l-.768.528c-.552-.912-1.308-1.932-2.256-3.06l.708-.432zm-3.036.084l.792.372a13.016 13.016 0 0 1-2.22 3.06l-.744-.54a11.349 11.349 0 0 0 2.172-2.892zm-4.044-3.276a15.557 15.557 0 0 1-1.308 1.536l-.288-.912a13.695 13.695 0 0 0 2.856-5.004l.816.372a14.29 14.29 0 0 1-1.188 2.652v8.076h-.888v-6.72zm18.637-2.016c-.384.96-.864 1.776-1.452 2.424l-.552-.672c.852-1.02 1.428-2.388 1.728-4.116l.888.168c-.096.48-.204.924-.324 1.356h3.576v.84h-3.864zm1.26.816c.648.816 1.14 1.524 1.476 2.136l-.72.492c-.36-.66-.84-1.392-1.452-2.196l.696-.432zm-4.644-3.12h.876v5.928h-.876v-5.928zm-2.484.588h.852v4.896h-.852v-4.896zm8.748 5.94v3.336h1.284v.78h-10.86v-.78h1.344v-3.336h8.232zm-7.404 3.336h1.596v-2.544h-1.596v2.544zm2.424 0h1.68v-2.544h-1.68v2.544zm2.508 0h1.644v-2.544h-1.644v2.544zM10.432 178.936v2.352H4.444v.828h6.54v3.084h-.852v-.504H4.444v.492H3.58v-6.252h6.852zm-5.988 4.992h5.688v-1.116H4.444v1.116zm0-3.336h5.148v-.96H4.444v.96zm7.644-3.108v2.172h-.84v-1.428H2.752v1.428h-.84v-2.172h4.752c-.12-.288-.24-.54-.372-.78l.84-.144-.072-.048c.576-.72.984-1.5 1.248-2.364l.828.18c-.084.252-.168.492-.264.732h3.468v.756h-2.136c.252.336.456.648.6.936l-.768.288a7.994 7.994 0 0 0-.756-1.224h-.756a9.384 9.384 0 0 1-.732 1.152l-.648-.396c.132.276.264.576.384.912h4.56zm-8.736-1.668c-.288.468-.6.9-.96 1.296l-.756-.48a7.108 7.108 0 0 0 1.584-2.496l.828.18c-.096.264-.204.504-.3.744h3.216v.756H4.948c.264.36.492.708.66 1.032l-.792.3c-.216-.456-.48-.9-.78-1.332h-.684zm13.945 4.812v1.38h2.664v-1.38h-2.664zm2.664 2.172h-2.664v.708h-.84v-5.82h3.504v-1.2h.864v1.2h3.54v5.784h-.84v-.672h-2.7v2.436h-.864V182.8zm.864-.792h2.7v-1.38h-2.7v1.38zm2.7-2.148v-1.38h-2.7v1.38h2.7zm-3.564-1.38h-2.664v1.38h2.664v-1.38zm5.376-3.372v2.1h-.84v-1.32H16.17v1.38h-.84v-2.16h4.572c-.12-.312-.24-.6-.372-.864l.912-.156c.12.3.228.636.348 1.02h4.548zm6.673 2.688h3.252v-3.612h.888v3.612h3.084v.864H36.15v6.564h-.888v-6.564H32.01v-.864zm-2.352-3.48c.816.612 1.5 1.224 2.052 1.848l-.588.6c-.504-.588-1.2-1.212-2.064-1.86l.6-.588zm-1.404 3.552h2.592v5.34c.432-.36.912-.768 1.416-1.248l.216.888a16.67 16.67 0 0 1-2.4 1.92l-.336-.78c.18-.144.276-.312.276-.504v-4.788h-1.764v-.828zm14.893 4.452c.456.324.924.72 1.38 1.2.396.408.744.828 1.032 1.236l-.6.504a11.478 11.478 0 0 0-1.02-1.224c-.444-.48-.888-.876-1.332-1.212l.54-.504zm13.13-3.84a14.44 14.44 0 0 1-1.188 1.524l-.276-.924c1.176-1.452 2.028-3.12 2.568-4.992l.804.372a16.184 16.184 0 0 1-1.056 2.604v8.16h-.852v-6.744zm1.86-2.7h3.696c-.18-.48-.384-.936-.624-1.392l.828-.228c.252.528.444 1.008.588 1.452l-.456.168h3.78v.816h-7.812v-.816zm1.104 1.788h5.676v.78H59.24v-.78zm0 1.692h5.676v.792H59.24v-.792zm5.892 1.776v4.164h-.84v-.648h-4.44v.648h-.84v-4.164h6.12zm-5.28 2.7h4.44v-1.896h-4.44v1.896zm10.225-8.652h2.64c.168-.312.288-.624.372-.96l.9.12c-.096.3-.216.576-.36.84h3.96v5.868h-7.512v-5.868zm6.672 5.124V179.2h-5.832v1.008h5.832zm-5.832-1.704h5.832v-.984h-5.832v.984zm0-1.68h5.832v-.984h-5.832v.984zm-1.44 4.944l.816.168c-.288 1.104-.684 2.052-1.2 2.868l-.732-.468a7.954 7.954 0 0 0 1.116-2.568zm5.784 3.252h-3.084c-.696 0-1.032-.348-1.032-1.02v-2.292h.876v2.112c0 .276.132.42.408.42h2.664c.276 0 .468-.072.564-.192.144-.168.252-.636.3-1.416l.828.264c-.096 1.008-.264 1.62-.504 1.848-.216.18-.564.276-1.02.276zm-1.608-3.744c.648.624 1.14 1.176 1.488 1.644l-.66.456c-.36-.516-.84-1.08-1.464-1.704l.636-.396zm3.876.276c.768.96 1.356 1.812 1.764 2.532l-.684.48c-.432-.78-1.02-1.644-1.752-2.592l.672-.42zm5.617-3.048a15.538 15.538 0 0 1-1.296 1.524l-.276-.924a13.457 13.457 0 0 0 2.796-4.92l.816.384c-.312.924-.696 1.8-1.176 2.628v8.028h-.864v-6.72zm2.196-2.772h2.34l.36-1.548.84.084c-.12.504-.228.996-.336 1.464h3.624v.84h-3.84c-.132.48-.264.948-.408 1.392h4.74v.828h-5.016a29.383 29.383 0 0 1-.588 1.524h4.932v.744c-.504.84-1.308 1.68-2.412 2.52.564.3 1.104.624 1.632.972l-.492.744a20.916 20.916 0 0 0-4.512-2.376l.456-.672c.744.288 1.464.6 2.16.936.948-.66 1.692-1.344 2.244-2.064H85.93c.312-.744.612-1.524.888-2.328h-2.004v-.828h2.268c.144-.468.276-.936.396-1.392h-2.136v-.84zm16.501 5.124h-1.8v1.2h1.8v-1.2zm0 1.884h-1.8v1.152h1.8v-1.152zm.744 1.152h1.776v-1.152h-1.776v1.152zm1.776.732h-4.32v.588h-.792v-4.932c-.156.084-.312.168-.456.24l-.408-.66v.156c-.324.18-.648.348-.984.516v3.564c0 .66-.348.996-1.02.996h-1.02l-.18-.828c.312.036.612.06.9.06.3 0 .456-.156.456-.456v-2.94c-.456.192-.924.36-1.38.528l-.216-.852a13.81 13.81 0 0 0 1.596-.528v-2.76h-1.392v-.816h1.392v-2.268h.864v2.268h1.044v.816h-1.044v2.376c.336-.168.66-.348.984-.528v.648c1.2-.468 2.088-1.056 2.664-1.764H98.76v-.768h1.368a7.611 7.611 0 0 0-.552-1.032l.72-.276c.204.36.396.804.564 1.308h.96v-1.74c-.864.048-1.8.084-2.784.084l-.252-.72c2.568-.012 4.704-.228 6.408-.636l.396.696c-.864.228-1.86.396-2.988.504v1.812h.912a12.5 12.5 0 0 0 .708-1.572l.744.264c-.204.48-.432.924-.684 1.308h1.476v.768h-2.364c.636.648 1.548 1.2 2.736 1.68l-.384.72c-1.248-.6-2.244-1.392-3-2.4h-.144v1.716h-.78v-1.716h-.132c-.504.816-1.236 1.524-2.208 2.1h5.676v5.064h-.792v-.588zm-1.776-2.568h1.776v-1.2h-1.776v1.2zm8.317-5.628h2.436c.336-.708.636-1.464.888-2.256l.78.264a14.782 14.782 0 0 1-.876 1.992h1.248v.792h-1.8v2.676c-.012.336-.024.648-.048.948h.912v-2.88h.696v3.648h-1.716c-.288 1.572-.948 2.772-1.98 3.612l-.624-.552c.936-.72 1.548-1.74 1.824-3.06h-1.404V178h.708v2.844h.816c.024-.312.048-.624.048-.948v-2.676h-1.908v-.792zm-1.884-2.016c.684.552 1.26 1.092 1.728 1.644l-.588.588c-.42-.528-.996-1.08-1.728-1.668l.588-.564zm-.156 2.808c.66.564 1.212 1.128 1.668 1.692l-.6.6c-.408-.54-.948-1.116-1.644-1.728l.576-.564zm.996 3.396l.756.3a45.852 45.852 0 0 1-1.392 4.116l-.78-.324c.552-1.332 1.02-2.7 1.416-4.092zm6.816-2.232v1.896c0 .096-.012.18-.012.264h1.476v-2.16h-1.464zm1.464-.756v-2.184h-1.464v2.184h1.464zm-1.524 3.672c-.168 1.584-.672 2.892-1.524 3.936l-.612-.552c.912-1.14 1.38-2.592 1.404-4.356v-5.64h3.06v9.456c0 .636-.288.96-.864.96h-.9l-.204-.792c.3.024.576.036.84.036.216 0 .324-.168.324-.492V181.3h-1.524zm-4.656-7.068c.336.552.66 1.152.972 1.812l-.672.348a16.227 16.227 0 0 0-.972-1.836l.672-.324zm10.633.204c.852.624 1.572 1.236 2.16 1.836l-.588.588c-.528-.576-1.248-1.2-2.16-1.86l.588-.564zm-.216 2.94c.792.6 1.464 1.188 2.004 1.776l-.588.588c-.48-.564-1.14-1.164-2.004-1.8l.588-.564zm1.392 3.24l.744.288a37.2 37.2 0 0 1-1.788 4.26l-.804-.36a33.164 33.164 0 0 0 1.848-4.188zm3.216-4.032h1.704a7.59 7.59 0 0 0 .336-1.128h-2.892v3.492c-.048 2.592-.504 4.68-1.368 6.24l-.648-.576c.744-1.356 1.14-3.24 1.176-5.664v-4.272h7.2v.78h-2.652a8.197 8.197 0 0 1-.324 1.128h2.34v4.212h-1.992v3.396c0 .648-.324.972-.948.972h-1.008l-.18-.78c.312.036.612.06.9.06.264 0 .408-.156.408-.456v-3.192h-2.052v-4.212zm4.104 3.516v-1.08h-3.336v1.08h3.336zm-3.336-1.728h3.336v-1.104h-3.336v1.104zm-.468 3.276l.768.168c-.312 1.056-.744 1.98-1.296 2.76l-.696-.432a7.45 7.45 0 0 0 1.224-2.496zm4.08-.06c.492.828.924 1.716 1.284 2.652l-.732.324a18.056 18.056 0 0 0-1.272-2.724l.72-.252zm5.197-3.852h3.576v-.756h.864v.756h3.528v.756h-3.528v1.164h4.896v.756h-2.316v1.152h1.8v.756h-1.8v1.884c0 .66-.36.996-1.068.996h-1.74l-.18-.816c.576.036 1.116.06 1.62.06.336 0 .504-.156.504-.444v-1.68h-6.78v-.756h6.78v-1.152h-7.488v-.756h4.908v-1.164h-3.576v-.756zm1.404 4.92c.648.624 1.14 1.188 1.476 1.668l-.672.468c-.372-.516-.876-1.08-1.5-1.704l.696-.432zm-.972-6.852a9.016 9.016 0 0 1-.996 1.524l-.744-.468a8.21 8.21 0 0 0 1.536-2.724l.816.18c-.096.264-.18.516-.276.756h3.072v.732h-2.028c.312.42.564.804.756 1.164l-.78.288a9.528 9.528 0 0 0-.876-1.452h-.48zm4.872-.036a8.174 8.174 0 0 1-.672 1.104l-.72-.456c.528-.696.9-1.452 1.14-2.292l.816.168c-.072.252-.156.504-.24.744h3.456v.732h-2.172c.324.42.576.816.756 1.176l-.744.276a8.88 8.88 0 0 0-.912-1.452h-.708zm8.294 6.804c.264 0 .492.108.66.336.156.216.24.492.24.84 0 .528-.156.996-.468 1.404a2.315 2.315 0 0 1-1.236.78v-.588c.312-.108.564-.288.756-.528.18-.252.264-.516.264-.804a.642.642 0 0 1-.264.048.698.698 0 0 1-.516-.216.725.725 0 0 1-.216-.528c0-.228.072-.408.216-.54.144-.144.324-.204.564-.204zm13.105 2.52h-1.08l-.18-.84c.336.024.648.048.96.048.288 0 .444-.156.444-.456v-2.928c-.456.18-.924.348-1.392.492l-.204-.864c.54-.132 1.068-.3 1.596-.504v-2.712h-1.452v-.828h1.452v-2.268h.888v2.268h1.212v.828h-1.212v2.34c.348-.168.696-.336 1.032-.528v.876c-.336.18-.684.348-1.032.516v3.54c0 .672-.348 1.02-1.032 1.02zm3.18-10.476h5.232v4.164h-5.232v-4.164zm4.392 3.456v-1.032h-3.552v1.032h3.552zm-3.552-1.704h3.552v-1.044h-3.552v1.044zm-1.68 3.252h6.864v.768h-3v1.356h2.508v.78h-2.508v1.548c.48.072 1.044.108 1.704.108.624 0 1.164-.024 1.608-.06l-.24.84c-.48 0-.924-.012-1.308-.012-1.584-.012-2.664-.168-3.24-.456-.456-.24-.876-.696-1.236-1.368a7.366 7.366 0 0 1-1.2 2.052l-.636-.552c.912-1.104 1.416-2.352 1.512-3.72l.768.084a7.11 7.11 0 0 1-.18 1.248c.384.804.828 1.32 1.332 1.548.084.036.18.072.288.108v-3.504h-3.036v-.768zm15.193-5.496c.132.324.264.684.384 1.08h4.752v.792h-10.596v-.792h4.92a7.17 7.17 0 0 0-.408-.912l.948-.168zm3.216 11.04h-1.008l-.204-.78.96.036c.492 0 .744-.192.744-.576v-3.264h-7.728v4.62h-.828v-5.376h9.384v4.2c0 .756-.444 1.14-1.32 1.14zm-6.72-8.388h6.708v2.328h-6.708v-2.328zm5.868 1.656v-.984h-5.028v.984h5.028zm-4.872 2.916h4.716v2.4h-4.716v-2.4zm3.948 1.752v-1.104h-3.168v1.104h3.168zm11.725-3.984c-.492 1.368-1.428 2.496-2.82 3.408l-.576-.708c1.344-.888 2.232-1.992 2.664-3.324.132-.468.24-.972.324-1.524h-3.42v8.22h-.876v-9.06h4.392c.06-.612.096-1.272.096-1.968h.876c0 .708-.036 1.368-.084 1.968h4.212v7.728c0 .804-.396 1.212-1.164 1.212h-1.884l-.24-.864 1.836.048c.384 0 .576-.204.576-.588v-6.696h-3.432c-.06.456-.132.888-.228 1.284 1.248 1.176 2.292 2.34 3.144 3.48l-.648.66c-.696-1.032-1.62-2.124-2.748-3.276zM3.256 200.644c.288.552.564 1.224.804 2.016h1.26c.348-.66.648-1.368.888-2.112l.804.276a11.874 11.874 0 0 1-.84 1.836h1.452v.84H1.612v-.84h1.62c-.216-.624-.468-1.2-.768-1.728l.792-.288zm4.92-1.944h3.936v.648a40.017 40.017 0 0 1-1.2 3.516c.9 1.128 1.356 2.064 1.368 2.784 0 .744-.156 1.26-.468 1.548-.336.288-.996.444-1.98.444l-.276-.912c.336.024.612.048.84.048.432-.024.708-.108.828-.252.12-.156.18-.444.192-.876-.012-.708-.492-1.632-1.428-2.784.396-.948.792-2.076 1.176-3.372H9.016v9.684h-.84V198.7zm-6.336.66h2.412a11.802 11.802 0 0 0-.444-1.08l.888-.156c.132.36.264.78.396 1.236H7.54v.84h-5.7v-.84zm5.232 5.232v4.524H6.22v-.672H3.148v.672h-.852v-4.524h4.776zm-3.924 3.036H6.22v-2.22H3.148v2.22zm22.19-8.256v2.58h-.889v-1.74h-8.196v1.728h-.888v-2.568h4.56a7.891 7.891 0 0 0-.552-1.104l.96-.168c.192.384.372.804.54 1.272h4.464zm-10.26 3.336h3.36c.36-.66.707-1.308 1.031-1.956l.888.264c-.312.6-.612 1.164-.9 1.692h6.204v.84h-2.364c-.492 1.272-1.056 2.268-1.692 3.012a37.855 37.855 0 0 1 3.768 1.872l-.576.756a41.494 41.494 0 0 0-3.816-1.992c-1.344 1.2-3.12 1.824-5.352 1.896l-.504-.804c2.04-.012 3.708-.504 4.98-1.476-1.128-.48-2.244-.9-3.36-1.26.432-.672.84-1.344 1.224-2.004h-2.892v-.84zm3.911.84c-.36.624-.696 1.176-1.008 1.656.912.264 1.836.6 2.784.996.648-.708 1.176-1.596 1.584-2.652h-3.36zm14.413-5.316h.624a17.058 17.058 0 0 0 5.22 3.732l-.432.768c-1.992-.96-3.684-2.196-5.1-3.72-1.308 1.452-3.024 2.712-5.148 3.78l-.42-.756c2.112-1.02 3.864-2.292 5.256-3.804zm-3.036 3.792h6.696v.828h-2.904v2.088h3.468v.828h-3.468v2.22h4.56v.852h-9.996v-.852h4.548v-2.22h-3.48v-.828h3.48v-2.088h-2.904v-.828zm20.137.912v2.352h-5.988v.828h6.54v3.084h-.852v-.504h-5.688v.492h-.864v-6.252h6.852zm-5.988 4.992h5.688v-1.116h-5.688v1.116zm0-3.336h5.148v-.96h-5.148v.96zm7.644-3.108v2.172h-.84v-1.428h-8.496v1.428h-.84v-2.172h4.752c-.12-.288-.24-.54-.372-.78l.84-.144-.072-.048c.576-.72.984-1.5 1.248-2.364l.828.18c-.084.252-.168.492-.264.732h3.468v.756h-2.136c.252.336.456.648.6.936l-.768.288a7.994 7.994 0 0 0-.756-1.224h-.756a9.384 9.384 0 0 1-.732 1.152l-.648-.396c.132.276.264.576.384.912h4.56zm-8.736-1.668c-.288.468-.6.9-.96 1.296l-.756-.48a7.108 7.108 0 0 0 1.584-2.496l.828.18c-.096.264-.204.504-.3.744h3.216v.756H45.02c.264.36.492.708.66 1.032l-.792.3c-.216-.456-.48-.9-.78-1.332h-.684zm15.998-1.14h5.868v5.544h-2.496v1.416h2.7v.816h-2.7v1.56h3.144v.828h-7.224v-.828h3.216v-1.56h-2.712v-.816h2.712v-1.416H59.42v-5.544zm5.04 4.776v-1.62h-1.668v1.62h1.668zm-2.532 0v-1.62h-1.68v1.62h1.68zm-1.68-2.376h1.68v-1.632h-1.68v1.632zm2.544-1.632v1.632h1.668v-1.632h-1.668zm-7.608 3.204h1.308v-2.844h-1.476v-.816h3.828v.816H57.38v2.844h1.32v.828h-1.32v2.724c.456-.156.888-.324 1.32-.516v.84c-1.104.456-2.292.84-3.564 1.152l-.216-.828a17.534 17.534 0 0 0 1.572-.36v-3.012h-1.308v-.828zm13.453-2.712h1.716v-1.644h.864v1.644h1.596v.828h-1.596v1.98h1.764v.84H71.17c-.024.312-.06.612-.096.9a28.327 28.327 0 0 1 2.064 2.184l-.48.744a27.74 27.74 0 0 0-1.716-2.136c-.348 1.692-1.008 3.012-1.992 3.96l-.636-.564c1.164-1.128 1.824-2.82 1.992-5.088H68.47v-.84h1.884v-1.98h-1.716v-.828zm9.744-1.236v6.588h-.828v-5.784H74.35v5.784h-.828V198.7h4.86zm-.324 10.344h-.996c-.624 0-.924-.336-.924-.996v-2.7h.78v2.52c0 .264.12.396.384.396h.612c.204 0 .348-.06.432-.18.108-.156.18-.612.228-1.356l.744.24c-.072.984-.216 1.584-.408 1.8-.192.18-.468.276-.852.276zm-2.496-8.544h.78v2.124c-.024 1.788-.348 3.216-.96 4.284-.6.984-1.584 1.764-2.928 2.328l-.456-.732c1.32-.54 2.244-1.272 2.772-2.184.492-.948.756-2.184.792-3.696V200.5zm6.3-1.236h2.833v-1.08h.876v1.08h3.144v-1.08h.876v1.08h2.832v.804H89.59v1.14h-.876v-1.14H85.57v1.14h-.876v-1.14h-2.832v-.804zm1.56 1.824c.757.528 1.393 1.056 1.897 1.584l-.588.588c-.456-.504-1.092-1.044-1.908-1.608l.6-.564zm-.755 2.04c.744.516 1.38 1.032 1.896 1.56l-.588.588c-.456-.504-1.092-1.032-1.896-1.584l.588-.564zm1.404 2.592l.732.348a16.325 16.325 0 0 1-1.776 3.216l-.804-.42c.768-1.056 1.392-2.112 1.848-3.144zm6.468-3.324H87.07v5.172c0 .396.204.6.624.6h2.652c.48 0 .78-.12.888-.348.132-.264.228-.78.288-1.548l.828.264c-.096 1.152-.264 1.86-.504 2.124-.228.216-.648.324-1.272.324h-3.216c-.78 0-1.164-.384-1.164-1.128v-6.228h5.196v3.276c-.012.624-.348.948-1.02.972-.528 0-1.032-.012-1.524-.036l-.204-.816c.516.036.984.06 1.416.06.312 0 .48-.156.48-.444v-2.244zm6.037 3.924c.456.324.924.72 1.38 1.2.396.408.744.828 1.032 1.236l-.6.504a11.478 11.478 0 0 0-1.02-1.224c-.444-.48-.888-.876-1.332-1.212l.54-.504zm21.673 2.808c-.528-.012-.924-.348-1.176-.996-.264-.66-.384-2.004-.384-4.032v-3.024h-1.692v1.32a15.22 15.22 0 0 1-.144 1.884c.564.408 1.104.84 1.608 1.308l-.492.744c-.432-.42-.864-.792-1.284-1.116-.408 1.704-1.164 3.024-2.292 3.984l-.648-.564c1.116-.936 1.836-2.268 2.172-3.996-.504-.36-1.008-.66-1.512-.924l.468-.696c.408.216.792.456 1.176.696.036-.432.06-.864.072-1.32v-1.32h-1.536v-.84h1.536v-2.016h.876v2.016h2.544v3.864c0 1.716.048 2.808.168 3.276.096.48.24.72.456.72.12 0 .24-.228.336-.672.072-.384.144-.864.216-1.428l.732.348c-.168 1.104-.348 1.86-.552 2.244-.192.36-.408.54-.648.54zm-8.436-.036h-1.152l-.18-.84c.36.024.696.048 1.032.048.336 0 .516-.168.516-.492v-2.94c-.504.18-1.008.348-1.536.504l-.216-.816a16.43 16.43 0 0 0 1.752-.516v-2.712h-1.524v-.828h1.524v-2.268h.876v2.268h1.128v.828h-1.128v2.376c.408-.168.804-.36 1.2-.564v.864c-.396.192-.792.36-1.2.528v3.492c0 .708-.372 1.068-1.092 1.068zm12.253-9.816h5.064v.852h-1.836v2.58h1.38v.816h-1.38v3.072c.624-.18 1.212-.372 1.788-.564v.804c-1.464.528-3.168 1.008-5.124 1.44l-.228-.792c.264-.06.516-.12.768-.168v-5.592h.804v5.4c.396-.096.78-.192 1.152-.288v-6.708h-2.388v-.852zm5.856 3.564a14.7 14.7 0 0 1-.9 1.608l-.492-.648c.936-1.536 1.56-3.408 1.884-5.628l.852.096c-.108.66-.24 1.284-.384 1.86h3.684v.852h-.912c-.06 1.992-.528 3.684-1.392 5.052.72 1.056 1.572 1.872 2.568 2.448l-.492.72c-1.008-.6-1.872-1.416-2.592-2.46-.828 1.02-1.908 1.836-3.24 2.448l-.528-.708c1.416-.6 2.508-1.428 3.3-2.484-.54-.912-.996-1.968-1.356-3.156zm1.836 2.388c.66-1.188 1.008-2.604 1.044-4.248h-2.16c-.096.264-.18.528-.264.78.36 1.32.828 2.484 1.38 3.468zm6.961-.144v1.116h2.772v-1.116h-2.772zm2.772-.72V203.2h-2.772v1.164h2.772zm-2.772 2.568v2.292h-.828v-6.78h4.428v5.64c0 .696-.336 1.056-1.008 1.056h-.96l-.216-.816.9.036c.3 0 .456-.156.456-.456v-.972h-2.772zm7.812-3.492h-1.98c-.732 0-1.092-.396-1.092-1.176v-4.032h.852v1.56c1.32-.204 2.388-.42 3.216-.636l.276.756c-1.008.252-2.172.48-3.492.672v1.5c0 .384.156.576.48.576h1.572c.24 0 .408-.072.504-.192.12-.168.192-.612.24-1.356l.804.252c-.084.984-.24 1.584-.456 1.8-.192.18-.504.276-.924.276zm-2.22 2.712v1.716c0 .24.144.372.456.372h1.632c.24 0 .42-.06.516-.168.132-.168.216-.612.264-1.344l.78.24c-.072.972-.228 1.56-.456 1.776-.192.18-.504.276-.936.276h-2.04c-.72 0-1.068-.324-1.068-.96v-4.164h.852v1.476c1.2-.12 2.268-.324 3.216-.612l.276.768c-1.08.312-2.244.516-3.492.624zm-2.856-7.104c.72.972 1.284 1.812 1.68 2.532l-.708.504a12.879 12.879 0 0 0-.432-.792c-1.284.204-2.82.348-4.596.444l-.24-.72c.156-.048.288-.132.396-.228a10.41 10.41 0 0 0 1.848-2.592l.816.252c-.552 1.068-1.152 1.908-1.824 2.52a47.618 47.618 0 0 0 3.204-.3 43.118 43.118 0 0 0-.816-1.2l.672-.42zm13.478-.816h.888v1.2c-.012.42-.024.828-.048 1.224h4.596c-.048 2.064-.12 3.744-.24 5.028-.12 1.26-.324 2.148-.612 2.652-.288.48-.744.732-1.368.78h-1.572l-.24-.84c.48.024.948.036 1.38.036.684 0 1.128-.42 1.344-1.248.216-.876.36-2.736.432-5.568H153.7c-.18 1.704-.528 3.12-1.044 4.272-.72 1.464-1.872 2.604-3.48 3.42l-.468-.732c1.572-.84 2.676-1.968 3.3-3.36.396-.996.66-2.196.804-3.6h-3.492v-.84h3.564c.024-.408.036-.816.048-1.224v-1.2zm10.429 8.088c.456.324.924.72 1.38 1.2.396.408.744.828 1.032 1.236l-.6.504a11.478 11.478 0 0 0-1.02-1.224c-.444-.48-.888-.876-1.332-1.212l.54-.504zm13.129-3.84a14.44 14.44 0 0 1-1.188 1.524l-.276-.924c1.176-1.452 2.028-3.12 2.568-4.992l.804.372a16.184 16.184 0 0 1-1.056 2.604v8.16h-.852v-6.744zm1.86-2.7h3.696c-.18-.48-.384-.936-.624-1.392l.828-.228c.252.528.444 1.008.588 1.452l-.456.168h3.78v.816h-7.812v-.816zm1.104 1.788h5.676v.78h-5.676v-.78zm0 1.692h5.676v.792h-5.676v-.792zm5.892 1.776v4.164h-.84v-.648h-4.44v.648h-.84v-4.164h6.12zm-5.28 2.7h4.44v-1.896h-4.44v1.896zm10.225-8.652h2.64c.168-.312.288-.624.372-.96l.9.12c-.096.3-.216.576-.36.84h3.96v5.868h-7.512v-5.868zm6.672 5.124V203.2h-5.832v1.008h5.832zm-5.832-1.704h5.832v-.984h-5.832v.984zm0-1.68h5.832v-.984h-5.832v.984zm-1.44 4.944l.816.168c-.288 1.104-.684 2.052-1.2 2.868l-.732-.468a7.954 7.954 0 0 0 1.116-2.568zm5.784 3.252h-3.084c-.696 0-1.032-.348-1.032-1.02v-2.292h.876v2.112c0 .276.132.42.408.42h2.664c.276 0 .468-.072.564-.192.144-.168.252-.636.3-1.416l.828.264c-.096 1.008-.264 1.62-.504 1.848-.216.18-.564.276-1.02.276zm-1.608-3.744c.648.624 1.14 1.176 1.488 1.644l-.66.456c-.36-.516-.84-1.08-1.464-1.704l.636-.396zm3.876.276c.768.96 1.356 1.812 1.764 2.532l-.684.48c-.432-.78-1.02-1.644-1.752-2.592l.672-.42zM4.948 222.316l.792.312c-.888 2.52-2.052 4.44-3.516 5.76l-.672-.588c1.5-1.368 2.628-3.192 3.396-5.484zm4.092 6.36a24.225 24.225 0 0 1 2.4 4.164l-.804.36c-.18-.408-.36-.792-.54-1.152-2.112.336-4.476.576-7.092.744l-.156-.84c.96-.504 2.16-2.4 3.612-5.688l.84.288c-1.032 2.28-2.064 4.068-3.096 5.364a56.495 56.495 0 0 0 5.508-.6 24.428 24.428 0 0 0-1.452-2.376l.78-.264zm-.18-6.444c.696 2.232 1.896 4.056 3.612 5.472l-.612.708c-1.788-1.488-3.036-3.42-3.732-5.772l.732-.408zm6.484.684h9.348v.84h-2.004v3.18h2.628v.828h-2.628v5.316h-.876v-5.316h-3.468c-.108 1.236-.336 2.256-.696 3.072-.456 1.008-1.212 1.788-2.268 2.34l-.468-.744c.972-.552 1.656-1.284 2.04-2.196.252-.696.42-1.512.516-2.472h-2.772v-.828h2.82c0-.156.012-.3.012-.42v-2.76h-2.184v-.84zm3.072.84v2.76c0 .144-.012.288-.012.42h3.408v-3.18h-3.396zm10.096-1.368c.816.624 1.5 1.236 2.052 1.86l-.6.6c-.504-.6-1.176-1.224-2.04-1.896l.588-.564zm6.984 10.608c-.66 0-1.368-.012-2.136-.024-.78-.012-1.416-.084-1.896-.228-.468-.144-.888-.432-1.26-.864-.168-.216-.324-.312-.468-.312-.3 0-.78.552-1.452 1.656l-.648-.588c.648-1.008 1.212-1.62 1.716-1.836v-3.648h-1.704v-.792h2.508v4.5c.096.072.192.168.288.276.288.36.612.612.948.78.372.168.912.264 1.62.288.636.012 1.428.024 2.364.024.576 0 1.152-.012 1.752-.024a81.788 81.788 0 0 0 1.356-.036l-.192.828h-2.796zm-.324-7.968h-.216v1.848h-.84v-1.848h-.204c-.588.924-1.512 1.692-2.772 2.292l-.432-.708c1.104-.432 1.92-.96 2.448-1.584H31.2v-.768h2.916v-.828c-.744.048-1.536.072-2.388.072l-.24-.696c2.22 0 4.056-.18 5.52-.516l.384.66c-.708.18-1.524.312-2.436.408v.9h2.916v.768h-1.956c.6.576 1.452 1.092 2.532 1.524l-.372.72c-1.188-.564-2.16-1.308-2.904-2.244zm-3.216 2.22h4.5v.384c-.084.36-.18.684-.276.972h1.536v.42c-.096 1.164-.252 1.884-.492 2.148-.216.228-.54.36-.972.384-.396 0-.888.012-1.488.012l-.252-.792c.552.048.972.084 1.26.084.36-.012.624-.084.792-.216.168-.156.3-.612.372-1.356h-1.728c.144-.396.276-.816.384-1.272H33.9c-.144 1.56-.996 2.688-2.544 3.408l-.456-.732c1.332-.552 2.064-1.44 2.208-2.676h-1.152v-.768zm12.64-4.368v8.28h-2.7v.948h-.864v-9.228h3.564zm-2.7 7.428h1.872v-2.94h-1.872v2.94zm0-3.768h1.872v-2.808h-1.872v2.808zm4.872-.204v2.076h3.18v-2.076h-3.18zm3.18-.804v-2.112h-3.18v2.112h3.18zm-3.228 3.684c-.156 1.632-.624 2.976-1.416 4.032l-.684-.624c.84-1.152 1.26-2.604 1.284-4.368v-5.664h4.92V232c0 .72-.372 1.092-1.104 1.092h-1.572l-.228-.852c.552.024 1.056.048 1.524.048.336 0 .504-.204.504-.6v-2.472H46.72zm9.412-.42h7.032v.636a9.31 9.31 0 0 1-2.46 2.1c1.08.456 2.328.78 3.756.972l-.372.744c-1.656-.276-3.06-.696-4.2-1.272-1.212.576-2.616 1.008-4.2 1.272l-.372-.756c1.392-.204 2.64-.528 3.72-.984-.888-.552-1.62-1.212-2.172-1.968h-.732v-.744zm1.644.744c.552.624 1.236 1.152 2.064 1.584a9.35 9.35 0 0 0 2.196-1.584h-4.26zm-2.34-3.432v.936c-.048 2.544-.48 4.584-1.296 6.12l-.648-.576c.696-1.332 1.056-3.18 1.08-5.544v-3.912h4.62a7.11 7.11 0 0 0-.456-.852l.912-.144c.144.3.288.636.42.996h4.116v.816h-8.748v1.368h2.016v-.972h.84v.972h3.18v-.984h.84v.984h1.848v.792h-1.848v1.872h-4.86v-1.872h-2.016zm2.856 0v1.14h3.18v-1.14h-3.18z"/>
    </g>
</svg>
