<svg xmlns="http://www.w3.org/2000/svg" width="200" height="234" viewBox="0 0 200 234">
  <defs>
    <linearGradient id="登录注册左边的图-a" x1="50%" x2="50%" y1="0%" y2="100%">
      <stop offset="0%" stop-color="#1C2C55"/>
      <stop offset="100%" stop-color="#4C5C83"/>
    </linearGradient>
    <linearGradient id="登录注册左边的图-b" x1="50%" x2="50%" y1="0%" y2="100%">
      <stop offset="0%" stop-color="#1C2C55"/>
      <stop offset="100%" stop-color="#4C5C83"/>
    </linearGradient>
  </defs>
  <g fill="none" fill-rule="evenodd" transform="translate(1 1)">
    <text fill="#000" font-family="PingFangSC-Regular, PingFang SC" font-size="12" letter-spacing="1">
      <tspan x="0" y="108">基于区块链的政务公文管控系统</tspan>
    </text>
    <path fill="url(#登录注册左边的图-a)" fill-rule="nonzero" stroke="url(#登录注册左边的图-b)" stroke-width="2" d="M25.3721669,26.2711083 L21.871482,22.7704234 C19.1752595,20.0742009 19.1752594,15.7027605 21.871482,13.006538 L23.1226339,11.7553861 L25.5636053,14.1963574 L24.3124533,15.4475094 C22.9643421,16.7956206 22.9643421,18.9813408 24.3124534,20.3294521 L35.2968244,31.3138231 C36.6449357,32.6619344 38.8306559,32.6619344 40.1787671,31.3138232 L51.1631382,20.329452 C52.5112495,18.9813408 52.5112495,16.7956206 51.1631382,15.4475093 L40.1787671,4.46313828 C38.8306559,3.11502701 36.6449357,3.11502701 35.2968244,4.46313825 L30.2541096,9.50585309 L33.7547945,13.006538 C36.451017,15.7027605 36.451017,20.0742009 33.7547945,22.7704234 L32.4666252,24.0585927 L30.0256538,21.6176214 L31.3138232,20.329452 C32.6619344,18.9813408 32.6619344,16.7956206 31.3138232,15.4475094 L20.329452,4.46313825 C18.9813408,3.11502702 16.7956206,3.11502702 15.4475094,4.46313825 L4.46313825,15.4475094 C3.11502702,16.7956206 3.11502702,18.9813408 4.46313825,20.329452 L15.4475094,31.3138232 C16.7956206,32.6619344 18.9813408,32.6619344 20.329452,31.3138232 L25.3721669,26.2711083 Z M27.8131382,28.7120797 L22.7704234,33.7547945 C20.0742009,36.451017 15.7027605,36.451017 13.006538,33.7547945 L2.02216688,22.7704234 C-0.674055628,20.0742009 -0.674055628,15.7027605 2.02216688,13.006538 L13.006538,2.02216688 C15.7027605,-0.674055628 20.0742009,-0.674055628 22.7704234,2.02216688 L27.8131382,7.06488173 L32.8558531,2.02216688 C35.5520756,-0.674055628 39.923516,-0.67405559 42.6197385,2.02216692 L53.6041096,13.006538 C56.3003321,15.7027605 56.3003321,20.0742009 53.6041096,22.7704234 L42.6197385,33.7547945 C39.923516,36.451017 35.5520756,36.451017 32.855853,33.7547945 L27.8131382,28.7120797 Z"/>
    <text fill="#383838" font-family="PingFangSC-Semibold, PingFang SC" font-size="24" font-weight="500" letter-spacing="5">
      <tspan x="0" y="80">政链</tspan> <tspan x="58" y="80">云</tspan>
    </text>
    <text fill="#999" font-family="PingFangSC-Regular, PingFang SC" font-size="12" letter-spacing="1">
      <tspan x="0" y="132">采用区块链及分布式存储技术，保</tspan> <tspan x="0" y="156">护机构内部数据存储安全、提供监</tspan> <tspan x="0" y="180">管审计、信息传播溯源等，提高内</tspan> <tspan x="0" y="204">部安全管理规范、执政能力、信息</tspan> <tspan x="0" y="228">公开透明度</tspan>
    </text>
  </g>
</svg>
