<svg xmlns="http://www.w3.org/2000/svg" width="304" height="144" viewBox="0 0 304 144">
    <g fill="none" fill-rule="evenodd">
        <g fill="#FFF" fill-rule="nonzero">
            <path d="M157.153 24.745l-2.44-2.44L156 21.015a3.452 3.452 0 0 0 0-4.882L145.016 5.15a3.452 3.452 0 0 0-4.882 0L129.15 16.134a3.452 3.452 0 0 0 0 4.882l10.984 10.985a3.452 3.452 0 0 0 4.882 0l7.256-7.256 2.44 2.441-7.255 7.256a6.904 6.904 0 0 1-9.764 0L126.71 23.457a6.904 6.904 0 0 1 0-9.764L137.693 2.71a6.904 6.904 0 0 1 9.764 0l10.985 10.984a6.904 6.904 0 0 1 0 9.764l-1.289 1.288z"/>
            <path d="M147.81 12.442l2.44 2.441-1.25 1.251a3.452 3.452 0 0 0 0 4.882l10.984 10.985a3.452 3.452 0 0 0 4.882 0l10.984-10.985a3.452 3.452 0 0 0 0-4.882L164.866 5.15a3.452 3.452 0 0 0-4.882 0l-7.293 7.292-2.44-2.44 7.292-7.293a6.904 6.904 0 0 1 9.764 0l10.984 10.984a6.904 6.904 0 0 1 0 9.764l-10.984 10.985a6.904 6.904 0 0 1-9.764 0l-10.985-10.985a6.904 6.904 0 0 1 0-9.764l1.251-1.25z"/>
        </g>
        <path fill="#FFF" d="M126.576 56.608h-6.504V54.16h13.68v2.448h-4.632v5.928h4.296v2.328h-4.296v7.392h5.136v2.448h-14.904v-2.448h2.184V60.088h2.448v12.168h2.592V56.608zm-11.232-3.144c1.488 1.176 2.736 2.328 3.792 3.48l-1.704 1.752c-.912-1.128-2.184-2.328-3.84-3.576l1.752-1.656zm-3.432 6.912h5.64v9.672a65.642 65.642 0 0 0 1.944-1.848l.648 2.64a38.73 38.73 0 0 1-4.656 3.792l-.96-2.28c.432-.336.648-.768.648-1.296v-8.28h-3.264v-2.4zm41.504 6.12h4.176v-2.208h-3.672l-.48-2.064c.672-1.128 1.32-2.544 1.896-4.272h-2.064v-2.184h2.736c.216-.792.432-1.608.624-2.448l2.208.528c-.168.672-.336 1.296-.504 1.92h4.2v2.184h-4.872c-.528 1.56-1.08 2.952-1.68 4.152h1.608v-2.976h2.304v2.976h2.4v2.184h-2.4v2.208h3.096v2.208h-3.096v3.456h-2.304v-3.456h-4.176v-2.208zm-3.096-12.84c1.008 1.488 1.8 2.76 2.376 3.864l-1.872 1.296c-.576-1.2-1.368-2.544-2.328-4.008l1.824-1.152zm9.072 19.2c1.344 0 2.64-.024 3.84-.072l-.648 2.352H159.2c-.72 0-1.44-.024-2.16-.048-1.056-.024-2.04-.168-2.904-.432a4.878 4.878 0 0 1-2.064-1.368c-.312-.336-.576-.48-.792-.48-.312 0-.936.888-1.896 2.712l-1.44-1.896c.888-1.392 1.656-2.352 2.304-2.832v-7.464h-1.584V61.12h3.864v9.888c.432.552 1.008.984 1.68 1.32.72.24 1.536.408 2.448.48.912.024 1.824.048 2.736.048zm-16.224-19.488l2.376.504a78.75 78.75 0 0 1-.432 1.896h3.144v2.376h-3.816c-.288.888-.6 1.728-.936 2.496h4.44v2.232h-1.68v2.256h2.352v2.304h-2.352v4.488c.528-.336 1.08-.72 1.608-1.176l.432 2.16c-1.2.84-2.592 1.536-4.176 2.088l-.936-2.064c.432-.192.672-.504.672-.936v-4.56h-2.4v-2.304h2.4v-2.256H143v-1.128l-.336.672-1.968-1.248c1.176-2.448 1.992-5.04 2.472-7.8zm29.312 1.08h17.28v2.424h-17.28v-2.424zm-2.328 6.6h21.768v2.496h-11.352c-1.992 3.984-3.744 6.864-5.28 8.64 3.792-.264 7.584-.672 11.328-1.2a93.404 93.404 0 0 0-2.4-4.032l2.016-1.248c2.16 3.216 3.84 6.024 5.04 8.4l-2.256 1.584a37.36 37.36 0 0 0-1.176-2.424c-4.776.672-9.984 1.2-15.624 1.608l-.648-2.544c.264-.096.456-.168.6-.264 1.44-1.056 3.312-3.888 5.616-8.52h-7.632v-2.496zM82.876 90.432h6.012v.648h-5.28v3.156H88.6v.66h-4.992v3.456h5.484V99h-6.216v-8.568zm7.792 2.364h.792l1.956 5.292 1.944-5.292h.804L93.788 99h-.744l-2.376-6.204zm8.032-2.232a.59.59 0 0 1 .432.18c.12.096.18.24.18.42a.601.601 0 0 1-.192.432.6.6 0 0 1-.42.168.588.588 0 0 1-.432-.168.59.59 0 0 1-.18-.432c0-.18.06-.324.18-.42a.553.553 0 0 1 .432-.18zm-.36 2.232h.72V99h-.72v-6.204zm8.272-2.532h.72V99h-.684v-1.224c-.432.924-1.152 1.392-2.172 1.392-.9 0-1.596-.336-2.1-.984-.456-.6-.684-1.368-.684-2.292 0-.912.228-1.668.684-2.268.504-.672 1.188-.996 2.064-.996.984 0 1.716.492 2.172 1.476v-3.84zm-2.04 2.976c-.708 0-1.248.264-1.632.792-.348.456-.516 1.08-.516 1.86s.168 1.404.504 1.872c.372.528.912.792 1.62.792.672 0 1.2-.264 1.572-.768.336-.468.516-1.068.516-1.8v-.144c0-.768-.192-1.38-.552-1.86-.384-.504-.888-.744-1.512-.744zm7.78-.612c.984 0 1.716.324 2.208.996.432.588.672 1.416.708 2.484h-5.04c.036.756.24 1.356.612 1.788.384.432.888.648 1.536.648.564 0 1.02-.156 1.368-.444.288-.252.504-.612.66-1.092h.732c-.144.6-.42 1.092-.828 1.476-.504.456-1.14.684-1.932.684-.876 0-1.572-.3-2.088-.888-.54-.6-.804-1.404-.804-2.388 0-.912.252-1.668.768-2.292.528-.648 1.224-.972 2.1-.972zm.012.624c-.612 0-1.104.204-1.476.636-.372.42-.588.96-.648 1.632h4.272c-.12-1.512-.84-2.268-2.148-2.268zm7.792-.624c1.536 0 2.304.852 2.304 2.556V99h-.72v-3.768c0-1.32-.588-1.98-1.764-1.98-.504 0-.912.18-1.248.54-.36.36-.552.852-.588 1.464V99h-.72v-6.204h.72v1.02c.216-.372.492-.66.84-.876.348-.216.744-.312 1.176-.312zm7.432 0c.744 0 1.344.18 1.812.54.468.36.756.912.852 1.656h-.72c-.084-.528-.288-.912-.624-1.176-.336-.264-.78-.396-1.32-.396-.648 0-1.176.252-1.56.756-.384.48-.564 1.128-.564 1.932 0 .792.18 1.428.54 1.896.36.468.888.708 1.572.708 1.152 0 1.812-.588 1.992-1.764h.708c-.12.78-.42 1.38-.888 1.788-.456.396-1.068.6-1.812.6-.912 0-1.632-.312-2.136-.936-.48-.576-.708-1.344-.708-2.292 0-.936.24-1.716.732-2.328.516-.66 1.224-.984 2.124-.984zm7.348 0c.984 0 1.716.324 2.208.996.432.588.672 1.416.708 2.484h-5.04c.036.756.24 1.356.612 1.788.384.432.888.648 1.536.648.564 0 1.02-.156 1.368-.444.288-.252.504-.612.66-1.092h.732c-.144.6-.42 1.092-.828 1.476-.504.456-1.14.684-1.932.684-.876 0-1.572-.3-2.088-.888-.54-.6-.804-1.404-.804-2.388 0-.912.252-1.668.768-2.292.528-.648 1.224-.972 2.1-.972zm.012.624c-.612 0-1.104.204-1.476.636-.372.42-.588.96-.648 1.632h4.272c-.12-1.512-.84-2.268-2.148-2.268zm13.868-2.988c.9 0 1.68.24 2.328.744.672.504 1.056 1.176 1.164 2.016h-.708a2.243 2.243 0 0 0-.972-1.548c-.516-.36-1.128-.54-1.824-.54-1.056 0-1.872.372-2.472 1.116-.564.696-.84 1.596-.84 2.7s.276 2.004.828 2.676c.576.708 1.38 1.068 2.412 1.068.732 0 1.356-.204 1.884-.588.564-.432.936-1.044 1.104-1.836h.708c-.18.984-.624 1.764-1.344 2.328-.66.504-1.44.768-2.34.768-1.284 0-2.28-.444-3-1.32-.66-.804-.984-1.836-.984-3.096s.336-2.304 1.008-3.132c.732-.912 1.752-1.356 3.048-1.356zm5.884 0h.732v3.66a2.44 2.44 0 0 1 .864-.972 2.194 2.194 0 0 1 1.176-.324c.708 0 1.26.204 1.656.624.396.42.6 1.02.6 1.788V99h-.72v-3.864c0-.6-.156-1.068-.456-1.404-.312-.324-.732-.48-1.284-.48-.516 0-.948.204-1.308.624-.36.408-.528.924-.528 1.536V99h-.732v-8.736zm10.168 2.364c.864 0 1.512.228 1.932.708.36.396.552.948.552 1.668V99h-.684v-1.188a3.235 3.235 0 0 1-2.628 1.356c-.6 0-1.092-.156-1.452-.456-.396-.312-.588-.732-.588-1.236 0-.72.288-1.248.876-1.584.504-.324 1.236-.492 2.172-.492l1.584-.024v-.372c0-1.176-.6-1.764-1.8-1.764-.504 0-.912.096-1.236.312-.36.228-.588.552-.684.984l-.708-.048c.12-.624.432-1.104.936-1.416.444-.3 1.02-.444 1.728-.444zm1.764 3.312l-1.548.024c-1.572.012-2.352.516-2.352 1.5 0 .336.132.6.396.804.264.204.624.312 1.056.312.624 0 1.2-.216 1.704-.648.492-.408.744-.864.744-1.344v-.648zm3.952-5.376a.59.59 0 0 1 .432.18c.12.096.18.24.18.42a.601.601 0 0 1-.192.432.6.6 0 0 1-.42.168.588.588 0 0 1-.432-.168.59.59 0 0 1-.18-.432c0-.18.06-.324.18-.42a.553.553 0 0 1 .432-.18zm-.36 2.232h.72V99h-.72v-6.204zm6.328-.168c1.536 0 2.304.852 2.304 2.556V99h-.72v-3.768c0-1.32-.588-1.98-1.764-1.98-.504 0-.912.18-1.248.54-.36.36-.552.852-.588 1.464V99h-.72v-6.204h.72v1.02c.216-.372.492-.66.84-.876.348-.216.744-.312 1.176-.312zm13.628-2.364c.9 0 1.68.24 2.328.744.672.504 1.056 1.176 1.164 2.016h-.708a2.243 2.243 0 0 0-.972-1.548c-.516-.36-1.128-.54-1.824-.54-1.056 0-1.872.372-2.472 1.116-.564.696-.84 1.596-.84 2.7s.276 2.004.828 2.676c.576.708 1.38 1.068 2.412 1.068.732 0 1.356-.204 1.884-.588.564-.432.936-1.044 1.104-1.836h.708c-.18.984-.624 1.764-1.344 2.328-.66.504-1.44.768-2.34.768-1.284 0-2.28-.444-3-1.32-.66-.804-.984-1.836-.984-3.096s.336-2.304 1.008-3.132c.732-.912 1.752-1.356 3.048-1.356zm6.112 0h.72V99h-.72v-8.736zm6.172 2.364c.912 0 1.644.324 2.196.984.504.612.756 1.38.756 2.292 0 .912-.252 1.668-.756 2.28-.552.648-1.284.984-2.196.984-.912 0-1.644-.336-2.196-.984-.504-.612-.756-1.368-.756-2.28 0-.912.252-1.68.768-2.292.54-.66 1.272-.984 2.184-.984zm0 .624c-.708 0-1.26.264-1.668.816-.372.48-.552 1.092-.552 1.836 0 .732.18 1.344.552 1.824.408.54.96.816 1.668.816s1.272-.276 1.68-.816c.36-.492.552-1.104.552-1.824 0-.744-.192-1.356-.552-1.836-.408-.552-.972-.816-1.68-.816zm5.224-.456h.72v3.792c0 .648.132 1.128.408 1.452.288.336.732.504 1.332.504.48 0 .9-.192 1.26-.552.36-.36.564-.84.612-1.428v-3.768h.72V99h-.72v-1.044c-.48.804-1.176 1.212-2.064 1.212-1.512 0-2.268-.852-2.268-2.544v-3.828zm12.244-2.532h.72V99h-.684v-1.224c-.432.924-1.152 1.392-2.172 1.392-.9 0-1.596-.336-2.1-.984-.456-.6-.684-1.368-.684-2.292 0-.912.228-1.668.684-2.268.504-.672 1.188-.996 2.064-.996.984 0 1.716.492 2.172 1.476v-3.84zm-2.04 2.976c-.708 0-1.248.264-1.632.792-.348.456-.516 1.08-.516 1.86s.168 1.404.504 1.872c.372.528.912.792 1.62.792.672 0 1.2-.264 1.572-.768.336-.468.516-1.068.516-1.8v-.144c0-.768-.192-1.38-.552-1.86-.384-.504-.888-.744-1.512-.744z"/>
        <g transform="translate(0 116)">
            <rect width="304" height="28" fill="#19284E" rx="14"/>
            <path fill="#FFF" fill-opacity=".496" d="M108.96 9.096h2.124v-.912h.84v.912h4.14v-.912h.84v.912h2.124v.732h-2.124V13.8h2.304v.768h-2.496c.576.72 1.476 1.284 2.676 1.692l-.348.744c-1.488-.624-2.544-1.44-3.168-2.436h-3.768c-.624.996-1.632 1.824-3.024 2.472l-.444-.732c1.188-.456 2.064-1.032 2.64-1.74h-2.496V13.8h2.304V9.828h-2.124v-.732zm2.964 4.704h4.14v-.864h-4.14v.864zm0-1.548h4.14V11.4h-4.14v.852zm0-1.536h4.14v-.888h-4.14v.888zm1.656 4.272h.84v.96h2.436v.768h-2.436v1.272h4.116v.804h-9.156v-.804h4.2v-1.272h-2.46v-.768h2.46v-.96zm8.872-6.324h9.012v.84h-3.924v3.264h4.764v.864h-4.764v4.26c0 .78-.408 1.176-1.212 1.176h-1.872l-.18-.828c.612.024 1.2.048 1.752.048.42 0 .636-.204.636-.612v-4.044h-4.968v-.864h4.968V9.504h-4.212v-.84zm15.496 1.956c1.104.84 2.136 1.68 3.084 2.52.684-.876 1.272-1.884 1.776-3.024l.78.42c-.54 1.224-1.164 2.292-1.884 3.204a42.76 42.76 0 0 1 2.556 2.556l-.672.672a28.403 28.403 0 0 0-2.46-2.556 10.916 10.916 0 0 1-3.648 2.592l-.504-.78a9.842 9.842 0 0 0 3.492-2.424 54.238 54.238 0 0 0-3.144-2.58l.624-.6zm-2.532-1.932h9.528v.828h-8.7v8.352h9.048v.828h-9.876V8.688zm18.952 6.12c-.516 1.992-1.584 3.444-3.192 4.38l-.528-.696c1.56-.84 2.568-2.232 3-4.152h-2.46v-.828h2.604c.072-.516.108-1.044.108-1.596v-1.068h-2.208v-.828h2.208V8.208h.828v1.812h2.604v3.492h1.044v.828h-3.408c.732 1.728 1.908 3.108 3.528 4.14l-.588.696c-1.62-1.164-2.796-2.616-3.54-4.368zm.36-3.96v.864c0 .624-.048 1.224-.12 1.8h1.884v-2.664h-1.764zm-7.14.54h1.344v-3.12h.864v3.12h1.368v.84h-1.368v3.996a19.503 19.503 0 0 0 1.632-.684v.864a22.211 22.211 0 0 1-3.804 1.368l-.216-.864c.528-.12 1.032-.252 1.524-.396v-4.284h-1.344v-.84zm19.072 3.576h2.244v-1.476h-1.968l-.168-.72c.408-.66.78-1.476 1.116-2.46h-1.2v-.756h1.428c.12-.432.24-.888.36-1.356l.768.18c-.096.408-.204.804-.312 1.176h2.292v.756h-2.532c-.312.912-.648 1.728-1.02 2.424h1.236v-1.62h.804v1.62h1.404v.756h-1.404v1.476h1.74v.768h-1.74v1.992h-.804v-1.992h-2.244v-.768zm-1.68-6.516c.552.72.984 1.356 1.272 1.896l-.648.456c-.312-.6-.732-1.248-1.26-1.956l.636-.396zm4.752 9.756c.624 0 1.224-.012 1.788-.024l-.228.816h-1.62c-.36 0-.732-.012-1.092-.024a5.3 5.3 0 0 1-1.464-.216 2.406 2.406 0 0 1-1.056-.732c-.156-.18-.288-.264-.396-.264-.204 0-.576.468-1.104 1.416l-.516-.648c.504-.792.924-1.284 1.26-1.488v-4.044h-.972v-.768h1.764v4.848c.048.048.096.084.132.132.24.312.552.552.924.732.336.132.744.216 1.212.24.456.012.912.024 1.368.024zm-7.968-9.972l.828.168c-.084.408-.18.792-.276 1.176h1.812v.816h-2.064a14.484 14.484 0 0 1-.924 2.256l-.684-.432c.6-1.2 1.044-2.532 1.308-3.984zm-.264 3.732h2.424v.78h-.984v1.5h1.32v.804h-1.32v2.796a5.954 5.954 0 0 0 1.044-.684l.144.744a8.016 8.016 0 0 1-1.968 1.02l-.324-.72c.18-.084.276-.216.276-.384v-2.772h-1.332v-.804h1.332v-1.5h-.612v-.78zm16.348-1.692v8.184h-.84v-.684h-2.184v1.032h-.84v-8.532h1.116c.24-.672.408-1.368.516-2.088l.864.12a11.461 11.461 0 0 1-.564 1.968h1.932zm-3.024 6.696h2.184V14.34h-2.184v2.628zm0-3.408h2.184v-2.472h-2.184v2.472zm5.112-.504c.864.996 1.512 1.872 1.968 2.616l-.684.48c-.492-.792-1.152-1.68-1.98-2.664l.696-.432zm4.116-2.772c0 3.984-.06 6.456-.18 7.392-.12.912-.672 1.38-1.68 1.38-.24 0-.648-.024-1.224-.048l-.204-.792c.504.024.936.036 1.308.036.564 0 .888-.312.984-.924.072-.672.12-2.748.144-6.204h-3.3c-.336.756-.732 1.44-1.2 2.052l-.516-.684c.84-1.176 1.404-2.616 1.716-4.32l.852.108c-.144.708-.312 1.38-.528 2.004h3.828zm3.724 3.036h5.292v3.696h-5.292V13.32zm4.464 2.928V14.1h-3.624v2.148h3.624zm2.916 2.868H193.5l-.216-.828 1.68.024c.36 0 .552-.24.552-.72V9.54h-8.16V8.7h9.024v9.132c0 .852-.408 1.284-1.224 1.284zm-8.28-8.052h7.38v.78h-7.38v-.78zm19.108-2.868h.888v1.932h3.084v.84h-3.084v2.244h3.408v.84h-3.936c-.768 1.836-1.44 3.132-2.016 3.888a52.243 52.243 0 0 0 4.44-.672c-.348-.72-.708-1.38-1.068-1.98l.828-.276a26.25 26.25 0 0 1 1.896 3.864l-.816.36c-.168-.42-.324-.816-.492-1.2a68.2 68.2 0 0 1-5.904.816l-.204-.756c.072-.024.132-.06.18-.084.564-.492 1.308-1.812 2.22-3.96h-2.844v-.84h3.42v-2.244h-2.844v-.84h2.844V8.196zm-5.448.192c.78.588 1.44 1.176 1.968 1.776l-.612.624c-.48-.576-1.128-1.176-1.968-1.812l.612-.588zm-.288 2.808c.72.588 1.32 1.188 1.812 1.788l-.624.612c-.432-.564-1.032-1.164-1.8-1.812l.612-.588zm1.38 3.324l.78.312a39.621 39.621 0 0 1-1.728 4.272l-.864-.372a34.253 34.253 0 0 0 1.812-4.212zm11.296-5.1h3.264c.156-.42.3-.84.42-1.272l.876.108c-.12.396-.24.78-.372 1.164h6.144v.84h-6.468a13.846 13.846 0 0 1-1.644 2.844v6.108h-.84v-5.076c-.408.444-.828.864-1.284 1.272l-.54-.684c1.464-1.284 2.58-2.772 3.36-4.464h-2.916v-.84zM216.08 15h3.48v-1.116a12.407 12.407 0 0 0 1.956-1.356h-4.512v-.804h5.616v.804c-.648.6-1.38 1.176-2.196 1.716V15h3v.828h-3v2.268c0 .708-.36 1.068-1.068 1.068h-1.5l-.228-.816c.432.012.888.024 1.38.024.36 0 .552-.192.552-.552v-1.992h-3.48V15zm16.888-5.388h-3.372V8.76h6.732v.852h-2.484v3.372h2.316v.804h-2.316v4.152h2.724v.852h-7.344v-.852h1.224v-6.348h.84v6.348h1.68V9.612zm-5.976-1.296c.78.624 1.44 1.236 1.98 1.848l-.588.6c-.492-.6-1.152-1.224-1.992-1.884l.6-.564zm-1.464 3.552h2.568v5.184c.384-.336.792-.72 1.236-1.152l.228.924a17.638 17.638 0 0 1-2.208 1.824l-.336-.78c.168-.144.252-.312.252-.504v-4.668h-1.74v-.828zm21.904 1.068v2.352h-5.988v.828h6.54V19.2h-.852v-.504h-5.688v.492h-.864v-6.252h6.852zm-5.988 4.992h5.688v-1.116h-5.688v1.116zm0-3.336h5.148v-.96h-5.148v.96zm7.644-3.108v2.172h-.84v-1.428h-8.496v1.428h-.84v-2.172h4.752c-.12-.288-.24-.54-.372-.78l.84-.144-.072-.048c.576-.72.984-1.5 1.248-2.364l.828.18c-.084.252-.168.492-.264.732h3.468v.756h-2.136c.252.336.456.648.6.936l-.768.288a7.994 7.994 0 0 0-.756-1.224h-.756a9.384 9.384 0 0 1-.732 1.152l-.648-.396c.132.276.264.576.384.912h4.56zm-8.736-1.668c-.288.468-.6.9-.96 1.296l-.756-.48a7.108 7.108 0 0 0 1.584-2.496l.828.18c-.096.264-.204.504-.3.744h3.216v.756h-2.016c.264.36.492.708.66 1.032l-.792.3c-.216-.456-.48-.9-.78-1.332h-.684zm15.64-1.14h5.868v5.544h-2.496v1.416h2.7v.816h-2.7v1.56h3.144v.828h-7.224v-.828h3.216v-1.56h-2.712v-.816h2.712V14.22h-2.508V8.676zm5.04 4.776v-1.62h-1.668v1.62h1.668zm-2.532 0v-1.62h-1.68v1.62h1.68zm-1.68-2.376h1.68V9.444h-1.68v1.632zm2.544-1.632v1.632h1.668V9.444h-1.668zm-7.608 3.204h1.308V9.804h-1.476v-.816h3.828v.816h-1.464v2.844h1.32v.828h-1.32V16.2c.456-.156.888-.324 1.32-.516v.84c-1.104.456-2.292.84-3.564 1.152l-.216-.828a17.534 17.534 0 0 0 1.572-.36v-3.012h-1.308v-.828zm13.408-3.912h9.696v.84h-4.464v4.536h4.92v.828h-4.92v4.248h-.888V14.94h-4.824v-.828h4.824V9.576h-4.344v-.84zm1.464 1.608c.456.84.888 1.752 1.296 2.748l-.804.396a21.855 21.855 0 0 0-1.296-2.748l.804-.396zm6.804-.06l.792.372c-.36.948-.84 1.872-1.428 2.784l-.768-.396a15.765 15.765 0 0 0 1.404-2.76zm13.576 3.924v5.004h-.876v-.6h-6.264v.6h-.876v-5.004h8.016zm-7.14 3.576h6.264v-2.748h-6.264v2.748zm-1.728-4.812l-.168-.816c1.056-.36 2.364-1.692 3.924-3.984l.888.3c-1.08 1.536-2.172 2.76-3.252 3.648 2.304-.096 4.488-.252 6.552-.444a22.527 22.527 0 0 0-1.404-1.812l.78-.372a30.514 30.514 0 0 1 2.88 3.984l-.84.408c-.3-.504-.6-.972-.888-1.428-2.532.228-5.352.396-8.472.516z"/>
            <rect width="91" height="24" x="2" y="2" fill="#769BE5" rx="12"/>
            <path fill="#FFF" d="M16.6 9.264c1.032 0 1.8.468 2.304 1.416.408.756.624 1.764.624 3.036 0 1.26-.216 2.268-.624 3.036-.504.936-1.272 1.416-2.304 1.416-1.032 0-1.8-.48-2.304-1.416-.42-.768-.624-1.776-.624-3.036 0-1.272.204-2.28.624-3.036.504-.948 1.272-1.416 2.304-1.416zm0 .648c-.828 0-1.428.42-1.788 1.272-.264.624-.396 1.476-.396 2.532s.132 1.896.396 2.532c.36.84.96 1.272 1.788 1.272.816 0 1.416-.432 1.788-1.272.264-.636.408-1.476.408-2.532s-.144-1.908-.408-2.532c-.372-.852-.972-1.272-1.788-1.272zm5.148 6.888a.59.59 0 0 1 .432.18c.12.12.18.264.18.432 0 .168-.06.324-.18.444a.629.629 0 0 1-.432.168.588.588 0 0 1-.432-.168.616.616 0 0 1-.18-.444.59.59 0 0 1 .18-.432.553.553 0 0 1 .432-.18zm4.296-7.368h.6V18H25.9v-7.656a4.427 4.427 0 0 1-2.052 1.26v-.744c.396-.12.792-.3 1.176-.54a4.847 4.847 0 0 0 1.02-.888zm9.432 0h.864L39.772 18h-.804l-.996-2.556h-4.128L32.848 18h-.804l3.432-8.568zm-1.392 5.388h3.648l-1.8-4.596h-.036l-1.812 4.596zm6.672-5.556h.72V18h-.72V9.264zm5.328 2.364c.876 0 1.572.324 2.088.996.456.6.684 1.356.684 2.292 0 .912-.228 1.668-.672 2.268-.504.648-1.188.984-2.076.984-.996 0-1.716-.492-2.172-1.464v3.672h-.72v-8.58h.684v1.224c.456-.936 1.176-1.392 2.184-1.392zM46 12.24c-.672 0-1.2.264-1.572.792-.348.468-.516 1.08-.516 1.836V15c0 .744.18 1.356.552 1.836.372.48.876.72 1.512.72.708 0 1.248-.264 1.632-.768.336-.468.504-1.092.504-1.872s-.168-1.404-.492-1.872c-.384-.54-.924-.804-1.62-.804zm4.128-2.976h.732v3.66a2.44 2.44 0 0 1 .864-.972 2.194 2.194 0 0 1 1.176-.324c.708 0 1.26.204 1.656.624.396.42.6 1.02.6 1.788V18h-.72v-3.864c0-.6-.156-1.068-.456-1.404-.312-.324-.732-.48-1.284-.48-.516 0-.948.204-1.308.624-.36.408-.528.924-.528 1.536V18h-.732V9.264zm9.168 2.364c.864 0 1.512.228 1.932.708.36.396.552.948.552 1.668V18h-.684v-1.188a3.235 3.235 0 0 1-2.628 1.356c-.6 0-1.092-.156-1.452-.456-.396-.312-.588-.732-.588-1.236 0-.72.288-1.248.876-1.584.504-.324 1.236-.492 2.172-.492l1.584-.024v-.372c0-1.176-.6-1.764-1.8-1.764-.504 0-.912.096-1.236.312-.36.228-.588.552-.684.984l-.708-.048c.12-.624.432-1.104.936-1.416.444-.3 1.02-.444 1.728-.444zm1.764 3.312l-1.548.024c-1.572.012-2.352.516-2.352 1.5 0 .336.132.6.396.804.264.204.624.312 1.056.312.624 0 1.2-.216 1.704-.648.492-.408.744-.864.744-1.344v-.648zm4.576-.36h6.06v.624h-6.06v-.624zm10.036-5.148h.732v3.804h5.316V9.432h.732V18h-.732v-4.104h-5.316V18h-.732V9.432z"/>
        </g>
    </g>
</svg>
