<svg xmlns="http://www.w3.org/2000/svg" width="64" height="24" viewBox="0 0 64 24">
    <g fill="none" fill-rule="evenodd">
        <rect width="64" height="24" fill="#769BE5" rx="12"/>
        <path fill="#FFF" d="M20.508 10.768h7.032v4.32h-7.032v-4.32zm6.396 3.732v-1.272h-5.76V14.5h5.76zm-5.76-1.848h5.76v-1.296h-5.76v1.296zM19.128 7.36H23.7V6.208h.648V7.36h4.572v.624h-3.852c.912.984 2.352 1.764 4.344 2.328l-.264.576c-2.208-.732-3.768-1.704-4.656-2.904h-.144v2.376H23.7V7.984h-.144C22.62 9.16 21.06 10.132 18.9 10.9l-.36-.564c2.052-.624 3.54-1.416 4.464-2.352h-3.876V7.36zm-.24 8.832h10.236v.6H18.888v-.6zm16.6-7.692h3.84c.168-.36.312-.708.444-1.068-1.212.072-2.532.12-3.948.12L35.644 7c3.408-.012 6.216-.252 8.4-.708l.312.54c-1.14.252-2.46.432-3.972.552-.12.384-.264.756-.42 1.116h4.596v.576H39.7c-.168.336-.36.66-.552.972h6.096v.588h-6.492c-.252.336-.516.672-.804 1.008h6.036v5.544h-.612v-.552h-5.616v.552h-.624v-4.704a19.056 19.056 0 0 1-2.244 1.788l-.348-.564c1.392-.948 2.544-1.968 3.432-3.072h-3.12v-.588h3.564c.216-.324.42-.648.612-.972h-3.54V8.5zm2.268 5.172v.912h5.616v-.912h-5.616zm5.616-.516v-.96h-5.616v.96h5.616zM37.756 15.1v.984h5.616V15.1h-5.616z"/>
    </g>
</svg>
