<svg xmlns="http://www.w3.org/2000/svg" width="93" height="24" viewBox="0 0 93 24">
    <g fill="none" fill-rule="evenodd">
        <rect width="93" height="24" fill="#769BE5" rx="12"/>
        <path fill="#FFF" d="M17.416 6.472c.816.624 1.512 1.236 2.064 1.86l-.456.456c-.504-.6-1.188-1.224-2.052-1.896l.444-.42zm7.068 10.476c-.66 0-1.368-.012-2.136-.024-.78-.024-1.404-.096-1.872-.228-.468-.144-.888-.432-1.272-.888-.168-.216-.312-.312-.456-.312-.336 0-.864.564-1.584 1.716l-.492-.444c.672-1.056 1.272-1.68 1.776-1.86v-3.84h-1.776v-.624h2.388v4.488c.12.072.252.18.384.336.3.36.624.624.972.792.396.144.948.228 1.656.252.6.012 1.38.024 2.316.024h1.716c.576-.024 1.02-.036 1.332-.048l-.156.66h-2.796zm-.948-10.764h.636v1.608h2.472v.636h-2.472v1.896h2.904v.624H25v3.444c0 .24.132.36.408.36h.54c.204 0 .36-.036.468-.108.18-.12.288-.624.324-1.512l.588.204c-.072.96-.204 1.536-.396 1.74-.168.168-.444.252-.84.252h-.864c-.276 0-.492-.072-.636-.216a.827.827 0 0 1-.216-.588v-3.576h-1.344c-.024.876-.144 1.62-.36 2.244-.336.912-1.068 1.668-2.196 2.256l-.408-.516c.984-.48 1.632-1.104 1.968-1.872.216-.576.348-1.284.372-2.112h-2.004v-.624h3.132V8.428h-2.112c-.228.48-.48.912-.756 1.308l-.552-.36c.636-.888 1.104-1.908 1.404-3.036l.624.132c-.132.456-.276.9-.444 1.32h1.836V6.184zm13.468.564h5.604v.564c-.384.972-1.08 1.788-2.064 2.46.816.408 1.8.696 2.976.864l-.228.576c-1.344-.204-2.46-.564-3.336-1.08-.852.468-1.872.852-3.048 1.152l-.324-.552c1.08-.264 2.016-.588 2.796-.984a5.172 5.172 0 0 1-1.8-2.4h-.576v-.6zm1.188.6c.348.84.936 1.536 1.752 2.076.924-.576 1.584-1.272 1.992-2.076h-3.744zm-4.26 9.708H32.9l-.144-.624c.336.024.648.048.948.048.36 0 .54-.18.54-.528v-3.156c-.528.18-1.044.348-1.56.504l-.168-.636c.6-.144 1.176-.312 1.728-.504V9.232h-1.56v-.636h1.56V6.268h.648v2.328h1.44v.636h-1.44v2.676c.504-.216.984-.444 1.464-.684v.66c-.48.24-.96.456-1.464.66v3.564c0 .624-.324.948-.96.948zm3.264-4.764h2.472V11.14h.624v1.152h2.46v.588h-2.46v1.56h3.06v.624h-3.06v2.016h-.624v-2.016h-3.096v-.624h3.096v-1.56h-2.472v-.588zm11.632-3.96h5.064A8.66 8.66 0 0 0 52.656 6.4l.648-.24c.468.6.9 1.332 1.284 2.172h4.584v.648h-1.908c-.576 1.968-1.476 3.6-2.7 4.896 1.308 1.128 2.94 2.064 4.896 2.784l-.36.552c-2.016-.744-3.672-1.704-4.992-2.868-1.368 1.308-3.108 2.268-5.196 2.868l-.336-.576c2.064-.576 3.768-1.476 5.088-2.7a11.083 11.083 0 0 1-2.976-4.956h-1.86v-.648zm2.496.648c.54 1.74 1.476 3.24 2.796 4.5 1.14-1.224 1.968-2.724 2.484-4.5h-5.28zm15.94-2.82l.6.288c-.324.972-.72 1.884-1.2 2.724v8.016h-.636v-6.996c-.432.612-.9 1.188-1.416 1.74l-.216-.684c1.32-1.5 2.28-3.192 2.868-5.088zm2.004.756l.636.072c-.12.648-.264 1.248-.432 1.824h2.016V6.244h.648v2.568h2.844v.648h-2.844v3.108h3.288v.636h-3.288v3.924h-.648v-3.924h-3.636v-.636h3.636V9.46h-2.232a10.39 10.39 0 0 1-1.128 2.148l-.408-.528c.756-1.14 1.272-2.532 1.548-4.164z"/>
    </g>
</svg>
