<svg xmlns="http://www.w3.org/2000/svg" width="101" height="34" viewBox="0 0 101 34">
    <g fill="none" fill-rule="evenodd">
        <rect width="101" height="34" fill="#DBE4F5" rx="2"/>
        <path fill="#4C4C4C" d="M38.788 11.148h1.296v3.564h4.44v1.212h-4.44v4.692h5.328v1.224H34.624v-1.224h4.164v-9.468zm17.024 4.872a16.2 16.2 0 0 1-1.056 1.164l-.42-1.344c1.212-1.332 2.112-2.904 2.7-4.716l1.188.552a12.99 12.99 0 0 1-1.164 2.568v8.028h-1.248V16.02zm2.34-3.468h2.28l.324-1.428 1.224.12c-.096.456-.204.888-.3 1.308h3.408v1.2h-3.72c-.096.36-.192.708-.288 1.032h4.5v1.188h-4.896c-.156.42-.312.816-.456 1.176h4.716v1.08c-.468.744-1.188 1.488-2.148 2.232.48.252.936.516 1.38.804l-.696 1.08a21.041 21.041 0 0 0-4.512-2.292l.66-.984c.72.264 1.416.54 2.076.852.792-.528 1.416-1.068 1.896-1.62h-5.004c.312-.744.6-1.524.876-2.328h-1.848v-1.188h2.22c.096-.348.192-.696.288-1.032h-1.98v-1.2z"/>
    </g>
</svg>
