<svg xmlns="http://www.w3.org/2000/svg" width="130" height="39" viewBox="0 0 130 39">
    <g fill="#FFF" fill-rule="evenodd">
        <path d="M12.98 3.34H7.56V1.3h11.4v2.04H15.1v4.94h3.58v1.94H15.1v6.16h4.28v2.04H6.96v-2.04h1.82V6.24h2.04v10.14h2.16V3.34zM3.62.72c1.24.98 2.28 1.94 3.16 2.9L5.36 5.08c-.76-.94-1.82-1.94-3.2-2.98L3.62.72zM.76 6.48h4.7v8.06c.52-.48 1.06-.98 1.62-1.54l.54 2.2a32.275 32.275 0 0 1-3.88 3.16l-.8-1.9c.36-.28.54-.64.54-1.08v-6.9H.76v-2zm34.587 5.1h3.48V9.74h-3.06l-.4-1.72c.56-.94 1.1-2.12 1.58-3.56h-1.72V2.64h2.28c.18-.66.36-1.34.52-2.04l1.84.44c-.14.56-.28 1.08-.42 1.6h3.5v1.82h-4.06c-.44 1.3-.9 2.46-1.4 3.46h1.34V5.44h1.92v2.48h2v1.82h-2v1.84h2.58v1.84h-2.58v2.88h-1.92v-2.88h-3.48v-1.84zM32.767.88c.84 1.24 1.5 2.3 1.98 3.22l-1.56 1.08c-.48-1-1.14-2.12-1.94-3.34l1.52-.96zm7.56 16c1.12 0 2.2-.02 3.2-.06l-.54 1.96h-2.82c-.6 0-1.2-.02-1.8-.04-.88-.02-1.7-.14-2.42-.36-.68-.24-1.26-.62-1.72-1.14-.26-.28-.48-.4-.66-.4-.26 0-.78.74-1.58 2.26l-1.2-1.58c.74-1.16 1.38-1.96 1.92-2.36V8.94h-1.32V7.1h3.22v8.24c.36.46.84.82 1.4 1.1.6.2 1.28.34 2.04.4.76.02 1.52.04 2.28.04zM26.807.64l1.98.42c-.12.56-.24 1.08-.36 1.58h2.62v1.98h-3.18c-.24.74-.5 1.44-.78 2.08h3.7v1.86h-1.4v1.88h1.96v1.92h-1.96v3.74c.44-.28.9-.6 1.34-.98l.36 1.8c-1 .7-2.16 1.28-3.48 1.74l-.78-1.72c.36-.16.56-.42.56-.78v-3.8h-2v-1.92h2V8.56h-.72v-.94l-.28.56-1.64-1.04c.98-2.04 1.66-4.2 2.06-6.5zm24.426.9h14.4v2.02h-14.4V1.54zm-1.94 5.5h18.14v2.08h-9.46c-1.66 3.32-3.12 5.72-4.4 7.2 3.16-.22 6.32-.56 9.44-1-.62-1.1-1.28-2.22-2-3.36l1.68-1.04c1.8 2.68 3.2 5.02 4.2 7l-1.88 1.32c-.3-.68-.62-1.34-.98-2.02-3.98.56-8.32 1-13.02 1.34l-.54-2.12c.22-.08.38-.14.5-.22 1.2-.88 2.76-3.24 4.68-7.1h-6.36V7.04zM77.5 8.26c.42 0 .78.14 1.08.46.3.28.46.64.46 1.08 0 .42-.16.78-.46 1.08-.3.3-.66.46-1.08.46-.44 0-.8-.16-1.08-.46-.32-.3-.46-.66-.46-1.08 0-.44.14-.8.46-1.08.28-.32.64-.46 1.08-.46zM89.507.74c1.36 1 2.52 1.98 3.48 2.96l-1.48 1.5c-.82-.94-1.98-1.94-3.5-3.02l1.5-1.44zm-.48 4.68c1.3 1 2.4 2 3.3 3l-1.48 1.48c-.78-.92-1.88-1.94-3.3-3.04l1.48-1.44zm2 5.66l1.88.78c-.88 2.5-1.88 4.86-2.98 7.06l-2.1-.92a60.11 60.11 0 0 0 3.2-6.92zm2.42-7.36h5.04c-.34-.94-.74-1.84-1.18-2.7l1.94-.56c.56 1.2 1 2.28 1.3 3.26h4.86v2.04h-4.88v4.06h4.34v2h-4.34v4.56h5.3v2.04h-12.86v-2.04h5.46v-4.56h-4.42v-2h4.42V5.76h-4.98V3.72zm18.226 4.6h2.2V1.2h6.2v7.12h1.72V1.2h6.22v7.12h1.98v2.02h-1.98v6.48c0 1.36-.74 2.04-2.2 2.04h-1.72l-.54-1.96c.58.04 1.12.08 1.62.08.52 0 .8-.3.8-.9v-5.74h-2.2v.36c-.04 3.46-.66 6.26-1.86 8.42l-1.52-1.38c.9-1.8 1.36-4.1 1.4-6.9v-.5h-1.72v6.46c0 1.36-.64 2.06-1.9 2.06h-1.78l-.56-1.96c.62.04 1.2.08 1.72.08.36 0 .54-.3.54-.88v-5.76h-2.18v.32c-.04 3.48-.76 6.32-2.16 8.48l-1.54-1.42c1.08-1.8 1.62-4.1 1.66-6.9v-.48h-2.2V8.32zm14.3 0V3.08h-2.2v5.24h2.2zm-7.88 0V3.08h-2.18v5.24h2.18zM12.73 28.86h5.01v.54h-4.4v2.63h4.16v.55h-4.16v2.88h4.57V36h-5.18v-7.14zm10.253-.14c.75 0 1.4.2 1.94.62.56.42.88.98.97 1.68h-.59a1.87 1.87 0 0 0-.81-1.29c-.43-.3-.94-.45-1.52-.45-.88 0-1.56.31-2.06.93-.47.58-.7 1.33-.7 2.25 0 .92.23 1.67.69 2.23.48.59 1.15.89 2.01.89.61 0 1.13-.17 1.57-.49.47-.36.78-.87.92-1.53h.59c-.15.82-.52 1.47-1.12 1.94-.55.42-1.2.64-1.95.64-1.07 0-1.9-.37-2.5-1.1-.55-.67-.82-1.53-.82-2.58s.28-1.92.84-2.61c.61-.76 1.46-1.13 2.54-1.13zm8.084 0c.75 0 1.4.2 1.94.62.56.42.88.98.97 1.68h-.59a1.87 1.87 0 0 0-.81-1.29c-.43-.3-.94-.45-1.52-.45-.88 0-1.56.31-2.06.93-.47.58-.7 1.33-.7 2.25 0 .92.23 1.67.69 2.23.48.59 1.15.89 2.01.89.61 0 1.13-.17 1.57-.49.47-.36.78-.87.92-1.53h.59c-.15.82-.52 1.47-1.12 1.94-.55.42-1.2.64-1.95.64-1.07 0-1.9-.37-2.5-1.1-.55-.67-.82-1.53-.82-2.58s.28-1.92.84-2.61c.61-.76 1.46-1.13 2.54-1.13zm10.936 2.97c.19 0 .35.07.49.21.14.13.21.29.21.49 0 .19-.07.36-.21.5-.14.14-.3.21-.49.21-.2 0-.36-.07-.49-.21a.688.688 0 0 1-.21-.5c0-.2.07-.36.21-.49.13-.14.29-.21.49-.21zm8.227-2.83h3.02c.7 0 1.26.16 1.66.5.4.34.61.82.61 1.46 0 .42-.12.78-.34 1.09-.24.32-.58.53-1.01.63v.02c.72.16 1.12.6 1.2 1.32l.1 1.07c.04.44.15.79.35 1.05h-.67c-.15-.24-.24-.57-.28-.97l-.09-.98c-.04-.44-.21-.76-.49-.95-.26-.18-.63-.27-1.09-.27h-2.36V36h-.61v-7.14zm.61.54v2.89h2.35c.56 0 .99-.14 1.3-.41.28-.26.42-.6.42-1.04 0-.48-.14-.83-.41-1.07-.28-.25-.72-.37-1.32-.37h-2.34zm8.863 1.29c.82 0 1.43.27 1.84.83.36.49.56 1.18.59 2.07h-4.2c.03.63.2 1.13.51 1.49.32.36.74.54 1.28.54.47 0 .85-.13 1.14-.37.24-.21.42-.51.55-.91h.61c-.12.5-.35.91-.69 1.23-.42.38-.95.57-1.61.57-.73 0-1.31-.25-1.74-.74-.45-.5-.67-1.17-.67-1.99 0-.76.21-1.39.64-1.91.44-.54 1.02-.81 1.75-.81zm.01.52c-.51 0-.92.17-1.23.53-.31.35-.49.8-.54 1.36h3.56c-.1-1.26-.7-1.89-1.79-1.89zm6.344-.52c.85 0 1.47.39 1.85 1.18v-1.04h.6v4.79c0 1.66-.78 2.5-2.32 2.5-.68 0-1.2-.15-1.57-.44-.35-.28-.57-.69-.66-1.24h.6c.07.38.23.67.48.86.26.21.64.32 1.15.32 1.14 0 1.72-.65 1.72-1.93v-.99c-.38.78-1 1.18-1.85 1.18-.72 0-1.3-.26-1.73-.77-.4-.48-.6-1.08-.6-1.82 0-.73.2-1.34.6-1.82.43-.52 1.01-.78 1.73-.78zm.07.51c-.57 0-1.01.2-1.33.62-.31.38-.46.87-.46 1.47 0 .58.14 1.06.43 1.44.31.42.76.63 1.35.63.57 0 1.02-.2 1.34-.6.3-.38.45-.87.45-1.47s-.15-1.09-.45-1.47c-.32-.42-.77-.62-1.33-.62zm5.073-2.23c.14 0 .26.05.36.15.1.08.15.2.15.35a.5.5 0 0 1-.16.36.5.5 0 0 1-.35.14.49.49 0 0 1-.36-.14c-.1-.1-.15-.22-.15-.36 0-.15.05-.27.15-.35.09-.1.21-.15.36-.15zm-.3 1.86h.6V36h-.6v-5.17zm4.753-.14c1.22 0 1.91.53 2.06 1.59h-.59c-.07-.36-.21-.62-.43-.79-.24-.19-.59-.28-1.05-.28-.38 0-.69.07-.93.23-.24.16-.36.36-.36.62s.15.47.46.63c.2.1.56.22 1.09.36.63.16 1.08.32 1.34.48.41.25.62.6.62 1.04 0 1.04-.7 1.57-2.1 1.57-1.33 0-2.05-.59-2.17-1.77h.59c.06.45.22.78.48.98.24.18.6.27 1.08.27 1 0 1.5-.34 1.5-1.02 0-.31-.17-.55-.51-.72-.18-.09-.56-.21-1.15-.36-.6-.16-1.02-.31-1.26-.46-.4-.24-.59-.57-.59-.99 0-.42.18-.75.56-1.01.36-.25.82-.37 1.36-.37zm5.254-1.53v1.67h1.35v.52h-1.35v3.5c0 .22.04.39.12.49.08.09.23.14.45.14h.65V36h-.73c-.4 0-.69-.11-.86-.31-.16-.18-.23-.46-.23-.84v-3.5h-1.1v-.52h1.1v-1.42l.6-.25zm5.183 1.53c.82 0 1.43.27 1.84.83.36.49.56 1.18.59 2.07h-4.2c.03.63.2 1.13.51 1.49.32.36.74.54 1.28.54.47 0 .85-.13 1.14-.37.24-.21.42-.51.55-.91h.61c-.12.5-.35.91-.69 1.23-.42.38-.95.57-1.61.57-.73 0-1.31-.25-1.74-.74-.45-.5-.67-1.17-.67-1.99 0-.76.21-1.39.64-1.91.44-.54 1.02-.81 1.75-.81zm.01.52c-.51 0-.92.17-1.23.53-.31.35-.49.8-.54 1.36h3.56c-.1-1.26-.7-1.89-1.79-1.89zm6.383-.52c.3 0 .55.03.75.11v.61c-.27-.08-.53-.11-.79-.11-.46 0-.84.2-1.12.62-.28.38-.41.83-.41 1.35V36h-.6v-5.17h.6v.99c.14-.32.33-.58.57-.77.28-.24.62-.36 1-.36zm4.454 0c.72 0 1.26.19 1.61.59.3.33.46.79.46 1.39V36h-.57v-.99a2.696 2.696 0 0 1-2.19 1.13c-.5 0-.91-.13-1.21-.38-.33-.26-.49-.61-.49-1.03 0-.6.24-1.04.73-1.32.42-.27 1.03-.41 1.81-.41l1.32-.02v-.31c0-.98-.5-1.47-1.5-1.47-.42 0-.76.08-1.03.26-.3.19-.49.46-.57.82l-.59-.04c.1-.52.36-.92.78-1.18.37-.25.85-.37 1.44-.37zm1.47 2.76l-1.29.02c-1.31.01-1.96.43-1.96 1.25 0 .28.11.5.33.67.22.17.52.26.88.26.52 0 1-.18 1.42-.54.41-.34.62-.72.62-1.12v-.54zm3.943-4.29v1.67h1.35v.52h-1.35v3.5c0 .22.04.39.12.49.08.09.23.14.45.14h.65V36h-.73c-.4 0-.69-.11-.86-.31-.16-.18-.23-.46-.23-.84v-3.5h-1.1v-.52h1.1v-1.42l.6-.25zm3.693-.19c.14 0 .26.05.36.15.1.08.15.2.15.35a.5.5 0 0 1-.16.36.5.5 0 0 1-.35.14.49.49 0 0 1-.36-.14c-.1-.1-.15-.22-.15-.36 0-.15.05-.27.15-.35.09-.1.21-.15.36-.15zm-.3 1.86h.6V36h-.6v-5.17zm5.254-.14c.76 0 1.37.27 1.83.82.42.51.63 1.15.63 1.91s-.21 1.39-.63 1.9c-.46.54-1.07.82-1.83.82s-1.37-.28-1.83-.82c-.42-.51-.63-1.14-.63-1.9s.21-1.4.64-1.91c.45-.55 1.06-.82 1.82-.82zm0 .52c-.59 0-1.05.22-1.39.68-.31.4-.46.91-.46 1.53 0 .61.15 1.12.46 1.52.34.45.8.68 1.39.68.59 0 1.06-.23 1.4-.68.3-.41.46-.92.46-1.52 0-.62-.16-1.13-.46-1.53-.34-.46-.81-.68-1.4-.68zm6.633-.52c1.28 0 1.92.71 1.92 2.13V36h-.6v-3.14c0-1.1-.49-1.65-1.47-1.65-.42 0-.76.15-1.04.45-.3.3-.46.71-.49 1.22V36h-.6v-5.17h.6v.85c.18-.31.41-.55.7-.73.29-.18.62-.26.98-.26z"/>
    </g>
</svg>
