<svg xmlns="http://www.w3.org/2000/svg" width="101" height="34" viewBox="0 0 101 34">
    <g fill="none" fill-rule="evenodd">
        <rect width="101" height="34" fill="#769BE5" rx="2"/>
        <path fill="#FFF" d="M36.704 11.244c.816.6 1.512 1.188 2.088 1.776l-.888.9c-.492-.564-1.188-1.164-2.1-1.812l.9-.864zm-.288 2.808c.78.6 1.44 1.2 1.98 1.8l-.888.888c-.468-.552-1.128-1.164-1.98-1.824l.888-.864zm1.2 3.396l1.128.468a36.8 36.8 0 0 1-1.788 4.236l-1.26-.552a36.065 36.065 0 0 0 1.92-4.152zm1.452-4.416h3.024a14.054 14.054 0 0 0-.708-1.62l1.164-.336c.336.72.6 1.368.78 1.956h2.916v1.224h-2.928v2.436h2.604v1.2h-2.604v2.736h3.18v1.224H38.78v-1.224h3.276v-2.736h-2.652v-1.2h2.652v-2.436h-2.988v-1.224zm16.436 2.76h1.32V11.52h3.72v4.272h1.032V11.52h3.732v4.272h1.188v1.212h-1.188v3.888c0 .816-.444 1.224-1.32 1.224h-1.032l-.324-1.176c.348.024.672.048.972.048.312 0 .48-.18.48-.54v-3.444h-1.32v.216c-.024 2.076-.396 3.756-1.116 5.052l-.912-.828c.54-1.08.816-2.46.84-4.14v-.3h-1.032v3.876c0 .816-.384 1.236-1.14 1.236h-1.068L58 20.94c.372.024.72.048 1.032.048.216 0 .324-.18.324-.528v-3.456h-1.308v.192c-.024 2.088-.456 3.792-1.296 5.088l-.924-.852c.648-1.08.972-2.46.996-4.14v-.288h-1.32v-1.212zm8.58 0v-3.144h-1.32v3.144h1.32zm-4.728 0v-3.144h-1.308v3.144h1.308z"/>
    </g>
</svg>
