<svg xmlns="http://www.w3.org/2000/svg" width="48" height="55" viewBox="0 0 48 55">
    <defs>
        <linearGradient id="a" x1="50%" x2="50%" y1="0%" y2="100%">
            <stop offset="0%" stop-color="#1C2C55"/>
            <stop offset="100%" stop-color="#4C5C83"/>
        </linearGradient>
    </defs>
    <g fill="url(#a)" fill-rule="nonzero" transform="translate(-482 -272)">
        <path d="M505.319 302.161h.367c3.365-.058 6.087-1.252 8.097-3.535 4.422-5.03 3.687-13.655 3.607-14.478-.287-6.178-3.182-9.134-5.57-10.514-1.78-1.031-3.86-1.588-6.18-1.634h-.196c-1.274 0-3.778.209-6.178 1.588-2.412 1.38-5.353 4.335-5.64 10.56-.08.823-.815 9.447 3.607 14.478 1.998 2.283 4.72 3.477 8.086 3.535zm-8.626-17.723c0-.035.011-.07.011-.093.38-8.311 6.226-9.204 8.73-9.204h.137c3.101.07 8.373 1.345 8.73 9.204 0 .035 0 .07.01.093.012.08.816 7.963-2.836 12.113-1.447 1.646-3.377 2.457-5.915 2.48h-.115c-2.527-.023-4.468-.834-5.904-2.48-3.64-4.127-2.86-12.044-2.848-12.113z"/>
        <path d="M529.013 315.578v-.034c0-.092-.012-.184-.012-.288-.068-2.277-.217-7.603-5.185-9.305-.034-.012-.08-.023-.114-.035-5.162-1.323-9.455-4.313-9.5-4.348a1.539 1.539 0 0 0-2.152.38 1.556 1.556 0 0 0 .377 2.162c.195.138 4.75 3.324 10.45 4.797 2.668.954 2.965 3.819 3.045 6.441 0 .104 0 .196.012.288.011 1.035-.057 2.634-.24 3.554-1.855 1.058-9.123 4.716-20.18 4.716-11.012 0-18.326-3.67-20.191-4.728-.184-.92-.264-2.519-.24-3.554 0-.092.01-.184.01-.287.08-2.623.378-5.487 3.045-6.442 5.7-1.472 10.256-4.67 10.45-4.796.699-.495.87-1.461.378-2.163a1.539 1.539 0 0 0-2.151-.38c-.046.035-4.316 3.026-9.5 4.349-.047.011-.08.023-.115.034-4.968 1.714-5.117 7.04-5.185 9.306 0 .103 0 .195-.012.287v.035c-.011.598-.023 3.669.584 5.21.114.3.32.552.595.725.343.23 8.573 5.498 22.343 5.498s22-5.28 22.343-5.498c.264-.173.481-.426.596-.725.572-1.53.56-4.6.549-5.199z"/>
    </g>
</svg>
