<svg xmlns="http://www.w3.org/2000/svg" width="82" height="17" viewBox="0 0 82 17">
    <path fill="#FFF" fill-rule="evenodd" d="M5.246 3.732a78.589 78.589 0 0 1 4.356 3.546 20.553 20.553 0 0 0 2.358-4.104l1.71.9c-.756 1.71-1.62 3.222-2.61 4.518a63.73 63.73 0 0 1 3.492 3.474l-1.458 1.476c-.936-1.152-2.034-2.304-3.276-3.474-1.512 1.566-3.24 2.772-5.184 3.6l-1.098-1.692A14.287 14.287 0 0 0 8.36 8.718a72.307 72.307 0 0 0-4.482-3.672l1.368-1.314zM.836.888h14.508v1.8H2.654V14.37h13.248v1.8H.836V.888zm31.056 9.954c-.864 2.718-2.448 4.752-4.734 6.084l-1.134-1.548c2.16-1.17 3.6-3.042 4.302-5.598H26.96V7.998h3.726c.108-.756.162-1.548.162-2.358V4.542h-3.132V2.76h3.132V.222h1.818V2.76h3.87v5.238h1.368V9.78h-4.752c1.044 2.304 2.7 4.176 4.95 5.616l-1.296 1.512c-2.196-1.638-3.834-3.654-4.914-6.066zm.774-6.3v.666c0 .99-.054 1.926-.162 2.79H34.7V4.542h-2.034zm-11.124.252h1.782v-4.5h1.854v4.5h1.908V6.63h-1.908v5.274a40.711 40.711 0 0 0 2.214-.918v1.872a37.806 37.806 0 0 1-5.634 2.016l-.486-1.908a42.075 42.075 0 0 0 2.052-.468V6.63h-1.782V4.794zm24.432 2.07h11.124v6.894H45.974V6.864zm9.288 5.238v-.972H47.81v.972h7.452zM47.81 9.546h7.452V8.52H47.81v1.026zm-3.744-7.902h6.552V.186h1.836v1.458h6.552v1.728h-4.914c1.332 1.008 3.222 1.818 5.706 2.43l-.81 1.692c-3.006-1.026-5.184-2.358-6.534-3.996v2.844h-1.836V3.498c-1.422 1.602-3.564 2.934-6.426 3.996l-1.026-1.656c2.556-.684 4.5-1.494 5.85-2.466h-4.95V1.644zm-.36 13.05h15.606v1.71H43.706v-1.71zM71.702 6.18c-.198.216-.396.414-.612.63l-1.17-1.494c1.44-1.404 2.412-3.132 2.916-5.184l1.89.288c-.144.54-.306 1.062-.486 1.566h6.84c0 6.894-.09 11.142-.27 12.762-.18 1.332-1.062 2.016-2.61 2.016-.36 0-.972-.036-1.836-.09L75.914 15c.774.054 1.44.09 1.998.09.63 0 .99-.414 1.098-1.206.108-.972.162-4.338.198-10.116H73.43a13.08 13.08 0 0 1-1.116 1.692h5.22v8.568h-5.832V6.18zm4.086 6.264V10.5h-2.286v1.944h2.286zM73.502 8.97h2.286V7.062h-2.286V8.97zM67.454.33c1.134.882 2.106 1.764 2.898 2.628l-1.278 1.314c-.684-.828-1.674-1.71-2.952-2.646L67.454.33zm-2.556 5.202h4.284v7.398c.45-.414.936-.882 1.44-1.386l.522 1.962a26.542 26.542 0 0 1-3.528 2.88l-.72-1.692c.306-.27.468-.594.468-.99V7.332h-2.466v-1.8z"/>
</svg>
