<svg xmlns="http://www.w3.org/2000/svg" width="82" height="17" viewBox="0 0 82 17">
    <path fill="#FFF" fill-rule="evenodd" d="M5.786 7.476H.89V5.658h13.734c-.126 3.33-.234 5.31-.324 5.958-.072.864-.252 1.458-.576 1.782-.324.324-.936.486-1.818.486-.522 0-1.17.018-1.926.054l-.54-1.872a73.98 73.98 0 0 0 2.016.036c.378 0 .648-.108.81-.288.18-.216.288-.72.324-1.476.036-.432.09-1.386.144-2.862H7.676v9.342h-1.89V7.476zM.098 1.77h3.906V.258h1.908V1.77h4.176V.258h1.908V1.77h3.906v1.836h-3.906v1.476h-1.908V3.606H5.912v1.458H4.004V3.606H.098V1.77zM28.544.348h1.854v1.53h6.804v1.746h-6.804v1.764h5.706v6.228h-12.42V5.388h4.86V.348zm5.688 9.54V7.134h-8.676v2.754h8.676zm-10.584 2.25l1.566.756c-.648 1.53-1.386 2.862-2.25 3.978l-1.548-1.134c.864-1.008 1.602-2.196 2.232-3.6zm4.446.594c.36 1.152.666 2.376.954 3.708l-1.89.45a28.17 28.17 0 0 0-.828-3.798l1.764-.36zm3.726-.252c.504 1.206.954 2.52 1.35 3.924l-1.872.45c-.324-1.512-.738-2.862-1.242-4.014l1.764-.36zm3.582-.432c1.116 1.476 1.98 2.754 2.592 3.834l-1.584 1.08c-.63-1.188-1.476-2.502-2.538-3.942l1.53-.972zM53.48 8.952c.216-2.106.36-3.978.468-5.598l1.44.162c-.108 1.404-.234 2.646-.342 3.726h.864c.18-1.26.288-2.61.306-4.032v-.774h-2.7V.78h5.67v1.656h-1.422v.774a31.231 31.231 0 0 1-.288 4.032h1.872v1.71h-2.16c-.09.396-.18.774-.27 1.134h.882v4.806c0 .126.072.216.216.252h.234c.252-.036.396-.252.414-.648.036-.414.054-.99.054-1.71l1.26.504c0 1.494-.108 2.412-.306 2.754-.198.306-.648.486-1.35.54h-.36c-1.152 0-1.71-.468-1.71-1.386v-3.06c-.756 1.926-1.8 3.51-3.114 4.77l-1.368-1.224c.36-.324.702-.666 1.008-1.026-.126-.324-.252-.666-.396-.99-1.098.72-2.412 1.422-3.942 2.088l-.432-1.602c.324-.144.486-.342.486-.612V9.24l-.792 1.188c-.324-.702-.594-1.296-.846-1.8v8.28h-1.692V9.132a25.551 25.551 0 0 1-1.368 3.42l-.774-1.962c.99-1.584 1.71-3.384 2.142-5.436V5.1h-1.746V3.372h1.746V.24h1.692v3.132h1.188V5.1h-1.188v1.314a40.984 40.984 0 0 1 1.638 2.34V.78h4.536v9.054h-2.916v3.402c.54-.288 1.08-.612 1.62-.972-.216-.45-.45-.9-.684-1.35l1.242-.792c.63 1.134 1.152 2.16 1.548 3.078.756-1.26 1.332-2.664 1.728-4.248H53.48zm-3.366-2.934v2.268h1.332V6.018h-1.332zm1.332-1.548V2.328h-1.332V4.47h1.332zM70.586.906h9.36v7.848h-2.322v5.652c0 .27.144.414.432.414h1.098c.252 0 .414-.144.522-.396.144-.288.234-1.116.27-2.52l1.692.522c-.144 1.98-.378 3.168-.702 3.528-.324.36-.81.54-1.44.54h-1.998c-1.116 0-1.656-.576-1.656-1.71v-6.03h-1.278c-.288 3.744-1.926 6.444-4.914 8.136l-1.026-1.638c2.502-1.26 3.888-3.438 4.14-6.498h-2.178V.906zm7.542 6.12V2.67h-5.724v4.356h5.724zM66.518.708c1.26 1.548 2.232 2.916 2.916 4.068L67.958 5.82c-.72-1.26-1.71-2.646-2.952-4.158l1.512-.954zm1.386 7.488l1.656.648c-.9 2.7-1.89 5.22-2.988 7.596l-1.692-.738a64.097 64.097 0 0 0 3.024-7.506z"/>
</svg>
