<svg xmlns="http://www.w3.org/2000/svg" width="83" height="17" viewBox="0 0 83 17">
    <path fill="#FFF" fill-rule="evenodd" d="M7.182.222h1.944v5.346h6.66v1.818h-6.66v7.038h7.992v1.836H.936v-1.836h6.246V.222zM24.468 7.53a24.301 24.301 0 0 1-1.584 1.746l-.63-2.016c1.818-1.998 3.168-4.356 4.05-7.074l1.782.828a19.484 19.484 0 0 1-1.746 3.852v12.042h-1.872V7.53zm3.51-5.202h3.42l.486-2.142 1.836.18c-.144.684-.306 1.332-.45 1.962h5.112v1.8h-5.58c-.144.54-.288 1.062-.432 1.548h6.75v1.782h-7.344a75.64 75.64 0 0 1-.684 1.764h7.074v1.62c-.702 1.116-1.782 2.232-3.222 3.348.72.378 1.404.774 2.07 1.206l-1.044 1.62c-2.196-1.458-4.464-2.61-6.768-3.438l.99-1.476c1.08.396 2.124.81 3.114 1.278 1.188-.792 2.124-1.602 2.844-2.43h-7.506c.468-1.116.9-2.286 1.314-3.492h-2.772V5.676h3.33c.144-.522.288-1.044.432-1.548h-2.97v-1.8zm16.548.72h7.128a12.862 12.862 0 0 0-1.656-2.34l1.89-.684c.648.846 1.242 1.854 1.782 3.024h6.804V4.92h-2.718c-.864 2.7-2.124 4.95-3.78 6.768 1.854 1.476 4.158 2.7 6.894 3.708l-1.044 1.602c-2.88-1.08-5.274-2.412-7.182-3.996-2.016 1.782-4.5 3.096-7.434 3.924l-1.008-1.656c2.862-.738 5.238-1.89 7.11-3.474-1.944-1.98-3.294-4.266-4.05-6.876h-2.736V3.048zm4.536 1.872c.738 2.124 1.926 3.978 3.582 5.598 1.404-1.548 2.466-3.42 3.168-5.598h-6.75zM69.678.042l1.764.846a20.676 20.676 0 0 1-1.746 3.978v12.006h-1.854v-9.27a32.351 32.351 0 0 1-1.458 1.674l-.63-2.016c1.764-2.034 3.078-4.446 3.924-7.218zM72.72 1.41l1.836.234a20.584 20.584 0 0 1-.486 2.196h1.962V.294h1.89V3.84h3.906v1.836h-3.906v3.69h4.59v1.818h-4.59v5.634h-1.89v-5.634H71.01V9.366h5.022v-3.69h-2.574a15.916 15.916 0 0 1-1.62 3.06L70.632 7.17c1.026-1.566 1.728-3.492 2.088-5.76z"/>
</svg>
