<svg xmlns="http://www.w3.org/2000/svg" width="101" height="34" viewBox="0 0 101 34">
    <g fill="none" fill-rule="evenodd">
        <rect width="101" height="34" fill="#769BE5" rx="2"/>
        <path fill="#FFF" d="M37.556 16.164h6.936v3.12h-6.936v-3.12zm5.676 2.016v-.924h-4.416v.924h4.416zM38.9 19.356c.384.396.732.864 1.044 1.392h2.268c.336-.456.624-.936.876-1.428l1.164.42c-.216.36-.444.696-.684 1.008h2.616v1.188H35.792v-1.188h2.82a6.56 6.56 0 0 0-.888-.948l1.176-.444zm-1.884-6.612a16.13 16.13 0 0 1 1.452 1.188c.42-.408.756-.84 1.02-1.296h-2.724v-1.152h4.14v.936a6.678 6.678 0 0 1-1.116 1.872h2.976a9.772 9.772 0 0 1-1.716-2.58l1.044-.576c.192.444.42.864.684 1.26.42-.336.78-.696 1.08-1.08l.876.78c-.36.432-.792.84-1.284 1.2.192.24.408.456.648.672a6.846 6.846 0 0 0 1.284-1.284l.876.768c-.36.456-.792.876-1.272 1.248.528.384 1.104.744 1.752 1.068l-.828.96c-.936-.528-1.752-1.104-2.448-1.74v.444h-4.404v-.384c-.768.672-1.716 1.236-2.844 1.704l-.768-.984c.84-.324 1.548-.696 2.148-1.116-.396-.36-.864-.732-1.416-1.116l.84-.792zm20-1.248h7.152v3.876h2.028v1.14h-1.86l.948.78c-.624.768-1.332 1.38-2.124 1.812.888.648 1.92 1.212 3.096 1.716l-.636 1.104c-1.68-.792-3.036-1.74-4.068-2.856v1.92c0 .84-.372 1.272-1.104 1.272h-1.404l-.276-1.176c.432.048.852.084 1.26.084.18 0 .276-.168.276-.48v-1.572c-1.176 1.032-2.568 1.956-4.164 2.784l-.504-1.164c1.8-.816 3.348-1.776 4.668-2.904v-1.32h-4.488v-1.14h7.08v-.828h-5.472v-1.08h5.472v-.84h-5.88v-1.128zm.3 5.196c.696.48 1.284.96 1.764 1.44l-.816.816c-.42-.456-1.008-.936-1.776-1.464l.828-.792zm6.996-.18h-2.76v1.176c.228.252.48.492.756.732.768-.456 1.44-1.092 2.004-1.908z"/>
    </g>
</svg>
