<svg xmlns="http://www.w3.org/2000/svg" width="130" height="39" viewBox="0 0 130 39">
    <g fill="#FFF" fill-rule="evenodd">
        <path d="M12.98 3.34H7.56V1.3h11.4v2.04H15.1v4.94h3.58v1.94H15.1v6.16h4.28v2.04H6.96v-2.04h1.82V6.24h2.04v10.14h2.16V3.34zM3.62.72c1.24.98 2.28 1.94 3.16 2.9L5.36 5.08c-.76-.94-1.82-1.94-3.2-2.98L3.62.72zM.76 6.48h4.7v8.06c.52-.48 1.06-.98 1.62-1.54l.54 2.2a32.275 32.275 0 0 1-3.88 3.16l-.8-1.9c.36-.28.54-.64.54-1.08v-6.9H.76v-2zm34.587 5.1h3.48V9.74h-3.06l-.4-1.72c.56-.94 1.1-2.12 1.58-3.56h-1.72V2.64h2.28c.18-.66.36-1.34.52-2.04l1.84.44c-.14.56-.28 1.08-.42 1.6h3.5v1.82h-4.06c-.44 1.3-.9 2.46-1.4 3.46h1.34V5.44h1.92v2.48h2v1.82h-2v1.84h2.58v1.84h-2.58v2.88h-1.92v-2.88h-3.48v-1.84zM32.767.88c.84 1.24 1.5 2.3 1.98 3.22l-1.56 1.08c-.48-1-1.14-2.12-1.94-3.34l1.52-.96zm7.56 16c1.12 0 2.2-.02 3.2-.06l-.54 1.96h-2.82c-.6 0-1.2-.02-1.8-.04-.88-.02-1.7-.14-2.42-.36-.68-.24-1.26-.62-1.72-1.14-.26-.28-.48-.4-.66-.4-.26 0-.78.74-1.58 2.26l-1.2-1.58c.74-1.16 1.38-1.96 1.92-2.36V8.94h-1.32V7.1h3.22v8.24c.36.46.84.82 1.4 1.1.6.2 1.28.34 2.04.4.76.02 1.52.04 2.28.04zM26.807.64l1.98.42c-.12.56-.24 1.08-.36 1.58h2.62v1.98h-3.18c-.24.74-.5 1.44-.78 2.08h3.7v1.86h-1.4v1.88h1.96v1.92h-1.96v3.74c.44-.28.9-.6 1.34-.98l.36 1.8c-1 .7-2.16 1.28-3.48 1.74l-.78-1.72c.36-.16.56-.42.56-.78v-3.8h-2v-1.92h2V8.56h-.72v-.94l-.28.56-1.64-1.04c.98-2.04 1.66-4.2 2.06-6.5zm24.426.9h14.4v2.02h-14.4V1.54zm-1.94 5.5h18.14v2.08h-9.46c-1.66 3.32-3.12 5.72-4.4 7.2 3.16-.22 6.32-.56 9.44-1-.62-1.1-1.28-2.22-2-3.36l1.68-1.04c1.8 2.68 3.2 5.02 4.2 7l-1.88 1.32c-.3-.68-.62-1.34-.98-2.02-3.98.56-8.32 1-13.02 1.34l-.54-2.12c.22-.08.38-.14.5-.22 1.2-.88 2.76-3.24 4.68-7.1h-6.36V7.04zM77.5 8.26c.42 0 .78.14 1.08.46.3.28.46.64.46 1.08 0 .42-.16.78-.46 1.08-.3.3-.66.46-1.08.46-.44 0-.8-.16-1.08-.46-.32-.3-.46-.66-.46-1.08 0-.44.14-.8.46-1.08.28-.32.64-.46 1.08-.46zm13.427.68h11.56v5.2h-11.56v-5.2zm9.46 3.36v-1.54h-7.36v1.54h7.36zm-7.22 1.96c.64.66 1.22 1.44 1.74 2.32h3.78c.56-.76 1.04-1.56 1.46-2.38l1.94.7c-.36.6-.74 1.16-1.14 1.68h4.36v1.98h-17.32v-1.98h4.7c-.42-.56-.92-1.08-1.48-1.58l1.96-.74zm-3.14-11.02c.92.68 1.74 1.34 2.42 1.98.7-.68 1.26-1.4 1.7-2.16h-4.54V1.14h6.9V2.7a11.13 11.13 0 0 1-1.86 3.12h4.96c-1.2-1.32-2.16-2.74-2.86-4.3l1.74-.96c.32.74.7 1.44 1.14 2.1.7-.56 1.3-1.16 1.8-1.8l1.46 1.3c-.6.72-1.32 1.4-2.14 2 .32.4.68.76 1.08 1.12.84-.64 1.54-1.36 2.14-2.14l1.46 1.28c-.6.76-1.32 1.46-2.12 2.08.88.64 1.84 1.24 2.92 1.78l-1.38 1.6c-1.56-.88-2.92-1.84-4.08-2.9v.74h-7.34v-.64c-1.28 1.12-2.86 2.06-4.74 2.84l-1.28-1.64c1.4-.54 2.58-1.16 3.58-1.86-.66-.6-1.44-1.22-2.36-1.86l1.4-1.32zm24.166-2.08h11.92v6.46h3.38v1.9h-3.1l1.58 1.3c-1.04 1.28-2.22 2.3-3.54 3.02 1.48 1.08 3.2 2.02 5.16 2.86l-1.06 1.84c-2.8-1.32-5.06-2.9-6.78-4.76v3.2c0 1.4-.62 2.12-1.84 2.12h-2.34l-.46-1.96c.72.08 1.42.14 2.1.14.3 0 .46-.28.46-.8v-2.62c-1.96 1.72-4.28 3.26-6.94 4.64l-.84-1.94c3-1.36 5.58-2.96 7.78-4.84v-2.2h-7.48v-1.9h11.8V6.24h-9.12v-1.8h9.12v-1.4h-9.8V1.16zm.5 8.66c1.16.8 2.14 1.6 2.94 2.4l-1.36 1.36c-.7-.76-1.68-1.56-2.96-2.44l1.38-1.32zm11.66-.3h-4.6v1.96c.38.42.8.82 1.26 1.22 1.28-.76 2.4-1.82 3.34-3.18zM33.73 28.86h5.01v.54h-4.4v2.63h4.16v.55h-4.16v2.88h4.57V36h-5.18v-7.14zm10.253-.14c.75 0 1.4.2 1.94.62.56.42.88.98.97 1.68h-.59a1.87 1.87 0 0 0-.81-1.29c-.43-.3-.94-.45-1.52-.45-.88 0-1.56.31-2.06.93-.47.58-.7 1.33-.7 2.25 0 .92.23 1.67.69 2.23.48.59 1.15.89 2.01.89.61 0 1.13-.17 1.57-.49.47-.36.78-.87.92-1.53h.59c-.15.82-.52 1.47-1.12 1.94-.55.42-1.2.64-1.95.64-1.07 0-1.9-.37-2.5-1.1-.55-.67-.82-1.53-.82-2.58s.28-1.92.84-2.61c.61-.76 1.46-1.13 2.54-1.13zm8.084 0c.75 0 1.4.2 1.94.62.56.42.88.98.97 1.68h-.59a1.87 1.87 0 0 0-.81-1.29c-.43-.3-.94-.45-1.52-.45-.88 0-1.56.31-2.06.93-.47.58-.7 1.33-.7 2.25 0 .92.23 1.67.69 2.23.48.59 1.15.89 2.01.89.61 0 1.13-.17 1.57-.49.47-.36.78-.87.92-1.53h.59c-.15.82-.52 1.47-1.12 1.94-.55.42-1.2.64-1.95.64-1.07 0-1.9-.37-2.5-1.1-.55-.67-.82-1.53-.82-2.58s.28-1.92.84-2.61c.61-.76 1.46-1.13 2.54-1.13zm10.936 2.97c.19 0 .35.07.49.21.14.13.21.29.21.49 0 .19-.07.36-.21.5-.14.14-.3.21-.49.21-.2 0-.36-.07-.49-.21a.688.688 0 0 1-.21-.5c0-.2.07-.36.21-.49.13-.14.29-.21.49-.21zm8.227-2.83h.61v6.6h4.29V36h-4.9v-7.14zm8.853 1.83c.76 0 1.37.27 1.83.82.42.51.63 1.15.63 1.91s-.21 1.39-.63 1.9c-.46.54-1.07.82-1.83.82s-1.37-.28-1.83-.82c-.42-.51-.63-1.14-.63-1.9s.21-1.4.64-1.91c.45-.55 1.06-.82 1.82-.82zm0 .52c-.59 0-1.05.22-1.39.68-.31.4-.46.91-.46 1.53 0 .61.15 1.12.46 1.52.34.45.8.68 1.39.68.59 0 1.06-.23 1.4-.68.3-.41.46-.92.46-1.52 0-.62-.16-1.13-.46-1.53-.34-.46-.81-.68-1.4-.68zm6.484-.52c.85 0 1.47.39 1.85 1.18v-1.04h.6v4.79c0 1.66-.78 2.5-2.32 2.5-.68 0-1.2-.15-1.57-.44-.35-.28-.57-.69-.66-1.24h.6c.07.38.23.67.48.86.26.21.64.32 1.15.32 1.14 0 1.72-.65 1.72-1.93v-.99c-.38.78-1 1.18-1.85 1.18-.72 0-1.3-.26-1.73-.77-.4-.48-.6-1.08-.6-1.82 0-.73.2-1.34.6-1.82.43-.52 1.01-.78 1.73-.78zm.07.51c-.57 0-1.01.2-1.33.62-.31.38-.46.87-.46 1.47 0 .58.14 1.06.43 1.44.31.42.76.63 1.35.63.57 0 1.02-.2 1.34-.6.3-.38.45-.87.45-1.47s-.15-1.09-.45-1.47c-.32-.42-.77-.62-1.33-.62zm5.073-2.23c.14 0 .26.05.36.15.1.08.15.2.15.35a.5.5 0 0 1-.16.36.5.5 0 0 1-.35.14.49.49 0 0 1-.36-.14c-.1-.1-.15-.22-.15-.36 0-.15.05-.27.15-.35.09-.1.21-.15.36-.15zm-.3 1.86h.6V36h-.6v-5.17zm5.273-.14c1.28 0 1.92.71 1.92 2.13V36h-.6v-3.14c0-1.1-.49-1.65-1.47-1.65-.42 0-.76.15-1.04.45-.3.3-.46.71-.49 1.22V36h-.6v-5.17h.6v.85c.18-.31.41-.55.7-.73.29-.18.62-.26.98-.26z"/>
    </g>
</svg>
