<svg xmlns="http://www.w3.org/2000/svg" width="101" height="34" viewBox="0 0 101 34">
    <g fill="none" fill-rule="evenodd">
        <rect width="101" height="34" fill="#DBE4F5" rx="2"/>
        <path fill="#4C4C4C" d="M37.924 11.196c.444.6.876 1.248 1.296 1.956l-.696.348h2.364c.432-.672.804-1.476 1.128-2.388l1.224.336a10.77 10.77 0 0 1-.948 2.052h2.22v1.224h-3.876v.288c-.024.552-.084 1.08-.168 1.56h4.74v1.224h-4.14c.576 1.38 2.064 2.472 4.44 3.288l-.744 1.188c-2.472-1.008-4.056-2.34-4.764-3.984a7.57 7.57 0 0 1-.756 1.38c-.816 1.08-2.148 1.908-3.996 2.484l-.684-1.092c1.848-.6 3.084-1.356 3.732-2.256.204-.312.384-.648.528-1.008h-4.032v-1.224h4.392c.096-.48.156-1.008.18-1.56v-.288h-3.888V13.5h2.496a14.418 14.418 0 0 0-1.2-1.752l1.152-.552zm22.196 4.992h-3.24v-1.224h3.444v-1.548h1.248v1.548h1.536v1.224h-1.536v3.948c0 .864-.408 1.308-1.212 1.308H59.1l-.288-1.188c.384.048.756.084 1.104.084.264 0 .408-.18.408-.516V17.52c-.744 1.044-1.8 1.98-3.156 2.82l-.672-1.08c1.752-.924 2.964-1.944 3.624-3.072zm3.444 5.964h-.96l-.336-1.176 1.044.036c.3 0 .456-.192.456-.576v-7.644h-4.464V11.64h5.688v9.132c0 .912-.48 1.38-1.428 1.38zm-8.568-9.012h1.224v9.12h-1.224v-9.12zm2.124-2.112a11.962 11.962 0 0 1 1.452 2.112l-1.128.588a13.183 13.183 0 0 0-1.464-2.196l1.14-.504z"/>
    </g>
</svg>
