<svg xmlns="http://www.w3.org/2000/svg" width="64" height="24" viewBox="0 0 64 24">
    <g fill="none" fill-rule="evenodd">
        <rect width="64" height="24" fill="#000" fill-opacity=".197" rx="12"/>
        <path fill="#FFF" d="M16.928 13.084l.636.18a13.249 13.249 0 0 1-1.26 2.856h2.736v.612H8.984v-.612h6.624c.504-.828.936-1.836 1.32-3.036zm-5.964.168c.36.66.672 1.428.96 2.292l-.588.144a13.725 13.725 0 0 0-.96-2.244l.588-.192zM13.736 13c.288.72.552 1.536.768 2.46l-.588.144a20.206 20.206 0 0 0-.78-2.412l.6-.192zm-2.82-1.092h6.18v.576h-6.18v-.576zm-.624-3.996a9.256 9.256 0 0 1-1.08 1.692l-.552-.348a8.946 8.946 0 0 0 1.644-3.072l.636.132c-.12.336-.24.672-.372.996h3.312v.6h-1.896c.216.468.396.9.516 1.308l-.588.216a15.363 15.363 0 0 0-.576-1.524h-1.044zm5.064 0a8.643 8.643 0 0 1-.72 1.224l-.54-.36a8.118 8.118 0 0 0 1.248-2.592l.624.132c-.108.348-.228.684-.348.996h3.624v.6H17.18c.288.504.516.972.684 1.404l-.6.228a13.49 13.49 0 0 0-.768-1.632h-1.14zm-1.56 1.332h.408c1.512 1.116 3.24 2.004 5.208 2.652l-.312.564c-1.992-.684-3.696-1.572-5.1-2.676-1.296 1.02-2.988 1.908-5.1 2.664l-.312-.576c2.088-.708 3.816-1.584 5.208-2.628zm7.716.528l.948-3.192.648.096-.756 2.484h2.352c.252-.96.456-1.968.612-3.048l.66.072a31.773 31.773 0 0 1-.6 2.976h5.7v.612h-5.868a24.101 24.101 0 0 1-.528 1.572h4.98v.564c-.336 1.068-1.032 2.04-2.088 2.916 1.008.636 2.244 1.212 3.732 1.728l-.324.6c-1.608-.588-2.916-1.224-3.936-1.92-1.008.72-2.268 1.368-3.78 1.956l-.336-.6c1.44-.528 2.628-1.116 3.564-1.752-1.056-.804-1.776-1.668-2.184-2.604-.888 1.98-2.028 3.552-3.444 4.716l-.336-.6c1.824-1.584 3.168-3.768 4.008-6.576h-3.024zm3.312 2.172c.408.912 1.14 1.752 2.196 2.508.972-.768 1.632-1.608 1.98-2.508h-4.176zm3.168-5.664c.864.672 1.596 1.344 2.184 2.028l-.468.468c-.528-.66-1.248-1.356-2.16-2.076l.444-.42zm14.088.036l.312.528c-.72.264-1.536.468-2.472.612v1.572h3.276v.612H39.92v1.584h2.82v.588h-6.252v-.588h2.784V9.64h-3.36v-.612h3.36V7.54c-.768.072-1.596.12-2.484.12l-.204-.564c2.232-.012 4.068-.276 5.496-.78zm-6.78-.168l.624.144c-.3.624-.636 1.188-1.02 1.716v4.14h-.648V8.824c-.396.432-.816.84-1.272 1.2l-.408-.468c1.14-.9 2.052-2.04 2.724-3.408zm.288 6.684h4.776v3.132c0 .288.144.444.432.444h1.224c.216 0 .396-.048.528-.144.156-.12.276-.684.372-1.668l.6.192c-.096.912-.216 1.512-.372 1.788-.18.276-.516.42-1.02.42h-1.5c-.612 0-.912-.3-.912-.888v-2.664h-3.48v.948c-.06 1.524-1.104 2.472-3.12 2.832l-.384-.552c1.896-.312 2.856-1.104 2.856-2.364v-1.476zm16.476-5.328H48.62v-.636h6.672v.636h-2.568v3.588h2.412v.612h-2.412v4.416h2.82v.636H48.26v-.636h1.272V9.628h.636v6.492h1.896V7.504zm-6.18-1.14c.804.624 1.476 1.26 2.028 1.896l-.444.456c-.504-.6-1.176-1.248-2.04-1.92l.456-.432zm-1.332 3.6h2.436v5.4c.432-.36.9-.78 1.404-1.284l.168.684a15.25 15.25 0 0 1-2.148 1.8l-.252-.6c.144-.132.216-.264.216-.408V10.6h-1.824v-.636z"/>
    </g>
</svg>
