<svg xmlns="http://www.w3.org/2000/svg" width="64" height="24" viewBox="0 0 64 24">
    <g fill="none" fill-rule="evenodd">
        <rect width="64" height="24" fill="#769BE5" rx="12"/>
        <path fill="#FFF" d="M18.696 6.928h10.596v.636H24v2.004c1.512.78 3.048 1.68 4.608 2.7l-.384.576c-1.668-1.128-3.072-1.992-4.224-2.604v6.96h-.636V7.564h-4.668v-.636zm16.684.348h2.4V6.184h.648v1.092h2.244v.6h-2.244v1.272h3.084a57.807 57.807 0 0 1-.072-2.988h.624c0 1.104.024 2.1.072 2.988h3.108v.612h-3.072c.072 1.104.168 2.028.312 2.76.096.456.192.864.288 1.236.492-.924.888-2.016 1.176-3.264l.576.252c-.384 1.524-.876 2.796-1.5 3.816.12.336.252.636.384.888.324.612.6.924.816.924.228-.012.432-.696.6-2.052l.552.312c-.24 1.596-.6 2.4-1.056 2.4-.396 0-.828-.372-1.284-1.092a6.771 6.771 0 0 1-.396-.78c-.636.864-1.368 1.524-2.196 1.968l-.348-.528c.888-.492 1.644-1.212 2.28-2.16a12.75 12.75 0 0 1-.48-1.812 23.17 23.17 0 0 1-.348-2.868h-6.804v-.612h3.036V7.876h-2.4v-.6zm7.944-.936c.6.672 1.068 1.26 1.38 1.764l-.492.348c-.336-.552-.804-1.152-1.392-1.8l.504-.312zm-2.64 8.508v.576a80.52 80.52 0 0 1-1.968.24v1.464h-.636v-1.392c-.9.084-1.848.156-2.856.228l-.072-.612a87.624 87.624 0 0 0 2.928-.216v-1.224h-2.436l-.144-.54a7.456 7.456 0 0 0 1.044-1.68h-1.428v-.588h1.692c.132-.324.252-.66.372-.996l.624.12c-.12.312-.228.6-.336.876h3.264v.588h-3.528c-.3.624-.624 1.188-.972 1.668h1.848v-1.044h.636v1.044h1.908v.552h-1.908v1.164a64.707 64.707 0 0 0 1.968-.228z"/>
    </g>
</svg>
