<svg xmlns="http://www.w3.org/2000/svg" width="101" height="34" viewBox="0 0 101 34">
    <g fill="none" fill-rule="evenodd">
        <rect width="101" height="34" fill="#DBE4F5" rx="2"/>
        <path fill="#4C4C4C" d="M17.324 16.596v5.652h-1.212v-5.316a15.159 15.159 0 0 1-1.212 2.64l-.528-1.296c.768-1.08 1.332-2.328 1.692-3.72h-1.476v-1.188h1.524V11.16h1.212v2.208h1.284v1.188h-1.284v.612c.528.576 1.08 1.236 1.632 1.956l-.708 1.08c-.36-.636-.66-1.176-.924-1.608zm1.476-4.26h2.784a8.565 8.565 0 0 0-.504-.996l1.284-.216c.156.36.3.768.444 1.212H25.4v1.14h-3.288c-.552.96-1.044 1.668-1.476 2.148a86.858 86.858 0 0 0 1.824-.132c.288-.408.54-.84.78-1.296l1.008.54c-1.2 2.388-2.952 4.008-5.268 4.872l-.684-1.032c1.284-.444 2.376-1.116 3.276-2.028l-2.328.108-.252-1.008a.81.81 0 0 0 .228-.108c.42-.264.96-.96 1.608-2.064H18.8v-1.14zm3.9 7.656a11.676 11.676 0 0 1-3.876 2.256l-.696-1.068c2.772-.9 4.848-2.64 6.216-5.208l1.044.54a13.11 13.11 0 0 1-1.908 2.724 18.761 18.761 0 0 1 2.064 2.1l-.912.912c-.48-.72-1.116-1.464-1.932-2.256zm17-6.636h3.324v-2.232h1.26v2.232h1.2v1.212h-1.2v6.204c0 .96-.504 1.44-1.512 1.44h-1.788l-.276-1.224c.576.048 1.116.084 1.632.084.456 0 .684-.204.684-.612v-5.892H39.7v-1.212zm-4.092.876c.684.744 1.32 1.5 1.92 2.244.36-.936.564-1.956.624-3.036h-3.168v-1.212h4.26v.912c-.012 1.584-.324 3.036-.924 4.368.456.6.864 1.188 1.248 1.788l-.936.936c-.288-.504-.6-1.008-.96-1.524-.648 1.02-1.488 1.956-2.508 2.82l-.72-1.08c1.068-.804 1.908-1.728 2.508-2.76a39.984 39.984 0 0 0-2.196-2.652l.852-.804zm4.968 1.464c.768.96 1.368 1.812 1.776 2.544l-.984.696a18.806 18.806 0 0 0-1.752-2.544l.96-.696zm23.36-4.536l.588.996c-.66.24-1.416.42-2.28.552v.96h3.06v1.152h-3.06v1.056h2.604v1.092H58.44v-1.092h2.568V14.82h-3.144v-1.152h3.144v-.828c-.648.048-1.344.084-2.076.084l-.372-1.08c2.112 0 3.912-.228 5.376-.684zm-6.984-.132l1.224.276a15.55 15.55 0 0 1-1.008 1.704v4.212H55.92v-2.724c-.252.24-.504.468-.744.672l-.768-.924c.96-.756 1.812-1.824 2.544-3.216zm.336 6.576h5.34v3.06c0 .192.084.288.252.288h1.056c.12 0 .216-.048.288-.12.048-.072.132-.552.24-1.452l1.14.36c-.12 1.008-.252 1.632-.408 1.896-.156.288-.504.444-1.044.444h-1.596c-.792 0-1.176-.384-1.176-1.152v-2.172h-2.844v.66c-.048 1.572-1.116 2.544-3.192 2.928l-.708-1.056c1.764-.264 2.652-.948 2.652-2.04v-1.644zm24.5-4.8h-3.252V11.58h6.84v1.224H83.06v2.964h2.148v1.164H83.06v3.696h2.568v1.224h-7.452v-1.224h1.092v-6.084h1.224v6.084h1.296v-7.824zm-5.616-1.572a16.076 16.076 0 0 1 1.896 1.74l-.852.876c-.456-.564-1.092-1.164-1.92-1.788l.876-.828zm-1.716 3.456h2.82v4.836c.312-.288.636-.588.972-.924l.324 1.32a19.365 19.365 0 0 1-2.328 1.896l-.48-1.14a.785.785 0 0 0 .324-.648v-4.14h-1.632v-1.2z"/>
    </g>
</svg>
